<mxfile host="app.diagrams.net" modified="2024-06-08T02:25:08.150Z" agent="Mozilla/5.0 (Windows NT 10.0; Win64; x64) AppleWebKit/537.36 (KHTML, like Gecko) Chrome/125.0.0.0 Safari/537.36" etag="kRdDTKGuZFI1OG-ZcBbm" version="24.2.8" type="github">
  <diagram id="nBW5-Q817jtdk9zII63u" name="Page-1">
    <mxGraphModel dx="949" dy="502" grid="1" gridSize="10" guides="1" tooltips="1" connect="1" arrows="1" fold="1" page="1" pageScale="1" pageWidth="827" pageHeight="1169" math="0" shadow="0">
      <root>
        <mxCell id="0" />
        <mxCell id="1" parent="0" />
        <mxCell id="hc69DyIE2OQv7nk9ciK2-1" value="" style="rounded=0;whiteSpace=wrap;html=1;fontSize=30;strokeColor=#5C5C5C;strokeWidth=4;fillColor=none;dashed=1;" vertex="1" parent="1">
          <mxGeometry x="307.91" y="723" width="1560" height="730" as="geometry" />
        </mxCell>
        <mxCell id="hc69DyIE2OQv7nk9ciK2-2" value="" style="rounded=0;whiteSpace=wrap;html=1;fontSize=20;strokeColor=#5C5C5C;strokeWidth=1;fillColor=none;dashed=1;" vertex="1" parent="1">
          <mxGeometry x="1125.95" y="2017" width="245.5" height="60" as="geometry" />
        </mxCell>
        <mxCell id="hc69DyIE2OQv7nk9ciK2-3" value="" style="rounded=0;whiteSpace=wrap;html=1;fontSize=20;strokeColor=#5C5C5C;strokeWidth=1;fillColor=none;dashed=1;" vertex="1" parent="1">
          <mxGeometry x="821.5" y="2017" width="245.5" height="60" as="geometry" />
        </mxCell>
        <mxCell id="hc69DyIE2OQv7nk9ciK2-4" value="" style="rounded=0;whiteSpace=wrap;html=1;dashed=1;fontSize=20;strokeColor=#5C5C5C;strokeWidth=4;fillColor=none;" vertex="1" parent="1">
          <mxGeometry x="306.52" y="1934.5" width="1073.48" height="267" as="geometry" />
        </mxCell>
        <mxCell id="hc69DyIE2OQv7nk9ciK2-5" value="" style="rounded=0;whiteSpace=wrap;html=1;dashed=1;fontSize=20;strokeColor=#5C5C5C;strokeWidth=4;fillColor=none;" vertex="1" parent="1">
          <mxGeometry x="306" y="1453" width="420" height="276" as="geometry" />
        </mxCell>
        <mxCell id="hc69DyIE2OQv7nk9ciK2-6" value="" style="rounded=0;whiteSpace=wrap;html=1;dashed=1;fontSize=20;strokeColor=#5C5C5C;strokeWidth=4;fillColor=none;" vertex="1" parent="1">
          <mxGeometry x="306" y="1729.5" width="1270" height="205" as="geometry" />
        </mxCell>
        <mxCell id="hc69DyIE2OQv7nk9ciK2-7" value="" style="rounded=0;whiteSpace=wrap;html=1;fontSize=20;strokeColor=#5C5C5C;strokeWidth=1;fillColor=none;dashed=1;" vertex="1" parent="1">
          <mxGeometry x="1245.91" y="1735.5" width="151" height="60" as="geometry" />
        </mxCell>
        <mxCell id="hc69DyIE2OQv7nk9ciK2-8" value="" style="rounded=0;whiteSpace=wrap;html=1;fontSize=20;strokeColor=#5C5C5C;strokeWidth=1;fillColor=none;dashed=1;" vertex="1" parent="1">
          <mxGeometry x="1081" y="1735.5" width="151" height="60" as="geometry" />
        </mxCell>
        <mxCell id="hc69DyIE2OQv7nk9ciK2-9" value="" style="rounded=0;whiteSpace=wrap;html=1;fontSize=20;strokeColor=#5C5C5C;strokeWidth=1;fillColor=none;dashed=1;" vertex="1" parent="1">
          <mxGeometry x="806" y="1735.5" width="151" height="60" as="geometry" />
        </mxCell>
        <mxCell id="hc69DyIE2OQv7nk9ciK2-10" value="&lt;span style=&quot;font-size: 30px;&quot;&gt;Token embedding&lt;/span&gt;" style="text;html=1;resizable=0;autosize=1;align=center;verticalAlign=middle;points=[];rounded=0;shadow=0;sketch=0;fillStyle=auto;fontFamily=Times New Roman;fontSize=27;" vertex="1" parent="1">
          <mxGeometry x="1546" y="1472" width="240" height="50" as="geometry" />
        </mxCell>
        <mxCell id="hc69DyIE2OQv7nk9ciK2-11" value="" style="verticalLabelPosition=bottom;verticalAlign=top;html=1;shape=mxgraph.basic.patternFillRect;fillStyle=auto;step=5;fillStrokeWidth=0.2;fillStrokeColor=#dddddd;gradientDirection=north;shadow=0;sketch=0;strokeWidth=3;" vertex="1" parent="1">
          <mxGeometry x="840.97" y="1550.5" width="47.22" height="47" as="geometry" />
        </mxCell>
        <mxCell id="hc69DyIE2OQv7nk9ciK2-12" value="" style="verticalLabelPosition=bottom;verticalAlign=top;html=1;shape=mxgraph.basic.patternFillRect;fillStyle=auto;step=5;fillStrokeWidth=0.2;fillStrokeColor=#dddddd;gradientDirection=north;shadow=0;sketch=0;strokeWidth=3;" vertex="1" parent="1">
          <mxGeometry x="887" y="1550.5" width="47.22" height="47" as="geometry" />
        </mxCell>
        <mxCell id="hc69DyIE2OQv7nk9ciK2-13" value="" style="verticalLabelPosition=bottom;verticalAlign=top;html=1;shape=mxgraph.basic.patternFillRect;fillStyle=auto;step=5;fillStrokeWidth=0.2;fillStrokeColor=#dddddd;gradientDirection=north;shadow=0;sketch=0;strokeWidth=3;" vertex="1" parent="1">
          <mxGeometry x="1112.66" y="1550.5" width="47.22" height="47" as="geometry" />
        </mxCell>
        <mxCell id="hc69DyIE2OQv7nk9ciK2-14" value="" style="verticalLabelPosition=bottom;verticalAlign=top;html=1;shape=mxgraph.basic.patternFillRect;fillStyle=auto;step=5;fillStrokeWidth=0.2;fillStrokeColor=#dddddd;gradientDirection=north;shadow=0;sketch=0;strokeWidth=3;" vertex="1" parent="1">
          <mxGeometry x="1158.69" y="1550.5" width="47.22" height="47" as="geometry" />
        </mxCell>
        <mxCell id="hc69DyIE2OQv7nk9ciK2-15" value="" style="verticalLabelPosition=bottom;verticalAlign=top;html=1;shape=mxgraph.basic.patternFillRect;fillStyle=auto;step=5;fillStrokeWidth=0.2;fillStrokeColor=#dddddd;gradientDirection=north;shadow=0;sketch=0;strokeWidth=3;" vertex="1" parent="1">
          <mxGeometry x="1252.91" y="1550.5" width="47.22" height="47" as="geometry" />
        </mxCell>
        <mxCell id="hc69DyIE2OQv7nk9ciK2-16" value="" style="verticalLabelPosition=bottom;verticalAlign=top;html=1;shape=mxgraph.basic.patternFillRect;fillStyle=auto;step=5;fillStrokeWidth=0.2;fillStrokeColor=#dddddd;gradientDirection=north;shadow=0;sketch=0;strokeWidth=3;" vertex="1" parent="1">
          <mxGeometry x="1301.13" y="1550.5" width="47.22" height="47" as="geometry" />
        </mxCell>
        <mxCell id="hc69DyIE2OQv7nk9ciK2-17" value="" style="verticalLabelPosition=bottom;verticalAlign=top;html=1;shape=mxgraph.basic.patternFillRect;fillStyle=auto;step=5;fillStrokeWidth=0.2;fillStrokeColor=#dddddd;gradientDirection=north;shadow=0;sketch=0;strokeWidth=3;" vertex="1" parent="1">
          <mxGeometry x="1347.3500000000001" y="1550.5" width="47.22" height="47" as="geometry" />
        </mxCell>
        <mxCell id="hc69DyIE2OQv7nk9ciK2-18" value="" style="verticalLabelPosition=bottom;verticalAlign=top;html=1;shape=mxgraph.basic.patternFillRect;fillStyle=auto;step=5;fillStrokeWidth=0.2;fillStrokeColor=#dddddd;gradientDirection=north;shadow=0;sketch=0;strokeWidth=3;" vertex="1" parent="1">
          <mxGeometry x="766" y="1474.5" width="47.22" height="47" as="geometry" />
        </mxCell>
        <mxCell id="hc69DyIE2OQv7nk9ciK2-19" value="&lt;font style=&quot;font-size: 20px;&quot;&gt;CLS&lt;/font&gt;" style="text;html=1;resizable=0;autosize=1;align=center;verticalAlign=middle;points=[];rounded=0;dashed=1;fontFamily=Times New Roman;fontSize=11;strokeWidth=3;" vertex="1" parent="1">
          <mxGeometry x="764" y="1488" width="50" height="20" as="geometry" />
        </mxCell>
        <mxCell id="hc69DyIE2OQv7nk9ciK2-20" value="&lt;font style=&quot;font-size: 20px;&quot;&gt;体&lt;/font&gt;" style="text;html=1;resizable=0;autosize=1;align=center;verticalAlign=middle;points=[];rounded=0;dashed=1;fontFamily=Times New Roman;fontSize=11;strokeWidth=3;" vertex="1" parent="1">
          <mxGeometry x="842.71" y="1564" width="40" height="20" as="geometry" />
        </mxCell>
        <mxCell id="hc69DyIE2OQv7nk9ciK2-21" value="&lt;font style=&quot;font-size: 20px;&quot;&gt;温&lt;/font&gt;" style="text;html=1;resizable=0;autosize=1;align=center;verticalAlign=middle;points=[];rounded=0;dashed=1;fontFamily=Times New Roman;fontSize=11;strokeWidth=3;" vertex="1" parent="1">
          <mxGeometry x="890.61" y="1564" width="40" height="20" as="geometry" />
        </mxCell>
        <mxCell id="hc69DyIE2OQv7nk9ciK2-22" value="&lt;font style=&quot;font-size: 20px;&quot;&gt;3&lt;/font&gt;" style="text;html=1;resizable=0;autosize=1;align=center;verticalAlign=middle;points=[];rounded=0;dashed=1;fontFamily=Times New Roman;fontSize=11;strokeWidth=3;" vertex="1" parent="1">
          <mxGeometry x="1121.27" y="1564" width="30" height="20" as="geometry" />
        </mxCell>
        <mxCell id="hc69DyIE2OQv7nk9ciK2-23" value="&lt;font style=&quot;font-size: 20px;&quot;&gt;9&lt;/font&gt;" style="text;html=1;resizable=0;autosize=1;align=center;verticalAlign=middle;points=[];rounded=0;dashed=1;fontFamily=Times New Roman;fontSize=11;strokeWidth=3;" vertex="1" parent="1">
          <mxGeometry x="1167.3000000000002" y="1564" width="30" height="20" as="geometry" />
        </mxCell>
        <mxCell id="hc69DyIE2OQv7nk9ciK2-24" value="&lt;font style=&quot;font-size: 20px;&quot;&gt;摄&lt;/font&gt;" style="text;html=1;resizable=0;autosize=1;align=center;verticalAlign=middle;points=[];rounded=0;dashed=1;fontFamily=Times New Roman;fontSize=11;strokeWidth=3;" vertex="1" parent="1">
          <mxGeometry x="1256.52" y="1564" width="40" height="20" as="geometry" />
        </mxCell>
        <mxCell id="hc69DyIE2OQv7nk9ciK2-25" value="&lt;font style=&quot;font-size: 20px;&quot;&gt;氏&lt;/font&gt;" style="text;html=1;resizable=0;autosize=1;align=center;verticalAlign=middle;points=[];rounded=0;dashed=1;fontFamily=Times New Roman;fontSize=11;strokeWidth=3;" vertex="1" parent="1">
          <mxGeometry x="1303.74" y="1564" width="40" height="20" as="geometry" />
        </mxCell>
        <mxCell id="hc69DyIE2OQv7nk9ciK2-26" value="&lt;font style=&quot;font-size: 20px;&quot;&gt;度&lt;/font&gt;" style="text;html=1;resizable=0;autosize=1;align=center;verticalAlign=middle;points=[];rounded=0;dashed=1;fontFamily=Times New Roman;fontSize=11;strokeWidth=3;" vertex="1" parent="1">
          <mxGeometry x="1350.96" y="1564" width="40" height="20" as="geometry" />
        </mxCell>
        <mxCell id="hc69DyIE2OQv7nk9ciK2-27" value="" style="endArrow=classic;html=1;rounded=0;exitX=0.5;exitY=1;exitDx=0;exitDy=0;exitPerimeter=0;entryX=0.25;entryY=0;entryDx=0;entryDy=0;" edge="1" parent="1" source="hc69DyIE2OQv7nk9ciK2-11" target="hc69DyIE2OQv7nk9ciK2-29">
          <mxGeometry width="50" height="50" relative="1" as="geometry">
            <mxPoint x="864.5800000000004" y="1605.5" as="sourcePoint" />
            <mxPoint x="862" y="1638.5" as="targetPoint" />
          </mxGeometry>
        </mxCell>
        <mxCell id="hc69DyIE2OQv7nk9ciK2-28" value="" style="endArrow=classic;html=1;rounded=0;exitX=0.5;exitY=1;exitDx=0;exitDy=0;exitPerimeter=0;entryX=0.75;entryY=0;entryDx=0;entryDy=0;" edge="1" parent="1" source="hc69DyIE2OQv7nk9ciK2-12" target="hc69DyIE2OQv7nk9ciK2-29">
          <mxGeometry width="50" height="50" relative="1" as="geometry">
            <mxPoint x="910.6100000000001" y="1605.5" as="sourcePoint" />
            <mxPoint x="912" y="1638.5" as="targetPoint" />
          </mxGeometry>
        </mxCell>
        <mxCell id="hc69DyIE2OQv7nk9ciK2-29" value="&lt;font style=&quot;font-size: 20px;&quot;&gt;Max pool&lt;/font&gt;" style="rounded=0;whiteSpace=wrap;html=1;strokeColor=#000000;strokeWidth=3;fillColor=none;" vertex="1" parent="1">
          <mxGeometry x="837" y="1618.5" width="100" height="30" as="geometry" />
        </mxCell>
        <mxCell id="hc69DyIE2OQv7nk9ciK2-30" value="" style="endArrow=classic;html=1;rounded=0;fontSize=20;exitX=0.5;exitY=1;exitDx=0;exitDy=0;entryX=0.5;entryY=0;entryDx=0;entryDy=0;" edge="1" parent="1" source="hc69DyIE2OQv7nk9ciK2-29" target="hc69DyIE2OQv7nk9ciK2-32">
          <mxGeometry width="50" height="50" relative="1" as="geometry">
            <mxPoint x="888.19" y="1761.5" as="sourcePoint" />
            <mxPoint x="886.5" y="1720.5" as="targetPoint" />
          </mxGeometry>
        </mxCell>
        <mxCell id="hc69DyIE2OQv7nk9ciK2-31" style="rounded=0;orthogonalLoop=1;jettySize=auto;html=1;entryX=0.5;entryY=0;entryDx=0;entryDy=0;fontSize=20;fillColor=#cce5ff;strokeColor=#004C99;exitX=0.5;exitY=1;exitDx=0;exitDy=0;strokeWidth=2;" edge="1" parent="1" source="hc69DyIE2OQv7nk9ciK2-32" target="hc69DyIE2OQv7nk9ciK2-67">
          <mxGeometry relative="1" as="geometry">
            <mxPoint x="886.3348648648653" y="1728.5" as="sourcePoint" />
          </mxGeometry>
        </mxCell>
        <mxCell id="hc69DyIE2OQv7nk9ciK2-32" value="" style="whiteSpace=wrap;html=1;aspect=fixed;fontSize=20;strokeColor=none;strokeWidth=1;fillColor=#E7E6D5;fontColor=#ffffff;" vertex="1" parent="1">
          <mxGeometry x="863" y="1669.5" width="47" height="47" as="geometry" />
        </mxCell>
        <mxCell id="hc69DyIE2OQv7nk9ciK2-33" value="" style="endArrow=classic;html=1;rounded=0;fontSize=20;exitX=0.5;exitY=1;exitDx=0;exitDy=0;exitPerimeter=0;entryX=0.5;entryY=0;entryDx=0;entryDy=0;" edge="1" parent="1" source="hc69DyIE2OQv7nk9ciK2-18" target="hc69DyIE2OQv7nk9ciK2-34">
          <mxGeometry width="50" height="50" relative="1" as="geometry">
            <mxPoint x="739" y="1590.5" as="sourcePoint" />
            <mxPoint x="806" y="1630.5" as="targetPoint" />
          </mxGeometry>
        </mxCell>
        <mxCell id="hc69DyIE2OQv7nk9ciK2-34" value="" style="whiteSpace=wrap;html=1;aspect=fixed;fontSize=20;strokeColor=none;strokeWidth=1;fillColor=#77965E;fontColor=#ffffff;" vertex="1" parent="1">
          <mxGeometry x="767.71" y="1669.5" width="47" height="47" as="geometry" />
        </mxCell>
        <mxCell id="hc69DyIE2OQv7nk9ciK2-35" value="The table of width embedding " style="shape=table;startSize=30;container=1;collapsible=0;childLayout=tableLayout;fixedRows=1;rowLines=0;fontStyle=1;fontSize=20;strokeColor=#000000;strokeWidth=1;fillColor=none;fontFamily=Times New Roman;" vertex="1" parent="1">
          <mxGeometry x="1596" y="1706.5" width="271" height="230" as="geometry" />
        </mxCell>
        <mxCell id="hc69DyIE2OQv7nk9ciK2-36" value="" style="shape=tableRow;horizontal=0;startSize=0;swimlaneHead=0;swimlaneBody=0;top=0;left=0;bottom=0;right=0;collapsible=0;dropTarget=0;fillColor=none;points=[[0,0.5],[1,0.5]];portConstraint=eastwest;fontSize=20;strokeColor=#000000;strokeWidth=1;" vertex="1" parent="hc69DyIE2OQv7nk9ciK2-35">
          <mxGeometry y="30" width="271" height="60" as="geometry" />
        </mxCell>
        <mxCell id="hc69DyIE2OQv7nk9ciK2-37" value="1" style="shape=partialRectangle;html=1;whiteSpace=wrap;connectable=0;fillColor=none;top=0;left=0;bottom=0;right=0;overflow=hidden;pointerEvents=1;fontSize=20;strokeColor=#000000;strokeWidth=1;" vertex="1" parent="hc69DyIE2OQv7nk9ciK2-36">
          <mxGeometry width="61" height="60" as="geometry">
            <mxRectangle width="61" height="60" as="alternateBounds" />
          </mxGeometry>
        </mxCell>
        <mxCell id="hc69DyIE2OQv7nk9ciK2-38" value="" style="shape=partialRectangle;html=1;whiteSpace=wrap;connectable=0;fillColor=none;top=0;left=0;bottom=0;right=0;align=left;spacingLeft=6;overflow=hidden;fontSize=20;strokeColor=#000000;strokeWidth=1;" vertex="1" parent="hc69DyIE2OQv7nk9ciK2-36">
          <mxGeometry x="61" width="210" height="60" as="geometry">
            <mxRectangle width="210" height="60" as="alternateBounds" />
          </mxGeometry>
        </mxCell>
        <mxCell id="hc69DyIE2OQv7nk9ciK2-39" value="" style="shape=tableRow;horizontal=0;startSize=0;swimlaneHead=0;swimlaneBody=0;top=0;left=0;bottom=0;right=0;collapsible=0;dropTarget=0;fillColor=none;points=[[0,0.5],[1,0.5]];portConstraint=eastwest;fontSize=20;strokeColor=#000000;strokeWidth=1;" vertex="1" parent="hc69DyIE2OQv7nk9ciK2-35">
          <mxGeometry y="90" width="271" height="60" as="geometry" />
        </mxCell>
        <mxCell id="hc69DyIE2OQv7nk9ciK2-40" value="2" style="shape=partialRectangle;html=1;whiteSpace=wrap;connectable=0;fillColor=none;top=0;left=0;bottom=0;right=0;overflow=hidden;fontSize=20;strokeColor=#000000;strokeWidth=1;" vertex="1" parent="hc69DyIE2OQv7nk9ciK2-39">
          <mxGeometry width="61" height="60" as="geometry">
            <mxRectangle width="61" height="60" as="alternateBounds" />
          </mxGeometry>
        </mxCell>
        <mxCell id="hc69DyIE2OQv7nk9ciK2-41" value="" style="shape=partialRectangle;html=1;whiteSpace=wrap;connectable=0;fillColor=none;top=0;left=0;bottom=0;right=0;align=left;spacingLeft=6;overflow=hidden;fontSize=20;strokeColor=#000000;strokeWidth=1;" vertex="1" parent="hc69DyIE2OQv7nk9ciK2-39">
          <mxGeometry x="61" width="210" height="60" as="geometry">
            <mxRectangle width="210" height="60" as="alternateBounds" />
          </mxGeometry>
        </mxCell>
        <mxCell id="hc69DyIE2OQv7nk9ciK2-42" value="" style="shape=tableRow;horizontal=0;startSize=0;swimlaneHead=0;swimlaneBody=0;top=0;left=0;bottom=0;right=0;collapsible=0;dropTarget=0;fillColor=none;points=[[0,0.5],[1,0.5]];portConstraint=eastwest;fontSize=20;strokeColor=#000000;strokeWidth=1;" vertex="1" parent="hc69DyIE2OQv7nk9ciK2-35">
          <mxGeometry y="150" width="271" height="50" as="geometry" />
        </mxCell>
        <mxCell id="hc69DyIE2OQv7nk9ciK2-43" value="3" style="shape=partialRectangle;html=1;whiteSpace=wrap;connectable=0;fillColor=none;top=0;left=0;bottom=0;right=0;overflow=hidden;fontSize=20;strokeColor=#000000;strokeWidth=1;" vertex="1" parent="hc69DyIE2OQv7nk9ciK2-42">
          <mxGeometry width="61" height="50" as="geometry">
            <mxRectangle width="61" height="50" as="alternateBounds" />
          </mxGeometry>
        </mxCell>
        <mxCell id="hc69DyIE2OQv7nk9ciK2-44" value="" style="shape=partialRectangle;html=1;whiteSpace=wrap;connectable=0;fillColor=none;top=0;left=0;bottom=0;right=0;align=left;spacingLeft=6;overflow=hidden;fontSize=20;strokeColor=#000000;strokeWidth=1;" vertex="1" parent="hc69DyIE2OQv7nk9ciK2-42">
          <mxGeometry x="61" width="210" height="50" as="geometry">
            <mxRectangle width="210" height="50" as="alternateBounds" />
          </mxGeometry>
        </mxCell>
        <mxCell id="hc69DyIE2OQv7nk9ciK2-45" value="......" style="shape=partialRectangle;html=1;whiteSpace=wrap;connectable=0;fillColor=none;top=0;left=0;bottom=0;right=0;overflow=hidden;fontSize=20;strokeColor=#000000;strokeWidth=1;" vertex="1" parent="1">
          <mxGeometry x="1733" y="1903" width="55" height="33.5" as="geometry">
            <mxRectangle width="55" height="30" as="alternateBounds" />
          </mxGeometry>
        </mxCell>
        <mxCell id="hc69DyIE2OQv7nk9ciK2-46" value="" style="whiteSpace=wrap;html=1;aspect=fixed;fontSize=20;strokeColor=none;strokeWidth=1;fillColor=#8891CD;" vertex="1" parent="1">
          <mxGeometry x="1734" y="1858" width="47" height="47" as="geometry" />
        </mxCell>
        <mxCell id="hc69DyIE2OQv7nk9ciK2-47" value="Span classifier" style="rounded=0;whiteSpace=wrap;html=1;fontSize=20;strokeColor=#000000;strokeWidth=1;fillColor=none;" vertex="1" parent="1">
          <mxGeometry x="821.5" y="1814.5" width="120" height="60" as="geometry" />
        </mxCell>
        <mxCell id="hc69DyIE2OQv7nk9ciK2-48" value="" style="endArrow=classic;html=1;rounded=0;exitX=0.5;exitY=1;exitDx=0;exitDy=0;exitPerimeter=0;entryX=0.25;entryY=0;entryDx=0;entryDy=0;" edge="1" parent="1" source="hc69DyIE2OQv7nk9ciK2-13" target="hc69DyIE2OQv7nk9ciK2-50">
          <mxGeometry width="50" height="50" relative="1" as="geometry">
            <mxPoint x="1136.27" y="1605.5" as="sourcePoint" />
            <mxPoint x="1135" y="1647.5" as="targetPoint" />
          </mxGeometry>
        </mxCell>
        <mxCell id="hc69DyIE2OQv7nk9ciK2-49" value="" style="endArrow=classic;html=1;rounded=0;exitX=0.5;exitY=1;exitDx=0;exitDy=0;exitPerimeter=0;entryX=0.75;entryY=0;entryDx=0;entryDy=0;" edge="1" parent="1" source="hc69DyIE2OQv7nk9ciK2-14" target="hc69DyIE2OQv7nk9ciK2-50">
          <mxGeometry width="50" height="50" relative="1" as="geometry">
            <mxPoint x="1181.30838" y="1606.205" as="sourcePoint" />
            <mxPoint x="1185" y="1647.5" as="targetPoint" />
          </mxGeometry>
        </mxCell>
        <mxCell id="hc69DyIE2OQv7nk9ciK2-50" value="&lt;font style=&quot;font-size: 20px;&quot;&gt;Max pool&lt;/font&gt;" style="rounded=0;whiteSpace=wrap;html=1;strokeColor=#000000;strokeWidth=3;fillColor=none;" vertex="1" parent="1">
          <mxGeometry x="1110" y="1619.5" width="100" height="30" as="geometry" />
        </mxCell>
        <mxCell id="hc69DyIE2OQv7nk9ciK2-51" value="" style="endArrow=classic;html=1;rounded=0;fontSize=20;exitX=0.5;exitY=1;exitDx=0;exitDy=0;entryX=0.5;entryY=0;entryDx=0;entryDy=0;" edge="1" parent="1" source="hc69DyIE2OQv7nk9ciK2-50" target="hc69DyIE2OQv7nk9ciK2-53">
          <mxGeometry width="50" height="50" relative="1" as="geometry">
            <mxPoint x="1159.19" y="1760.5" as="sourcePoint" />
            <mxPoint x="1160.5" y="1719.5" as="targetPoint" />
          </mxGeometry>
        </mxCell>
        <mxCell id="hc69DyIE2OQv7nk9ciK2-52" style="edgeStyle=none;rounded=0;orthogonalLoop=1;jettySize=auto;html=1;exitX=0.5;exitY=1;exitDx=0;exitDy=0;entryX=0.5;entryY=0;entryDx=0;entryDy=0;fontSize=20;strokeColor=#004C99;strokeWidth=2;" edge="1" parent="1" source="hc69DyIE2OQv7nk9ciK2-53" target="hc69DyIE2OQv7nk9ciK2-72">
          <mxGeometry relative="1" as="geometry">
            <mxPoint x="1160.5" y="1750.5" as="sourcePoint" />
          </mxGeometry>
        </mxCell>
        <mxCell id="hc69DyIE2OQv7nk9ciK2-53" value="" style="whiteSpace=wrap;html=1;aspect=fixed;fontSize=20;strokeColor=none;strokeWidth=1;fillColor=#E7E6D5;fontColor=#ffffff;" vertex="1" parent="1">
          <mxGeometry x="1137" y="1671.5" width="47" height="47" as="geometry" />
        </mxCell>
        <mxCell id="hc69DyIE2OQv7nk9ciK2-54" value="" style="endArrow=classic;html=1;rounded=0;exitX=0.5;exitY=1;exitDx=0;exitDy=0;exitPerimeter=0;entryX=0.5;entryY=0;entryDx=0;entryDy=0;" edge="1" parent="1" source="hc69DyIE2OQv7nk9ciK2-16" target="hc69DyIE2OQv7nk9ciK2-56">
          <mxGeometry width="50" height="50" relative="1" as="geometry">
            <mxPoint x="1326" y="1604.5" as="sourcePoint" />
            <mxPoint x="1325.000000000001" y="1649.5" as="targetPoint" />
          </mxGeometry>
        </mxCell>
        <mxCell id="hc69DyIE2OQv7nk9ciK2-55" value="" style="endArrow=classic;html=1;rounded=0;exitX=0.5;exitY=1;exitDx=0;exitDy=0;exitPerimeter=0;entryX=0.75;entryY=0;entryDx=0;entryDy=0;" edge="1" parent="1" source="hc69DyIE2OQv7nk9ciK2-17" target="hc69DyIE2OQv7nk9ciK2-56">
          <mxGeometry width="50" height="50" relative="1" as="geometry">
            <mxPoint x="1371" y="1604.5" as="sourcePoint" />
            <mxPoint x="1359.5" y="1649.5" as="targetPoint" />
          </mxGeometry>
        </mxCell>
        <mxCell id="hc69DyIE2OQv7nk9ciK2-56" value="&lt;font style=&quot;font-size: 20px;&quot;&gt;Max pool&lt;/font&gt;" style="rounded=0;whiteSpace=wrap;html=1;strokeColor=#000000;strokeWidth=3;fillColor=none;" vertex="1" parent="1">
          <mxGeometry x="1255" y="1622.5" width="138" height="30" as="geometry" />
        </mxCell>
        <mxCell id="hc69DyIE2OQv7nk9ciK2-57" value="" style="endArrow=classic;html=1;rounded=0;fontSize=20;exitX=0.5;exitY=1;exitDx=0;exitDy=0;entryX=0.5;entryY=0;entryDx=0;entryDy=0;" edge="1" parent="1" source="hc69DyIE2OQv7nk9ciK2-56" target="hc69DyIE2OQv7nk9ciK2-59">
          <mxGeometry width="50" height="50" relative="1" as="geometry">
            <mxPoint x="1326" y="1700.5" as="sourcePoint" />
            <mxPoint x="1326.5" y="1719.5" as="targetPoint" />
          </mxGeometry>
        </mxCell>
        <mxCell id="hc69DyIE2OQv7nk9ciK2-58" style="edgeStyle=none;rounded=0;orthogonalLoop=1;jettySize=auto;html=1;exitX=0.5;exitY=1;exitDx=0;exitDy=0;entryX=0.5;entryY=0;entryDx=0;entryDy=0;fontSize=20;strokeColor=#004C99;strokeWidth=2;" edge="1" parent="1" source="hc69DyIE2OQv7nk9ciK2-59" target="hc69DyIE2OQv7nk9ciK2-77">
          <mxGeometry relative="1" as="geometry">
            <mxPoint x="1326.5" y="1750.5" as="sourcePoint" />
          </mxGeometry>
        </mxCell>
        <mxCell id="hc69DyIE2OQv7nk9ciK2-59" value="" style="whiteSpace=wrap;html=1;aspect=fixed;fontSize=20;strokeColor=none;strokeWidth=1;fillColor=#E7E6D5;fontColor=#ffffff;" vertex="1" parent="1">
          <mxGeometry x="1301" y="1672.5" width="47" height="47" as="geometry" />
        </mxCell>
        <mxCell id="hc69DyIE2OQv7nk9ciK2-60" value="" style="endArrow=classic;html=1;rounded=0;exitX=0.5;exitY=1;exitDx=0;exitDy=0;exitPerimeter=0;entryX=0.25;entryY=0;entryDx=0;entryDy=0;" edge="1" parent="1" source="hc69DyIE2OQv7nk9ciK2-15" target="hc69DyIE2OQv7nk9ciK2-56">
          <mxGeometry width="50" height="50" relative="1" as="geometry">
            <mxPoint x="1276.52" y="1605.5" as="sourcePoint" />
            <mxPoint x="1290.5" y="1649.5" as="targetPoint" />
          </mxGeometry>
        </mxCell>
        <mxCell id="hc69DyIE2OQv7nk9ciK2-61" value="&lt;font style=&quot;font-size: 20px;&quot;&gt;Max pool&lt;/font&gt;" style="rounded=0;whiteSpace=wrap;html=1;strokeColor=#000000;strokeWidth=3;fillColor=none;" vertex="1" parent="1">
          <mxGeometry x="976.71" y="1586.5" width="100.29" height="30" as="geometry" />
        </mxCell>
        <mxCell id="hc69DyIE2OQv7nk9ciK2-62" value="" style="endArrow=classic;html=1;rounded=0;exitX=0.5;exitY=1;exitDx=0;exitDy=0;exitPerimeter=0;entryX=0.25;entryY=0;entryDx=0;entryDy=0;" edge="1" parent="1" target="hc69DyIE2OQv7nk9ciK2-61">
          <mxGeometry width="50" height="50" relative="1" as="geometry">
            <mxPoint x="997.3199999999997" y="1509" as="sourcePoint" />
            <mxPoint x="997" y="1905.5" as="targetPoint" />
          </mxGeometry>
        </mxCell>
        <mxCell id="hc69DyIE2OQv7nk9ciK2-63" value="" style="endArrow=classic;html=1;rounded=0;exitX=0.5;exitY=1;exitDx=0;exitDy=0;exitPerimeter=0;entryX=0.75;entryY=0;entryDx=0;entryDy=0;" edge="1" parent="1" target="hc69DyIE2OQv7nk9ciK2-61">
          <mxGeometry width="50" height="50" relative="1" as="geometry">
            <mxPoint x="1056.54" y="1509" as="sourcePoint" />
            <mxPoint x="1057" y="1905.5" as="targetPoint" />
          </mxGeometry>
        </mxCell>
        <mxCell id="hc69DyIE2OQv7nk9ciK2-64" value="" style="endArrow=classic;html=1;rounded=0;fontSize=20;exitX=0.5;exitY=1;exitDx=0;exitDy=0;entryX=0.5;entryY=0;entryDx=0;entryDy=0;" edge="1" parent="1" source="hc69DyIE2OQv7nk9ciK2-61" target="hc69DyIE2OQv7nk9ciK2-65">
          <mxGeometry width="50" height="50" relative="1" as="geometry">
            <mxPoint x="1026.6599999999999" y="1618.5" as="sourcePoint" />
            <mxPoint x="1026.71" y="1720.5" as="targetPoint" />
          </mxGeometry>
        </mxCell>
        <mxCell id="hc69DyIE2OQv7nk9ciK2-65" value="" style="whiteSpace=wrap;html=1;aspect=fixed;fontSize=20;strokeColor=none;strokeWidth=1;fillColor=#BB1A35;" vertex="1" parent="1">
          <mxGeometry x="1003.2099999999999" y="1669.5" width="47" height="47" as="geometry" />
        </mxCell>
        <mxCell id="hc69DyIE2OQv7nk9ciK2-66" value="" style="whiteSpace=wrap;html=1;aspect=fixed;fontSize=20;strokeColor=none;strokeWidth=1;fillColor=#77965E;fontColor=#ffffff;" vertex="1" parent="1">
          <mxGeometry x="810.71" y="1742.5" width="47" height="47" as="geometry" />
        </mxCell>
        <mxCell id="hc69DyIE2OQv7nk9ciK2-67" value="" style="whiteSpace=wrap;html=1;aspect=fixed;fontSize=20;strokeColor=none;strokeWidth=1;fillColor=#E7E6D5;fontColor=#ffffff;" vertex="1" parent="1">
          <mxGeometry x="858.61" y="1742.5" width="47" height="47" as="geometry" />
        </mxCell>
        <mxCell id="hc69DyIE2OQv7nk9ciK2-68" value="" style="whiteSpace=wrap;html=1;aspect=fixed;fontSize=20;strokeColor=none;strokeWidth=1;fillColor=#B9628E;" vertex="1" parent="1">
          <mxGeometry x="905.61" y="1742.5" width="47" height="47" as="geometry" />
        </mxCell>
        <mxCell id="hc69DyIE2OQv7nk9ciK2-69" value="" style="endArrow=classic;html=1;rounded=0;fontSize=20;entryX=0.5;entryY=0;entryDx=0;entryDy=0;exitX=0.5;exitY=1;exitDx=0;exitDy=0;" edge="1" parent="1" source="hc69DyIE2OQv7nk9ciK2-9" target="hc69DyIE2OQv7nk9ciK2-47">
          <mxGeometry width="50" height="50" relative="1" as="geometry">
            <mxPoint x="726" y="1872.5" as="sourcePoint" />
            <mxPoint x="776" y="1822.5" as="targetPoint" />
          </mxGeometry>
        </mxCell>
        <mxCell id="hc69DyIE2OQv7nk9ciK2-70" value="Span classifier" style="rounded=0;whiteSpace=wrap;html=1;fontSize=20;strokeColor=#000000;strokeWidth=1;fillColor=none;" vertex="1" parent="1">
          <mxGeometry x="1096.5" y="1814.5" width="120" height="60" as="geometry" />
        </mxCell>
        <mxCell id="hc69DyIE2OQv7nk9ciK2-71" value="" style="whiteSpace=wrap;html=1;aspect=fixed;fontSize=20;strokeColor=none;strokeWidth=1;fillColor=#77965E;fontColor=#ffffff;" vertex="1" parent="1">
          <mxGeometry x="1085.71" y="1742.5" width="47" height="47" as="geometry" />
        </mxCell>
        <mxCell id="hc69DyIE2OQv7nk9ciK2-72" value="" style="whiteSpace=wrap;html=1;aspect=fixed;fontSize=20;strokeColor=none;strokeWidth=1;fillColor=#E7E6D5;fontColor=#ffffff;" vertex="1" parent="1">
          <mxGeometry x="1133.6100000000001" y="1742.5" width="47" height="47" as="geometry" />
        </mxCell>
        <mxCell id="hc69DyIE2OQv7nk9ciK2-73" value="" style="whiteSpace=wrap;html=1;aspect=fixed;fontSize=20;strokeColor=none;strokeWidth=1;fillColor=#B9628E;" vertex="1" parent="1">
          <mxGeometry x="1180.6100000000001" y="1742.5" width="47" height="47" as="geometry" />
        </mxCell>
        <mxCell id="hc69DyIE2OQv7nk9ciK2-74" value="" style="endArrow=classic;html=1;rounded=0;fontSize=20;entryX=0.5;entryY=0;entryDx=0;entryDy=0;exitX=0.5;exitY=1;exitDx=0;exitDy=0;" edge="1" parent="1" target="hc69DyIE2OQv7nk9ciK2-70">
          <mxGeometry width="50" height="50" relative="1" as="geometry">
            <mxPoint x="1156.500000000001" y="1795.5" as="sourcePoint" />
            <mxPoint x="1051" y="1822.5" as="targetPoint" />
          </mxGeometry>
        </mxCell>
        <mxCell id="hc69DyIE2OQv7nk9ciK2-75" value="Span classifier" style="rounded=0;whiteSpace=wrap;html=1;fontSize=20;strokeColor=#000000;strokeWidth=1;fillColor=none;" vertex="1" parent="1">
          <mxGeometry x="1261.41" y="1814.5" width="120" height="60" as="geometry" />
        </mxCell>
        <mxCell id="hc69DyIE2OQv7nk9ciK2-76" value="" style="whiteSpace=wrap;html=1;aspect=fixed;fontSize=20;strokeColor=none;strokeWidth=1;fillColor=#77965E;fontColor=#ffffff;" vertex="1" parent="1">
          <mxGeometry x="1250.6200000000001" y="1742.5" width="47" height="47" as="geometry" />
        </mxCell>
        <mxCell id="hc69DyIE2OQv7nk9ciK2-77" value="" style="whiteSpace=wrap;html=1;aspect=fixed;fontSize=20;strokeColor=none;strokeWidth=1;fillColor=#E7E6D5;fontColor=#ffffff;" vertex="1" parent="1">
          <mxGeometry x="1298.52" y="1742.5" width="47" height="47" as="geometry" />
        </mxCell>
        <mxCell id="hc69DyIE2OQv7nk9ciK2-78" value="" style="whiteSpace=wrap;html=1;aspect=fixed;fontSize=20;strokeColor=none;strokeWidth=1;fillColor=#B9628E;" vertex="1" parent="1">
          <mxGeometry x="1345.52" y="1742.5" width="47" height="47" as="geometry" />
        </mxCell>
        <mxCell id="hc69DyIE2OQv7nk9ciK2-79" value="" style="endArrow=classic;html=1;rounded=0;fontSize=20;entryX=0.5;entryY=0;entryDx=0;entryDy=0;exitX=0.5;exitY=1;exitDx=0;exitDy=0;" edge="1" parent="1" source="hc69DyIE2OQv7nk9ciK2-7" target="hc69DyIE2OQv7nk9ciK2-75">
          <mxGeometry width="50" height="50" relative="1" as="geometry">
            <mxPoint x="1165.91" y="1872.5" as="sourcePoint" />
            <mxPoint x="1215.91" y="1822.5" as="targetPoint" />
          </mxGeometry>
        </mxCell>
        <mxCell id="hc69DyIE2OQv7nk9ciK2-80" value="" style="endArrow=classic;html=1;rounded=0;fontSize=20;exitX=0.5;exitY=1;exitDx=0;exitDy=0;" edge="1" parent="1" source="hc69DyIE2OQv7nk9ciK2-47">
          <mxGeometry width="50" height="50" relative="1" as="geometry">
            <mxPoint x="856" y="1942.5" as="sourcePoint" />
            <mxPoint x="882" y="1902.5" as="targetPoint" />
          </mxGeometry>
        </mxCell>
        <mxCell id="hc69DyIE2OQv7nk9ciK2-81" value="&lt;b&gt;&lt;font face=&quot;Times New Roman&quot;&gt;Entity&lt;/font&gt;&lt;/b&gt;" style="text;html=1;resizable=0;autosize=1;align=center;verticalAlign=middle;points=[];fillColor=none;strokeColor=none;rounded=0;dashed=1;fontSize=20;" vertex="1" parent="1">
          <mxGeometry x="842.11" y="1891.5" width="80" height="40" as="geometry" />
        </mxCell>
        <mxCell id="hc69DyIE2OQv7nk9ciK2-82" value="&lt;b&gt;&lt;font face=&quot;Times New Roman&quot;&gt;Numeral&lt;/font&gt;&lt;/b&gt;" style="text;html=1;resizable=0;autosize=1;align=center;verticalAlign=middle;points=[];fillColor=none;strokeColor=none;rounded=0;dashed=1;fontSize=20;" vertex="1" parent="1">
          <mxGeometry x="1107.1100000000001" y="1889.5" width="100" height="40" as="geometry" />
        </mxCell>
        <mxCell id="hc69DyIE2OQv7nk9ciK2-83" value="" style="endArrow=classic;html=1;rounded=0;fontSize=20;exitX=0.5;exitY=1;exitDx=0;exitDy=0;" edge="1" parent="1">
          <mxGeometry width="50" height="50" relative="1" as="geometry">
            <mxPoint x="1156.8600000000015" y="1874.5" as="sourcePoint" />
            <mxPoint x="1157.3600000000006" y="1902.5" as="targetPoint" />
          </mxGeometry>
        </mxCell>
        <mxCell id="hc69DyIE2OQv7nk9ciK2-84" value="&lt;b&gt;&lt;font face=&quot;Times New Roman&quot;&gt;Unit&lt;/font&gt;&lt;/b&gt;" style="text;html=1;resizable=0;autosize=1;align=center;verticalAlign=middle;points=[];fillColor=none;strokeColor=none;rounded=0;dashed=1;fontSize=20;" vertex="1" parent="1">
          <mxGeometry x="1290.41" y="1891.5" width="60" height="40" as="geometry" />
        </mxCell>
        <mxCell id="hc69DyIE2OQv7nk9ciK2-85" value="" style="endArrow=classic;html=1;rounded=0;fontSize=20;exitX=0.5;exitY=1;exitDx=0;exitDy=0;" edge="1" parent="1">
          <mxGeometry width="50" height="50" relative="1" as="geometry">
            <mxPoint x="1321.1599999999999" y="1874.5" as="sourcePoint" />
            <mxPoint x="1321.6599999999999" y="1902.5" as="targetPoint" />
          </mxGeometry>
        </mxCell>
        <mxCell id="hc69DyIE2OQv7nk9ciK2-86" style="edgeStyle=none;rounded=0;orthogonalLoop=1;jettySize=auto;html=1;exitX=0.5;exitY=1;exitDx=0;exitDy=0;exitPerimeter=0;entryX=0.5;entryY=0;entryDx=0;entryDy=0;entryPerimeter=0;fontSize=20;" edge="1" parent="1" source="hc69DyIE2OQv7nk9ciK2-87" target="hc69DyIE2OQv7nk9ciK2-11">
          <mxGeometry relative="1" as="geometry" />
        </mxCell>
        <mxCell id="hc69DyIE2OQv7nk9ciK2-87" value="" style="verticalLabelPosition=bottom;verticalAlign=top;html=1;shape=mxgraph.basic.patternFillRect;fillStyle=auto;step=5;fillStrokeWidth=0.2;fillStrokeColor=#dddddd;gradientDirection=north;shadow=0;sketch=0;strokeWidth=3;" vertex="1" parent="1">
          <mxGeometry x="835.25" y="1474.5" width="47.22" height="47" as="geometry" />
        </mxCell>
        <mxCell id="hc69DyIE2OQv7nk9ciK2-88" style="edgeStyle=none;rounded=0;orthogonalLoop=1;jettySize=auto;html=1;exitX=0.5;exitY=1;exitDx=0;exitDy=0;exitPerimeter=0;entryX=0.5;entryY=0;entryDx=0;entryDy=0;entryPerimeter=0;fontSize=20;" edge="1" parent="1" source="hc69DyIE2OQv7nk9ciK2-89" target="hc69DyIE2OQv7nk9ciK2-12">
          <mxGeometry relative="1" as="geometry" />
        </mxCell>
        <mxCell id="hc69DyIE2OQv7nk9ciK2-89" value="" style="verticalLabelPosition=bottom;verticalAlign=top;html=1;shape=mxgraph.basic.patternFillRect;fillStyle=auto;step=5;fillStrokeWidth=0.2;fillStrokeColor=#dddddd;gradientDirection=north;shadow=0;sketch=0;strokeWidth=3;" vertex="1" parent="1">
          <mxGeometry x="903.28" y="1474.5" width="47.22" height="47" as="geometry" />
        </mxCell>
        <mxCell id="hc69DyIE2OQv7nk9ciK2-90" value="&lt;font style=&quot;font-size: 20px;&quot;&gt;体&lt;/font&gt;" style="text;html=1;resizable=0;autosize=1;align=center;verticalAlign=middle;points=[];rounded=0;dashed=1;fontFamily=Times New Roman;fontSize=11;strokeWidth=3;" vertex="1" parent="1">
          <mxGeometry x="836.99" y="1488" width="40" height="20" as="geometry" />
        </mxCell>
        <mxCell id="hc69DyIE2OQv7nk9ciK2-91" value="&lt;font style=&quot;font-size: 20px;&quot;&gt;温&lt;/font&gt;" style="text;html=1;resizable=0;autosize=1;align=center;verticalAlign=middle;points=[];rounded=0;dashed=1;fontFamily=Times New Roman;fontSize=11;strokeWidth=3;" vertex="1" parent="1">
          <mxGeometry x="906.89" y="1488" width="40" height="20" as="geometry" />
        </mxCell>
        <mxCell id="hc69DyIE2OQv7nk9ciK2-92" value="" style="verticalLabelPosition=bottom;verticalAlign=top;html=1;shape=mxgraph.basic.patternFillRect;fillStyle=auto;step=5;fillStrokeWidth=0.2;fillStrokeColor=#dddddd;gradientDirection=north;shadow=0;sketch=0;strokeWidth=3;" vertex="1" parent="1">
          <mxGeometry x="969.71" y="1474" width="47.22" height="47" as="geometry" />
        </mxCell>
        <mxCell id="hc69DyIE2OQv7nk9ciK2-93" value="" style="verticalLabelPosition=bottom;verticalAlign=top;html=1;shape=mxgraph.basic.patternFillRect;fillStyle=auto;step=5;fillStrokeWidth=0.2;fillStrokeColor=#dddddd;gradientDirection=north;shadow=0;sketch=0;strokeWidth=3;" vertex="1" parent="1">
          <mxGeometry x="1034.93" y="1474" width="47.22" height="47" as="geometry" />
        </mxCell>
        <mxCell id="hc69DyIE2OQv7nk9ciK2-94" value="&lt;font style=&quot;font-size: 20px;&quot;&gt;高&lt;/font&gt;" style="text;html=1;resizable=0;autosize=1;align=center;verticalAlign=middle;points=[];rounded=0;dashed=1;fontFamily=Times New Roman;fontSize=11;strokeWidth=3;" vertex="1" parent="1">
          <mxGeometry x="973.2" y="1487.5" width="40" height="20" as="geometry" />
        </mxCell>
        <mxCell id="hc69DyIE2OQv7nk9ciK2-95" value="&lt;font style=&quot;font-size: 20px;&quot;&gt;达&lt;/font&gt;" style="text;html=1;resizable=0;autosize=1;align=center;verticalAlign=middle;points=[];rounded=0;dashed=1;fontFamily=Times New Roman;fontSize=11;strokeWidth=3;" vertex="1" parent="1">
          <mxGeometry x="1038.54" y="1487.5" width="40" height="20" as="geometry" />
        </mxCell>
        <mxCell id="hc69DyIE2OQv7nk9ciK2-96" style="edgeStyle=none;rounded=0;orthogonalLoop=1;jettySize=auto;html=1;exitX=0.5;exitY=1;exitDx=0;exitDy=0;exitPerimeter=0;entryX=0.5;entryY=0;entryDx=0;entryDy=0;entryPerimeter=0;fontSize=20;" edge="1" parent="1" source="hc69DyIE2OQv7nk9ciK2-97" target="hc69DyIE2OQv7nk9ciK2-13">
          <mxGeometry relative="1" as="geometry" />
        </mxCell>
        <mxCell id="hc69DyIE2OQv7nk9ciK2-97" value="" style="verticalLabelPosition=bottom;verticalAlign=top;html=1;shape=mxgraph.basic.patternFillRect;fillStyle=auto;step=5;fillStrokeWidth=0.2;fillStrokeColor=#dddddd;gradientDirection=north;shadow=0;sketch=0;strokeWidth=3;" vertex="1" parent="1">
          <mxGeometry x="1101.66" y="1473.5" width="47.22" height="47" as="geometry" />
        </mxCell>
        <mxCell id="hc69DyIE2OQv7nk9ciK2-98" style="edgeStyle=none;rounded=0;orthogonalLoop=1;jettySize=auto;html=1;exitX=0.5;exitY=1;exitDx=0;exitDy=0;exitPerimeter=0;entryX=0.5;entryY=0;entryDx=0;entryDy=0;entryPerimeter=0;fontSize=20;" edge="1" parent="1" source="hc69DyIE2OQv7nk9ciK2-99" target="hc69DyIE2OQv7nk9ciK2-14">
          <mxGeometry relative="1" as="geometry" />
        </mxCell>
        <mxCell id="hc69DyIE2OQv7nk9ciK2-99" value="" style="verticalLabelPosition=bottom;verticalAlign=top;html=1;shape=mxgraph.basic.patternFillRect;fillStyle=auto;step=5;fillStrokeWidth=0.2;fillStrokeColor=#dddddd;gradientDirection=north;shadow=0;sketch=0;strokeWidth=3;" vertex="1" parent="1">
          <mxGeometry x="1167.69" y="1473.5" width="47.22" height="47" as="geometry" />
        </mxCell>
        <mxCell id="hc69DyIE2OQv7nk9ciK2-100" value="&lt;font style=&quot;font-size: 20px;&quot;&gt;3&lt;/font&gt;" style="text;html=1;resizable=0;autosize=1;align=center;verticalAlign=middle;points=[];rounded=0;dashed=1;fontFamily=Times New Roman;fontSize=11;strokeWidth=3;" vertex="1" parent="1">
          <mxGeometry x="1110.27" y="1487" width="30" height="20" as="geometry" />
        </mxCell>
        <mxCell id="hc69DyIE2OQv7nk9ciK2-101" value="&lt;font style=&quot;font-size: 20px;&quot;&gt;9&lt;/font&gt;" style="text;html=1;resizable=0;autosize=1;align=center;verticalAlign=middle;points=[];rounded=0;dashed=1;fontFamily=Times New Roman;fontSize=11;strokeWidth=3;" vertex="1" parent="1">
          <mxGeometry x="1176.3000000000002" y="1487" width="30" height="20" as="geometry" />
        </mxCell>
        <mxCell id="hc69DyIE2OQv7nk9ciK2-102" style="edgeStyle=none;rounded=0;orthogonalLoop=1;jettySize=auto;html=1;exitX=0.5;exitY=1;exitDx=0;exitDy=0;exitPerimeter=0;entryX=0.5;entryY=0;entryDx=0;entryDy=0;entryPerimeter=0;fontSize=20;" edge="1" parent="1" source="hc69DyIE2OQv7nk9ciK2-103" target="hc69DyIE2OQv7nk9ciK2-15">
          <mxGeometry relative="1" as="geometry" />
        </mxCell>
        <mxCell id="hc69DyIE2OQv7nk9ciK2-103" value="" style="verticalLabelPosition=bottom;verticalAlign=top;html=1;shape=mxgraph.basic.patternFillRect;fillStyle=auto;step=5;fillStrokeWidth=0.2;fillStrokeColor=#dddddd;gradientDirection=north;shadow=0;sketch=0;strokeWidth=3;" vertex="1" parent="1">
          <mxGeometry x="1234.91" y="1473.5" width="47.22" height="47" as="geometry" />
        </mxCell>
        <mxCell id="hc69DyIE2OQv7nk9ciK2-104" style="edgeStyle=none;rounded=0;orthogonalLoop=1;jettySize=auto;html=1;exitX=0.5;exitY=1;exitDx=0;exitDy=0;exitPerimeter=0;entryX=0.5;entryY=0;entryDx=0;entryDy=0;entryPerimeter=0;fontSize=20;" edge="1" parent="1" source="hc69DyIE2OQv7nk9ciK2-105" target="hc69DyIE2OQv7nk9ciK2-16">
          <mxGeometry relative="1" as="geometry" />
        </mxCell>
        <mxCell id="hc69DyIE2OQv7nk9ciK2-105" value="" style="verticalLabelPosition=bottom;verticalAlign=top;html=1;shape=mxgraph.basic.patternFillRect;fillStyle=auto;step=5;fillStrokeWidth=0.2;fillStrokeColor=#dddddd;gradientDirection=north;shadow=0;sketch=0;strokeWidth=3;" vertex="1" parent="1">
          <mxGeometry x="1301.13" y="1473.5" width="47.22" height="47" as="geometry" />
        </mxCell>
        <mxCell id="hc69DyIE2OQv7nk9ciK2-106" style="edgeStyle=none;rounded=0;orthogonalLoop=1;jettySize=auto;html=1;exitX=0.5;exitY=1;exitDx=0;exitDy=0;exitPerimeter=0;entryX=0.5;entryY=0;entryDx=0;entryDy=0;entryPerimeter=0;fontSize=20;" edge="1" parent="1" source="hc69DyIE2OQv7nk9ciK2-107" target="hc69DyIE2OQv7nk9ciK2-17">
          <mxGeometry relative="1" as="geometry" />
        </mxCell>
        <mxCell id="hc69DyIE2OQv7nk9ciK2-107" value="" style="verticalLabelPosition=bottom;verticalAlign=top;html=1;shape=mxgraph.basic.patternFillRect;fillStyle=auto;step=5;fillStrokeWidth=0.2;fillStrokeColor=#dddddd;gradientDirection=north;shadow=0;sketch=0;strokeWidth=3;" vertex="1" parent="1">
          <mxGeometry x="1368.3500000000001" y="1473.5" width="47.22" height="47" as="geometry" />
        </mxCell>
        <mxCell id="hc69DyIE2OQv7nk9ciK2-108" value="&lt;font style=&quot;font-size: 20px;&quot;&gt;摄&lt;/font&gt;" style="text;html=1;resizable=0;autosize=1;align=center;verticalAlign=middle;points=[];rounded=0;dashed=1;fontFamily=Times New Roman;fontSize=11;strokeWidth=3;" vertex="1" parent="1">
          <mxGeometry x="1238.52" y="1487" width="40" height="20" as="geometry" />
        </mxCell>
        <mxCell id="hc69DyIE2OQv7nk9ciK2-109" value="&lt;font style=&quot;font-size: 20px;&quot;&gt;氏&lt;/font&gt;" style="text;html=1;resizable=0;autosize=1;align=center;verticalAlign=middle;points=[];rounded=0;dashed=1;fontFamily=Times New Roman;fontSize=11;strokeWidth=3;" vertex="1" parent="1">
          <mxGeometry x="1304.74" y="1487" width="40" height="20" as="geometry" />
        </mxCell>
        <mxCell id="hc69DyIE2OQv7nk9ciK2-110" value="&lt;font style=&quot;font-size: 20px;&quot;&gt;度&lt;/font&gt;" style="text;html=1;resizable=0;autosize=1;align=center;verticalAlign=middle;points=[];rounded=0;dashed=1;fontFamily=Times New Roman;fontSize=11;strokeWidth=3;" vertex="1" parent="1">
          <mxGeometry x="1371.96" y="1487" width="40" height="20" as="geometry" />
        </mxCell>
        <mxCell id="hc69DyIE2OQv7nk9ciK2-111" value="&lt;span style=&quot;font-size: 30px;&quot;&gt;Candidate spans&lt;/span&gt;" style="text;html=1;resizable=0;autosize=1;align=center;verticalAlign=middle;points=[];rounded=0;shadow=0;sketch=0;fillStyle=auto;fontFamily=Times New Roman;fontSize=27;" vertex="1" parent="1">
          <mxGeometry x="1550" y="1547.5" width="220" height="50" as="geometry" />
        </mxCell>
        <mxCell id="hc69DyIE2OQv7nk9ciK2-112" style="edgeStyle=none;rounded=0;orthogonalLoop=1;jettySize=auto;html=1;exitX=0.5;exitY=1;exitDx=0;exitDy=0;entryX=0.5;entryY=0;entryDx=0;entryDy=0;fontSize=20;strokeColor=#000000;" edge="1" parent="1" source="hc69DyIE2OQv7nk9ciK2-113" target="hc69DyIE2OQv7nk9ciK2-126">
          <mxGeometry relative="1" as="geometry" />
        </mxCell>
        <mxCell id="hc69DyIE2OQv7nk9ciK2-113" value="" style="whiteSpace=wrap;html=1;aspect=fixed;fontSize=20;strokeColor=none;strokeWidth=1;fillColor=#E7E6D5;fontColor=#ffffff;" vertex="1" parent="1">
          <mxGeometry x="826.5" y="1942.5" width="47" height="47" as="geometry" />
        </mxCell>
        <mxCell id="hc69DyIE2OQv7nk9ciK2-114" style="edgeStyle=none;rounded=0;orthogonalLoop=1;jettySize=auto;html=1;exitX=0.5;exitY=1;exitDx=0;exitDy=0;entryX=0.5;entryY=0;entryDx=0;entryDy=0;fontSize=20;strokeColor=#000000;" edge="1" parent="1" source="hc69DyIE2OQv7nk9ciK2-115" target="hc69DyIE2OQv7nk9ciK2-127">
          <mxGeometry relative="1" as="geometry" />
        </mxCell>
        <mxCell id="hc69DyIE2OQv7nk9ciK2-115" value="" style="whiteSpace=wrap;html=1;aspect=fixed;fontSize=20;strokeColor=none;strokeWidth=1;fillColor=#B9628E;" vertex="1" parent="1">
          <mxGeometry x="873.5" y="1942.5" width="47" height="47" as="geometry" />
        </mxCell>
        <mxCell id="hc69DyIE2OQv7nk9ciK2-116" style="edgeStyle=none;rounded=0;orthogonalLoop=1;jettySize=auto;html=1;exitX=0.5;exitY=1;exitDx=0;exitDy=0;entryX=0.5;entryY=0;entryDx=0;entryDy=0;fontSize=20;strokeColor=#000000;" edge="1" parent="1" source="hc69DyIE2OQv7nk9ciK2-118" target="hc69DyIE2OQv7nk9ciK2-131">
          <mxGeometry relative="1" as="geometry" />
        </mxCell>
        <mxCell id="hc69DyIE2OQv7nk9ciK2-117" style="edgeStyle=none;rounded=0;orthogonalLoop=1;jettySize=auto;html=1;exitX=0.5;exitY=1;exitDx=0;exitDy=0;entryX=0.5;entryY=0;entryDx=0;entryDy=0;fontSize=20;strokeColor=#000000;" edge="1" parent="1" source="hc69DyIE2OQv7nk9ciK2-118" target="hc69DyIE2OQv7nk9ciK2-128">
          <mxGeometry relative="1" as="geometry" />
        </mxCell>
        <mxCell id="hc69DyIE2OQv7nk9ciK2-118" value="" style="whiteSpace=wrap;html=1;aspect=fixed;fontSize=20;strokeColor=none;strokeWidth=1;fillColor=#E7E6D5;fontColor=#ffffff;" vertex="1" parent="1">
          <mxGeometry x="1104.1100000000001" y="1942.5" width="47" height="47" as="geometry" />
        </mxCell>
        <mxCell id="hc69DyIE2OQv7nk9ciK2-119" style="edgeStyle=none;rounded=0;orthogonalLoop=1;jettySize=auto;html=1;exitX=0.5;exitY=1;exitDx=0;exitDy=0;entryX=0.5;entryY=0;entryDx=0;entryDy=0;fontSize=20;strokeColor=#000000;" edge="1" parent="1" source="hc69DyIE2OQv7nk9ciK2-121" target="hc69DyIE2OQv7nk9ciK2-132">
          <mxGeometry relative="1" as="geometry" />
        </mxCell>
        <mxCell id="hc69DyIE2OQv7nk9ciK2-120" style="edgeStyle=none;rounded=0;orthogonalLoop=1;jettySize=auto;html=1;exitX=0.5;exitY=1;exitDx=0;exitDy=0;entryX=0.5;entryY=0;entryDx=0;entryDy=0;fontSize=20;strokeColor=#000000;" edge="1" parent="1" source="hc69DyIE2OQv7nk9ciK2-121" target="hc69DyIE2OQv7nk9ciK2-129">
          <mxGeometry relative="1" as="geometry" />
        </mxCell>
        <mxCell id="hc69DyIE2OQv7nk9ciK2-121" value="" style="whiteSpace=wrap;html=1;aspect=fixed;fontSize=20;strokeColor=none;strokeWidth=1;fillColor=#B9628E;" vertex="1" parent="1">
          <mxGeometry x="1151.1100000000001" y="1942.5" width="47" height="47" as="geometry" />
        </mxCell>
        <mxCell id="hc69DyIE2OQv7nk9ciK2-122" value="" style="whiteSpace=wrap;html=1;aspect=fixed;fontSize=20;strokeColor=none;strokeWidth=1;fillColor=#E7E6D5;fontColor=#ffffff;" vertex="1" parent="1">
          <mxGeometry x="1271" y="1942.5" width="47" height="47" as="geometry" />
        </mxCell>
        <mxCell id="hc69DyIE2OQv7nk9ciK2-123" style="edgeStyle=none;rounded=0;orthogonalLoop=1;jettySize=auto;html=1;exitX=0.5;exitY=1;exitDx=0;exitDy=0;entryX=0.5;entryY=0;entryDx=0;entryDy=0;fontSize=20;strokeColor=#000000;" edge="1" parent="1" source="hc69DyIE2OQv7nk9ciK2-124" target="hc69DyIE2OQv7nk9ciK2-134">
          <mxGeometry relative="1" as="geometry" />
        </mxCell>
        <mxCell id="hc69DyIE2OQv7nk9ciK2-124" value="" style="whiteSpace=wrap;html=1;aspect=fixed;fontSize=20;strokeColor=none;strokeWidth=1;fillColor=#B9628E;" vertex="1" parent="1">
          <mxGeometry x="1318" y="1942.5" width="47" height="47" as="geometry" />
        </mxCell>
        <mxCell id="hc69DyIE2OQv7nk9ciK2-125" value="" style="endArrow=classic;html=1;rounded=0;fontSize=20;entryX=0.5;entryY=0;entryDx=0;entryDy=0;exitX=0.5;exitY=1;exitDx=0;exitDy=0;" edge="1" parent="1" source="hc69DyIE2OQv7nk9ciK2-122" target="hc69DyIE2OQv7nk9ciK2-133">
          <mxGeometry width="50" height="50" relative="1" as="geometry">
            <mxPoint x="1293.8899999999999" y="1995.5" as="sourcePoint" />
            <mxPoint x="1293.8899999999999" y="2014.5" as="targetPoint" />
          </mxGeometry>
        </mxCell>
        <mxCell id="hc69DyIE2OQv7nk9ciK2-126" value="" style="whiteSpace=wrap;html=1;aspect=fixed;fontSize=20;strokeColor=none;strokeWidth=1;fillColor=#E7E6D5;fontColor=#ffffff;" vertex="1" parent="1">
          <mxGeometry x="826.5" y="2023.5" width="47" height="47" as="geometry" />
        </mxCell>
        <mxCell id="hc69DyIE2OQv7nk9ciK2-127" value="" style="whiteSpace=wrap;html=1;aspect=fixed;fontSize=20;strokeColor=none;strokeWidth=1;fillColor=#B9628E;" vertex="1" parent="1">
          <mxGeometry x="873.5" y="2023.5" width="47" height="47" as="geometry" />
        </mxCell>
        <mxCell id="hc69DyIE2OQv7nk9ciK2-128" value="" style="whiteSpace=wrap;html=1;aspect=fixed;fontSize=20;strokeColor=none;strokeWidth=1;fillColor=#E7E6D5;fontColor=#ffffff;" vertex="1" parent="1">
          <mxGeometry x="967.86" y="2023.5" width="47" height="47" as="geometry" />
        </mxCell>
        <mxCell id="hc69DyIE2OQv7nk9ciK2-129" value="" style="whiteSpace=wrap;html=1;aspect=fixed;fontSize=20;strokeColor=none;strokeWidth=1;fillColor=#B9628E;" vertex="1" parent="1">
          <mxGeometry x="1014.8600000000001" y="2023.5" width="47" height="47" as="geometry" />
        </mxCell>
        <mxCell id="hc69DyIE2OQv7nk9ciK2-130" value="" style="whiteSpace=wrap;html=1;aspect=fixed;fontSize=20;strokeColor=none;strokeWidth=1;fillColor=#BB1A35;" vertex="1" parent="1">
          <mxGeometry x="920.8599999999999" y="2023.5" width="47" height="47" as="geometry" />
        </mxCell>
        <mxCell id="hc69DyIE2OQv7nk9ciK2-131" value="" style="whiteSpace=wrap;html=1;aspect=fixed;fontSize=20;strokeColor=none;strokeWidth=1;fillColor=#E7E6D5;fontColor=#ffffff;" vertex="1" parent="1">
          <mxGeometry x="1130.84" y="2023.5" width="47" height="47" as="geometry" />
        </mxCell>
        <mxCell id="hc69DyIE2OQv7nk9ciK2-132" value="" style="whiteSpace=wrap;html=1;aspect=fixed;fontSize=20;strokeColor=none;strokeWidth=1;fillColor=#B9628E;" vertex="1" parent="1">
          <mxGeometry x="1177.84" y="2023.5" width="47" height="47" as="geometry" />
        </mxCell>
        <mxCell id="hc69DyIE2OQv7nk9ciK2-133" value="" style="whiteSpace=wrap;html=1;aspect=fixed;fontSize=20;strokeColor=none;strokeWidth=1;fillColor=#E7E6D5;fontColor=#ffffff;" vertex="1" parent="1">
          <mxGeometry x="1272.2" y="2023.5" width="47" height="47" as="geometry" />
        </mxCell>
        <mxCell id="hc69DyIE2OQv7nk9ciK2-134" value="" style="whiteSpace=wrap;html=1;aspect=fixed;fontSize=20;strokeColor=none;strokeWidth=1;fillColor=#B9628E;" vertex="1" parent="1">
          <mxGeometry x="1319.2" y="2023.5" width="47" height="47" as="geometry" />
        </mxCell>
        <mxCell id="hc69DyIE2OQv7nk9ciK2-135" value="" style="whiteSpace=wrap;html=1;aspect=fixed;fontSize=20;strokeColor=none;strokeWidth=1;fillColor=#BB1A35;" vertex="1" parent="1">
          <mxGeometry x="1225.1999999999998" y="2023.5" width="47" height="47" as="geometry" />
        </mxCell>
        <mxCell id="hc69DyIE2OQv7nk9ciK2-136" value="Association classifier" style="rounded=0;whiteSpace=wrap;html=1;fontSize=20;strokeColor=#000000;strokeWidth=1;fillColor=none;" vertex="1" parent="1">
          <mxGeometry x="884.2" y="2096.5" width="120" height="60" as="geometry" />
        </mxCell>
        <mxCell id="hc69DyIE2OQv7nk9ciK2-137" value="Association classifier" style="rounded=0;whiteSpace=wrap;html=1;fontSize=20;strokeColor=#000000;strokeWidth=1;fillColor=none;" vertex="1" parent="1">
          <mxGeometry x="1189.2000000000003" y="2096.5" width="120" height="60" as="geometry" />
        </mxCell>
        <mxCell id="hc69DyIE2OQv7nk9ciK2-138" style="edgeStyle=none;rounded=0;orthogonalLoop=1;jettySize=auto;html=1;exitX=0.5;exitY=1;exitDx=0;exitDy=0;entryX=0.5;entryY=0;entryDx=0;entryDy=0;fontSize=20;strokeColor=#000000;" edge="1" parent="1" source="hc69DyIE2OQv7nk9ciK2-3" target="hc69DyIE2OQv7nk9ciK2-136">
          <mxGeometry relative="1" as="geometry" />
        </mxCell>
        <mxCell id="hc69DyIE2OQv7nk9ciK2-139" style="edgeStyle=none;rounded=0;orthogonalLoop=1;jettySize=auto;html=1;exitX=0.5;exitY=1;exitDx=0;exitDy=0;entryX=0.5;entryY=0;entryDx=0;entryDy=0;fontSize=20;strokeColor=#000000;" edge="1" parent="1" target="hc69DyIE2OQv7nk9ciK2-137">
          <mxGeometry relative="1" as="geometry">
            <mxPoint x="1248.6999999999994" y="2077.0000000000005" as="sourcePoint" />
          </mxGeometry>
        </mxCell>
        <mxCell id="hc69DyIE2OQv7nk9ciK2-140" value="&lt;b&gt;Entity-Quantity&lt;/b&gt;" style="text;html=1;resizable=0;autosize=1;align=center;verticalAlign=middle;points=[];fillColor=none;strokeColor=none;rounded=0;dashed=1;fontSize=20;" vertex="1" parent="1">
          <mxGeometry x="860.36" y="2165.5" width="170" height="40" as="geometry" />
        </mxCell>
        <mxCell id="hc69DyIE2OQv7nk9ciK2-141" value="&lt;b&gt;Numeral-Unit&lt;/b&gt;" style="text;html=1;resizable=0;autosize=1;align=center;verticalAlign=middle;points=[];fillColor=none;strokeColor=none;rounded=0;dashed=1;fontSize=20;" vertex="1" parent="1">
          <mxGeometry x="1173.8400000000001" y="2164.5" width="150" height="40" as="geometry" />
        </mxCell>
        <mxCell id="hc69DyIE2OQv7nk9ciK2-142" style="edgeStyle=none;rounded=0;orthogonalLoop=1;jettySize=auto;html=1;exitX=0.5;exitY=1;exitDx=0;exitDy=0;entryX=0.5;entryY=0;entryDx=0;entryDy=0;fontSize=20;strokeColor=#000000;" edge="1" parent="1">
          <mxGeometry relative="1" as="geometry">
            <mxPoint x="945.25" y="2160" as="sourcePoint" />
            <mxPoint x="945.1999999999998" y="2176.5" as="targetPoint" />
          </mxGeometry>
        </mxCell>
        <mxCell id="hc69DyIE2OQv7nk9ciK2-143" style="edgeStyle=none;rounded=0;orthogonalLoop=1;jettySize=auto;html=1;exitX=0.5;exitY=1;exitDx=0;exitDy=0;entryX=0.5;entryY=0;entryDx=0;entryDy=0;fontSize=20;strokeColor=#000000;" edge="1" parent="1">
          <mxGeometry relative="1" as="geometry">
            <mxPoint x="1251.250000000001" y="2160" as="sourcePoint" />
            <mxPoint x="1251.1999999999998" y="2176.5" as="targetPoint" />
          </mxGeometry>
        </mxCell>
        <mxCell id="hc69DyIE2OQv7nk9ciK2-144" value="" style="whiteSpace=wrap;html=1;aspect=fixed;fontSize=20;strokeColor=none;strokeWidth=1;fillColor=#77965E;fontColor=#ffffff;" vertex="1" parent="1">
          <mxGeometry x="325" y="1470.5" width="47" height="47" as="geometry" />
        </mxCell>
        <mxCell id="hc69DyIE2OQv7nk9ciK2-145" value="&lt;span style=&quot;font-size: 30px;&quot;&gt;The sentence representation&lt;/span&gt;" style="text;html=1;resizable=0;autosize=1;align=center;verticalAlign=middle;points=[];fillColor=none;strokeColor=none;rounded=0;shadow=0;sketch=0;fillStyle=auto;fontFamily=Times New Roman;fontSize=27;" vertex="1" parent="1">
          <mxGeometry x="368" y="1469" width="360" height="50" as="geometry" />
        </mxCell>
        <mxCell id="hc69DyIE2OQv7nk9ciK2-146" value="" style="whiteSpace=wrap;html=1;aspect=fixed;fontSize=20;strokeColor=none;strokeWidth=1;fillColor=#e7e6d5;fontColor=#ffffff;" vertex="1" parent="1">
          <mxGeometry x="325" y="1531" width="47" height="47" as="geometry" />
        </mxCell>
        <mxCell id="hc69DyIE2OQv7nk9ciK2-147" value="&lt;span style=&quot;font-size: 30px;&quot;&gt;The span representation&lt;/span&gt;" style="text;html=1;resizable=0;autosize=1;align=center;verticalAlign=middle;points=[];fillColor=none;strokeColor=none;rounded=0;shadow=0;sketch=0;fillStyle=auto;fontFamily=Times New Roman;fontSize=27;" vertex="1" parent="1">
          <mxGeometry x="369" y="1528" width="310" height="50" as="geometry" />
        </mxCell>
        <mxCell id="hc69DyIE2OQv7nk9ciK2-148" value="" style="whiteSpace=wrap;html=1;aspect=fixed;fontSize=20;strokeColor=none;strokeWidth=1;fillColor=#8891cd;" vertex="1" parent="1">
          <mxGeometry x="327" y="1592" width="47" height="47" as="geometry" />
        </mxCell>
        <mxCell id="hc69DyIE2OQv7nk9ciK2-149" value="&lt;span style=&quot;font-size: 30px;&quot;&gt;Span width embedding&lt;/span&gt;" style="text;html=1;resizable=0;autosize=1;align=center;verticalAlign=middle;points=[];fillColor=none;strokeColor=none;rounded=0;shadow=0;sketch=0;fillStyle=auto;fontFamily=Times New Roman;fontSize=27;" vertex="1" parent="1">
          <mxGeometry x="373" y="1588.5" width="300" height="50" as="geometry" />
        </mxCell>
        <mxCell id="hc69DyIE2OQv7nk9ciK2-150" value="" style="whiteSpace=wrap;html=1;aspect=fixed;fontSize=20;strokeColor=none;strokeWidth=1;fillColor=#bb1a35;" vertex="1" parent="1">
          <mxGeometry x="327" y="1655" width="47" height="47" as="geometry" />
        </mxCell>
        <mxCell id="hc69DyIE2OQv7nk9ciK2-151" value="&lt;span style=&quot;font-size: 30px;&quot;&gt;Context representation&lt;/span&gt;" style="text;html=1;resizable=0;autosize=1;align=center;verticalAlign=middle;points=[];fillColor=none;strokeColor=none;rounded=0;shadow=0;sketch=0;fillStyle=auto;fontFamily=Times New Roman;fontSize=27;" vertex="1" parent="1">
          <mxGeometry x="370" y="1652" width="300" height="50" as="geometry" />
        </mxCell>
        <mxCell id="hc69DyIE2OQv7nk9ciK2-152" value="&lt;span style=&quot;font-size: 30px;&quot;&gt;Measurable quantitative information&lt;br&gt;recognition&lt;br&gt;&lt;/span&gt;" style="text;html=1;resizable=0;autosize=1;align=center;verticalAlign=middle;points=[];fillColor=none;strokeColor=none;rounded=0;shadow=0;sketch=0;fillStyle=auto;fontFamily=Times New Roman;fontSize=27;" vertex="1" parent="1">
          <mxGeometry x="334.00000000000006" y="1789.5" width="460" height="90" as="geometry" />
        </mxCell>
        <mxCell id="hc69DyIE2OQv7nk9ciK2-153" value="&lt;span style=&quot;font-size: 30px;&quot;&gt;Measurable quantitative information&lt;br&gt;association&lt;br&gt;&lt;/span&gt;" style="text;html=1;resizable=0;autosize=1;align=center;verticalAlign=middle;points=[];fillColor=none;strokeColor=none;rounded=0;shadow=0;sketch=0;fillStyle=auto;fontFamily=Times New Roman;fontSize=27;" vertex="1" parent="1">
          <mxGeometry x="334.00000000000006" y="2006.5" width="460" height="90" as="geometry" />
        </mxCell>
        <mxCell id="hc69DyIE2OQv7nk9ciK2-154" value="" style="shape=flexArrow;endArrow=classic;html=1;rounded=0;fontSize=20;strokeColor=#000000;" edge="1" parent="1">
          <mxGeometry width="50" height="50" relative="1" as="geometry">
            <mxPoint x="1383.39" y="2110.79" as="sourcePoint" />
            <mxPoint x="1437.39" y="2110.79" as="targetPoint" />
          </mxGeometry>
        </mxCell>
        <mxCell id="hc69DyIE2OQv7nk9ciK2-155" value="&lt;font style=&quot;font-size: 21px;&quot;&gt;&lt;font face=&quot;Times New Roman&quot;&gt;&lt;br&gt;&lt;span style=&quot;background-color: initial;&quot;&gt;&lt;span style=&quot;&quot;&gt;&lt;span style=&quot;white-space: pre;&quot;&gt;&amp;nbsp;&amp;nbsp;&amp;nbsp;&amp;nbsp;&lt;/span&gt;&lt;/span&gt;&quot;Entity&quot;: 体温, &lt;br&gt;&lt;span style=&quot;&quot;&gt;&lt;span style=&quot;white-space: pre;&quot;&gt;&amp;nbsp;&amp;nbsp;&amp;nbsp;&amp;nbsp;&lt;/span&gt;&lt;/span&gt;&quot;Quantity&quot;: {&lt;/span&gt;&quot;Numeral&quot;: 39, &quot;Unit&quot;: 摄氏度},&lt;br&gt;&lt;span style=&quot;&quot;&gt;&lt;span style=&quot;white-space: pre;&quot;&gt;&amp;nbsp;&amp;nbsp;&amp;nbsp;&amp;nbsp;&lt;/span&gt;&lt;/span&gt;&quot;Comparison relations&quot;: &quot;Equal&quot;&lt;br&gt;&lt;/font&gt;&lt;br&gt;&lt;/font&gt;" style="text;html=1;resizable=0;autosize=1;align=left;verticalAlign=middle;points=[];fillColor=none;strokeColor=none;rounded=0;dashed=1;fontSize=20;" vertex="1" parent="1">
          <mxGeometry x="1430" y="2041.5" width="430" height="140" as="geometry" />
        </mxCell>
        <mxCell id="hc69DyIE2OQv7nk9ciK2-156" value="" style="verticalLabelPosition=bottom;verticalAlign=top;html=1;shape=mxgraph.basic.patternFillRect;fillStyle=auto;step=5;fillStrokeWidth=0.2;fillStrokeColor=#dddddd;gradientDirection=north;shadow=0;sketch=0;strokeWidth=3;" vertex="1" parent="1">
          <mxGeometry x="1437.0000000000002" y="1471" width="47.22" height="47" as="geometry" />
        </mxCell>
        <mxCell id="hc69DyIE2OQv7nk9ciK2-157" value="&lt;span style=&quot;font-size: 20px;&quot;&gt;&amp;nbsp; &amp;nbsp;。&lt;/span&gt;" style="text;html=1;resizable=0;autosize=1;align=center;verticalAlign=middle;points=[];rounded=0;dashed=1;fontFamily=Times New Roman;fontSize=11;strokeWidth=3;" vertex="1" parent="1">
          <mxGeometry x="1430.6100000000001" y="1474.5" width="60" height="40" as="geometry" />
        </mxCell>
        <mxCell id="hc69DyIE2OQv7nk9ciK2-158" style="edgeStyle=none;rounded=0;orthogonalLoop=1;jettySize=auto;html=1;exitX=0.5;exitY=1;exitDx=0;exitDy=0;exitPerimeter=0;entryX=0.5;entryY=0;entryDx=0;entryDy=0;fontSize=20;strokeColor=#000000;" edge="1" parent="1" source="hc69DyIE2OQv7nk9ciK2-159" target="hc69DyIE2OQv7nk9ciK2-162">
          <mxGeometry relative="1" as="geometry">
            <mxPoint x="1461.0000000000005" y="1605.5" as="sourcePoint" />
            <mxPoint x="1460.6099999999997" y="1649.5" as="targetPoint" />
          </mxGeometry>
        </mxCell>
        <mxCell id="hc69DyIE2OQv7nk9ciK2-159" value="" style="verticalLabelPosition=bottom;verticalAlign=top;html=1;shape=mxgraph.basic.patternFillRect;fillStyle=auto;step=5;fillStrokeWidth=0.2;fillStrokeColor=#dddddd;gradientDirection=north;shadow=0;sketch=0;strokeWidth=3;" vertex="1" parent="1">
          <mxGeometry x="1437.3900000000003" y="1550.5" width="47.22" height="47" as="geometry" />
        </mxCell>
        <mxCell id="hc69DyIE2OQv7nk9ciK2-160" value="&lt;span style=&quot;font-size: 20px;&quot;&gt;&amp;nbsp; &amp;nbsp;。&lt;/span&gt;" style="text;html=1;resizable=0;autosize=1;align=center;verticalAlign=middle;points=[];rounded=0;dashed=1;fontFamily=Times New Roman;fontSize=11;strokeWidth=3;" vertex="1" parent="1">
          <mxGeometry x="1431.0000000000002" y="1554" width="60" height="40" as="geometry" />
        </mxCell>
        <mxCell id="hc69DyIE2OQv7nk9ciK2-161" style="edgeStyle=none;rounded=0;orthogonalLoop=1;jettySize=auto;html=1;exitX=0.5;exitY=1;exitDx=0;exitDy=0;entryX=0.5;entryY=0;entryDx=0;entryDy=0;fontSize=20;strokeColor=#000000;" edge="1" parent="1" source="hc69DyIE2OQv7nk9ciK2-162" target="hc69DyIE2OQv7nk9ciK2-164">
          <mxGeometry relative="1" as="geometry">
            <mxPoint x="1461.1099999999997" y="1719.5" as="targetPoint" />
          </mxGeometry>
        </mxCell>
        <mxCell id="hc69DyIE2OQv7nk9ciK2-162" value="&lt;font style=&quot;font-size: 20px;&quot;&gt;Max pool&lt;/font&gt;" style="rounded=0;whiteSpace=wrap;html=1;strokeColor=#000000;strokeWidth=3;fillColor=none;" vertex="1" parent="1">
          <mxGeometry x="1411.61" y="1623.5" width="100" height="29.5" as="geometry" />
        </mxCell>
        <mxCell id="hc69DyIE2OQv7nk9ciK2-163" style="edgeStyle=none;rounded=0;orthogonalLoop=1;jettySize=auto;html=1;exitX=0.5;exitY=1;exitDx=0;exitDy=0;entryX=0.5;entryY=0;entryDx=0;entryDy=0;fontSize=20;strokeColor=#004C99;strokeWidth=2;" edge="1" parent="1" source="hc69DyIE2OQv7nk9ciK2-164" target="hc69DyIE2OQv7nk9ciK2-167">
          <mxGeometry relative="1" as="geometry">
            <mxPoint x="1461.1099999999992" y="1750.5" as="sourcePoint" />
          </mxGeometry>
        </mxCell>
        <mxCell id="hc69DyIE2OQv7nk9ciK2-164" value="" style="whiteSpace=wrap;html=1;aspect=fixed;fontSize=20;strokeColor=none;strokeWidth=1;fillColor=#E7E6D5;fontColor=#ffffff;" vertex="1" parent="1">
          <mxGeometry x="1438.61" y="1670.5" width="47" height="47" as="geometry" />
        </mxCell>
        <mxCell id="hc69DyIE2OQv7nk9ciK2-165" value="" style="rounded=0;whiteSpace=wrap;html=1;fontSize=20;strokeColor=#5C5C5C;strokeWidth=1;fillColor=none;dashed=1;" vertex="1" parent="1">
          <mxGeometry x="1407.96" y="1735.5" width="151" height="60" as="geometry" />
        </mxCell>
        <mxCell id="hc69DyIE2OQv7nk9ciK2-166" value="" style="whiteSpace=wrap;html=1;aspect=fixed;fontSize=20;strokeColor=none;strokeWidth=1;fillColor=#77965E;fontColor=#ffffff;" vertex="1" parent="1">
          <mxGeometry x="1412.67" y="1742.5" width="47" height="47" as="geometry" />
        </mxCell>
        <mxCell id="hc69DyIE2OQv7nk9ciK2-167" value="" style="whiteSpace=wrap;html=1;aspect=fixed;fontSize=20;strokeColor=none;strokeWidth=1;fillColor=#E7E6D5;fontColor=#ffffff;" vertex="1" parent="1">
          <mxGeometry x="1460.57" y="1742.5" width="47" height="47" as="geometry" />
        </mxCell>
        <mxCell id="hc69DyIE2OQv7nk9ciK2-168" value="" style="whiteSpace=wrap;html=1;aspect=fixed;fontSize=20;strokeColor=none;strokeWidth=1;fillColor=#B9628E;" vertex="1" parent="1">
          <mxGeometry x="1507.57" y="1742.5" width="47" height="47" as="geometry" />
        </mxCell>
        <mxCell id="hc69DyIE2OQv7nk9ciK2-169" value="Span classifier" style="rounded=0;whiteSpace=wrap;html=1;fontSize=20;strokeColor=#000000;strokeWidth=1;fillColor=none;" vertex="1" parent="1">
          <mxGeometry x="1423.46" y="1814.5" width="120" height="60" as="geometry" />
        </mxCell>
        <mxCell id="hc69DyIE2OQv7nk9ciK2-170" value="" style="endArrow=classic;html=1;rounded=0;fontSize=20;entryX=0.5;entryY=0;entryDx=0;entryDy=0;exitX=0.5;exitY=1;exitDx=0;exitDy=0;" edge="1" parent="1">
          <mxGeometry width="50" height="50" relative="1" as="geometry">
            <mxPoint x="1483.4099999999999" y="1795.5" as="sourcePoint" />
            <mxPoint x="1483.4099999999999" y="1814.5" as="targetPoint" />
          </mxGeometry>
        </mxCell>
        <mxCell id="hc69DyIE2OQv7nk9ciK2-171" value="" style="endArrow=classic;html=1;rounded=0;fontSize=20;exitX=0.5;exitY=1;exitDx=0;exitDy=0;" edge="1" parent="1">
          <mxGeometry width="50" height="50" relative="1" as="geometry">
            <mxPoint x="1483.1599999999999" y="1874.5" as="sourcePoint" />
            <mxPoint x="1483.6599999999999" y="1902.5" as="targetPoint" />
          </mxGeometry>
        </mxCell>
        <mxCell id="hc69DyIE2OQv7nk9ciK2-172" value="&lt;b&gt;&lt;font face=&quot;Times New Roman&quot;&gt;O&lt;/font&gt;&lt;/b&gt;" style="text;html=1;resizable=0;autosize=1;align=center;verticalAlign=middle;points=[];fillColor=none;strokeColor=none;rounded=0;dashed=1;fontSize=20;" vertex="1" parent="1">
          <mxGeometry x="1463.46" y="1890.5" width="40" height="40" as="geometry" />
        </mxCell>
        <mxCell id="hc69DyIE2OQv7nk9ciK2-173" style="edgeStyle=none;rounded=0;orthogonalLoop=1;jettySize=auto;html=1;exitX=0;exitY=0.5;exitDx=0;exitDy=0;entryX=1;entryY=0.5;entryDx=0;entryDy=0;fontSize=20;strokeColor=#000000;strokeWidth=2;" edge="1" parent="1" source="hc69DyIE2OQv7nk9ciK2-36" target="hc69DyIE2OQv7nk9ciK2-168">
          <mxGeometry relative="1" as="geometry" />
        </mxCell>
        <mxCell id="hc69DyIE2OQv7nk9ciK2-174" style="rounded=0;orthogonalLoop=1;jettySize=auto;html=1;exitX=0.5;exitY=1;exitDx=0;exitDy=0;exitPerimeter=0;fontSize=20;strokeWidth=2;" edge="1" parent="1">
          <mxGeometry relative="1" as="geometry">
            <mxPoint x="927.4099999999999" y="1472" as="targetPoint" />
            <mxPoint x="927.4099999999999" y="1440" as="sourcePoint" />
          </mxGeometry>
        </mxCell>
        <mxCell id="hc69DyIE2OQv7nk9ciK2-175" style="edgeStyle=none;rounded=0;orthogonalLoop=1;jettySize=auto;html=1;exitX=0.5;exitY=1;exitDx=0;exitDy=0;exitPerimeter=0;fontSize=20;entryX=0.305;entryY=0.001;entryDx=0;entryDy=0;entryPerimeter=0;strokeWidth=2;" edge="1" parent="1">
          <mxGeometry relative="1" as="geometry">
            <mxPoint x="994.4099999999999" y="1472" as="targetPoint" />
            <mxPoint x="994.4099999999999" y="1440" as="sourcePoint" />
          </mxGeometry>
        </mxCell>
        <mxCell id="hc69DyIE2OQv7nk9ciK2-176" style="edgeStyle=none;rounded=0;orthogonalLoop=1;jettySize=auto;html=1;exitX=0.5;exitY=1;exitDx=0;exitDy=0;exitPerimeter=0;entryX=0.38;entryY=0.007;entryDx=0;entryDy=0;entryPerimeter=0;fontSize=20;strokeWidth=2;" edge="1" parent="1">
          <mxGeometry relative="1" as="geometry">
            <mxPoint x="1058.4100000000026" y="1472" as="targetPoint" />
            <mxPoint x="1058.4100000000026" y="1440" as="sourcePoint" />
          </mxGeometry>
        </mxCell>
        <mxCell id="hc69DyIE2OQv7nk9ciK2-177" style="edgeStyle=none;rounded=0;orthogonalLoop=1;jettySize=auto;html=1;exitX=0.5;exitY=1;exitDx=0;exitDy=0;exitPerimeter=0;entryX=0.456;entryY=0.005;entryDx=0;entryDy=0;entryPerimeter=0;fontSize=20;strokeWidth=2;" edge="1" parent="1">
          <mxGeometry relative="1" as="geometry">
            <mxPoint x="1125.8100000000004" y="1472" as="targetPoint" />
            <mxPoint x="1125.4100000000008" y="1440" as="sourcePoint" />
          </mxGeometry>
        </mxCell>
        <mxCell id="hc69DyIE2OQv7nk9ciK2-178" style="edgeStyle=none;rounded=0;orthogonalLoop=1;jettySize=auto;html=1;exitX=0.5;exitY=1;exitDx=0;exitDy=0;exitPerimeter=0;entryX=0.531;entryY=-0.005;entryDx=0;entryDy=0;entryPerimeter=0;fontSize=20;strokeWidth=2;" edge="1" parent="1">
          <mxGeometry relative="1" as="geometry">
            <mxPoint x="1191.8099999999995" y="1472" as="targetPoint" />
            <mxPoint x="1191.4099999999999" y="1440" as="sourcePoint" />
          </mxGeometry>
        </mxCell>
        <mxCell id="hc69DyIE2OQv7nk9ciK2-179" style="edgeStyle=none;rounded=0;orthogonalLoop=1;jettySize=auto;html=1;exitX=0.5;exitY=1;exitDx=0;exitDy=0;exitPerimeter=0;entryX=0.605;entryY=-0.001;entryDx=0;entryDy=0;entryPerimeter=0;fontSize=20;strokeWidth=2;" edge="1" parent="1">
          <mxGeometry relative="1" as="geometry">
            <mxPoint x="1260.4100000000017" y="1472" as="targetPoint" />
            <mxPoint x="1260.4100000000017" y="1440" as="sourcePoint" />
          </mxGeometry>
        </mxCell>
        <mxCell id="hc69DyIE2OQv7nk9ciK2-180" style="edgeStyle=none;rounded=0;orthogonalLoop=1;jettySize=auto;html=1;exitX=0.5;exitY=1;exitDx=0;exitDy=0;exitPerimeter=0;entryX=0.681;entryY=-0.009;entryDx=0;entryDy=0;entryPerimeter=0;fontSize=20;strokeWidth=2;" edge="1" parent="1">
          <mxGeometry relative="1" as="geometry">
            <mxPoint x="1325.5899999999983" y="1472" as="targetPoint" />
            <mxPoint x="1325.1900000000014" y="1440" as="sourcePoint" />
          </mxGeometry>
        </mxCell>
        <mxCell id="hc69DyIE2OQv7nk9ciK2-181" style="edgeStyle=none;rounded=0;orthogonalLoop=1;jettySize=auto;html=1;exitX=0.5;exitY=1;exitDx=0;exitDy=0;exitPerimeter=0;entryX=0.755;entryY=-0.001;entryDx=0;entryDy=0;entryPerimeter=0;fontSize=20;strokeWidth=2;" edge="1" parent="1">
          <mxGeometry relative="1" as="geometry">
            <mxPoint x="1392.1900000000005" y="1472" as="targetPoint" />
            <mxPoint x="1392.1900000000005" y="1440" as="sourcePoint" />
          </mxGeometry>
        </mxCell>
        <mxCell id="hc69DyIE2OQv7nk9ciK2-182" style="rounded=0;orthogonalLoop=1;jettySize=auto;html=1;exitX=0.5;exitY=1;exitDx=0;exitDy=0;exitPerimeter=0;fontSize=20;strokeWidth=2;" edge="1" parent="1">
          <mxGeometry relative="1" as="geometry">
            <mxPoint x="859.1900000000005" y="1472" as="targetPoint" />
            <mxPoint x="859.1900000000005" y="1440" as="sourcePoint" />
          </mxGeometry>
        </mxCell>
        <mxCell id="hc69DyIE2OQv7nk9ciK2-183" style="rounded=0;orthogonalLoop=1;jettySize=auto;html=1;exitX=0.5;exitY=1;exitDx=0;exitDy=0;exitPerimeter=0;fontSize=20;strokeWidth=2;" edge="1" parent="1">
          <mxGeometry relative="1" as="geometry">
            <mxPoint x="789.300000000002" y="1472" as="targetPoint" />
            <mxPoint x="789" y="1441" as="sourcePoint" />
          </mxGeometry>
        </mxCell>
        <mxCell id="hc69DyIE2OQv7nk9ciK2-184" style="edgeStyle=none;rounded=0;orthogonalLoop=1;jettySize=auto;html=1;exitX=0.5;exitY=1;exitDx=0;exitDy=0;exitPerimeter=0;entryX=0.755;entryY=-0.001;entryDx=0;entryDy=0;entryPerimeter=0;fontSize=20;strokeWidth=2;" edge="1" parent="1">
          <mxGeometry relative="1" as="geometry">
            <mxPoint x="1462.1900000000005" y="1472" as="targetPoint" />
            <mxPoint x="1462.1900000000005" y="1440" as="sourcePoint" />
          </mxGeometry>
        </mxCell>
        <mxCell id="hc69DyIE2OQv7nk9ciK2-185" value="" style="verticalLabelPosition=bottom;verticalAlign=top;html=1;shape=mxgraph.basic.patternFillRect;fillStyle=hor;step=5;fillStrokeWidth=0.2;fillStrokeColor=#FFFFFF;shadow=0;sketch=0;fontFamily=Times New Roman;fontSize=27;strokeWidth=3;gradientDirection=north;strokeColor=default;fillColor=none;" vertex="1" parent="1">
          <mxGeometry x="380" y="1025.51" width="1472" height="416.99" as="geometry" />
        </mxCell>
        <mxCell id="hc69DyIE2OQv7nk9ciK2-186" value="" style="verticalLabelPosition=bottom;verticalAlign=top;html=1;shape=mxgraph.basic.patternFillRect;fillStyle=hor;step=5;fillStrokeWidth=0.2;fillStrokeColor=#FFFFFF;shadow=0;sketch=0;fontFamily=Times New Roman;fontSize=27;strokeWidth=3;gradientDirection=north;fillColor=none;" vertex="1" parent="1">
          <mxGeometry x="1040" y="1036.9" width="360" height="392.1" as="geometry" />
        </mxCell>
        <mxCell id="hc69DyIE2OQv7nk9ciK2-187" value="" style="verticalLabelPosition=bottom;verticalAlign=top;html=1;shape=mxgraph.basic.patternFillRect;fillStyle=hor;step=5;fillStrokeWidth=0.2;fillStrokeColor=#FFFFFF;shadow=0;sketch=0;fontFamily=Times New Roman;fontSize=27;strokeWidth=3;gradientDirection=north;fillColor=none;" vertex="1" parent="1">
          <mxGeometry x="555.91" y="1039" width="244.09" height="390" as="geometry" />
        </mxCell>
        <mxCell id="hc69DyIE2OQv7nk9ciK2-188" value="&lt;h1&gt;&lt;span style=&quot;font-size: 27px;&quot;&gt;Encoder&lt;/span&gt;&lt;/h1&gt;" style="text;html=1;resizable=0;autosize=1;align=center;verticalAlign=middle;points=[];fillColor=none;strokeColor=none;rounded=0;shadow=0;sketch=0;fillStyle=auto;fontFamily=Times New Roman;fontSize=27;" vertex="1" parent="1">
          <mxGeometry x="400.0002117170484" y="990" width="120" height="150" as="geometry" />
        </mxCell>
        <mxCell id="hc69DyIE2OQv7nk9ciK2-189" value="&lt;font style=&quot;font-size: 30px;&quot;&gt;Embedding layer&lt;/font&gt;" style="text;html=1;resizable=0;autosize=1;align=center;verticalAlign=middle;points=[];fillColor=none;strokeColor=none;rounded=0;shadow=0;sketch=0;fillStyle=auto;fontFamily=Times New Roman;fontSize=27;" vertex="1" parent="1">
          <mxGeometry x="567.9528304947283" y="1388.9" width="220" height="40" as="geometry" />
        </mxCell>
        <mxCell id="hc69DyIE2OQv7nk9ciK2-190" value="" style="verticalLabelPosition=bottom;verticalAlign=top;html=1;shape=mxgraph.basic.patternFillRect;fillStyle=auto;step=5;fillStrokeWidth=0.2;fillStrokeColor=#dddddd;gradientDirection=north;strokeColor=none;shadow=0;sketch=0;fillColor=#4460B3;" vertex="1" parent="1">
          <mxGeometry x="612.5511111111111" y="1112.1" width="35.33333333333334" height="30" as="geometry" />
        </mxCell>
        <mxCell id="hc69DyIE2OQv7nk9ciK2-191" value="" style="verticalLabelPosition=bottom;verticalAlign=top;html=1;shape=mxgraph.basic.patternFillRect;fillStyle=auto;step=5;fillStrokeWidth=0.2;fillStrokeColor=#dddddd;gradientDirection=north;strokeColor=none;shadow=0;sketch=0;fillColor=#4460B3;" vertex="1" parent="1">
          <mxGeometry x="612.5511111111111" y="1142.1" width="35.33333333333334" height="30" as="geometry" />
        </mxCell>
        <mxCell id="hc69DyIE2OQv7nk9ciK2-192" value="" style="verticalLabelPosition=bottom;verticalAlign=top;html=1;shape=mxgraph.basic.patternFillRect;fillStyle=auto;step=5;fillStrokeWidth=0.2;fillStrokeColor=#dddddd;gradientDirection=north;strokeColor=none;shadow=0;sketch=0;fillColor=#4460B3;" vertex="1" parent="1">
          <mxGeometry x="612.5511111111111" y="1172.1" width="35.33333333333334" height="30" as="geometry" />
        </mxCell>
        <mxCell id="hc69DyIE2OQv7nk9ciK2-193" value="" style="verticalLabelPosition=bottom;verticalAlign=top;html=1;shape=mxgraph.basic.patternFillRect;fillStyle=auto;step=5;fillStrokeWidth=0.2;fillStrokeColor=#dddddd;gradientDirection=north;strokeColor=none;shadow=0;sketch=0;fillColor=#4460B3;" vertex="1" parent="1">
          <mxGeometry x="612.5511111111111" y="1202.1" width="35.33333333333334" height="30" as="geometry" />
        </mxCell>
        <mxCell id="hc69DyIE2OQv7nk9ciK2-194" value="" style="verticalLabelPosition=bottom;verticalAlign=top;html=1;shape=mxgraph.basic.patternFillRect;fillStyle=auto;step=5;fillStrokeWidth=0.2;fillStrokeColor=#dddddd;gradientDirection=north;strokeColor=none;shadow=0;sketch=0;fillColor=#4460B3;" vertex="1" parent="1">
          <mxGeometry x="612.5511111111111" y="1232.1" width="35.33333333333334" height="30" as="geometry" />
        </mxCell>
        <mxCell id="hc69DyIE2OQv7nk9ciK2-195" value="" style="verticalLabelPosition=bottom;verticalAlign=top;html=1;shape=mxgraph.basic.patternFillRect;fillStyle=auto;step=5;fillStrokeWidth=0.2;fillStrokeColor=#dddddd;gradientDirection=north;strokeColor=none;shadow=0;sketch=0;fillColor=#4460B3;" vertex="1" parent="1">
          <mxGeometry x="612.5511111111111" y="1262.1" width="35.33333333333334" height="30" as="geometry" />
        </mxCell>
        <mxCell id="hc69DyIE2OQv7nk9ciK2-196" value="" style="verticalLabelPosition=bottom;verticalAlign=top;html=1;shape=mxgraph.basic.patternFillRect;fillStyle=auto;step=5;fillStrokeWidth=0.2;fillStrokeColor=#dddddd;gradientDirection=north;strokeColor=none;shadow=0;sketch=0;fillColor=#4460B3;" vertex="1" parent="1">
          <mxGeometry x="612.5511111111111" y="1292.1" width="35.33333333333334" height="30" as="geometry" />
        </mxCell>
        <mxCell id="hc69DyIE2OQv7nk9ciK2-197" value="" style="verticalLabelPosition=bottom;verticalAlign=top;html=1;shape=mxgraph.basic.patternFillRect;fillStyle=auto;step=5;fillStrokeWidth=0.2;fillStrokeColor=#dddddd;gradientDirection=north;strokeColor=none;shadow=0;sketch=0;fillColor=#4460B3;" vertex="1" parent="1">
          <mxGeometry x="612.5511111111111" y="1322.1" width="35.33333333333334" height="30" as="geometry" />
        </mxCell>
        <mxCell id="hc69DyIE2OQv7nk9ciK2-198" value="&lt;b&gt;&lt;font style=&quot;font-size: 40px;&quot;&gt;+&lt;/font&gt;&lt;/b&gt;" style="text;html=1;resizable=0;autosize=1;align=center;verticalAlign=middle;points=[];fillColor=none;strokeColor=none;rounded=0;shadow=0;sketch=0;fillStyle=auto;fontFamily=Times New Roman;fontSize=27;" vertex="1" parent="1">
          <mxGeometry x="665.6672749391726" y="1175.2" width="40" height="40" as="geometry" />
        </mxCell>
        <mxCell id="hc69DyIE2OQv7nk9ciK2-199" value="" style="verticalLabelPosition=bottom;verticalAlign=top;html=1;shape=mxgraph.basic.patternFillRect;fillStyle=hor;step=5;fillStrokeWidth=0.2;fillStrokeColor=#FFFFFF;shadow=0;sketch=0;fontFamily=Times New Roman;fontSize=27;strokeWidth=3;gradientDirection=north;fillColor=none;" vertex="1" parent="1">
          <mxGeometry x="861.71" y="1039" width="160.00000000000003" height="370" as="geometry" />
        </mxCell>
        <mxCell id="hc69DyIE2OQv7nk9ciK2-200" value="The encoder &lt;br&gt;of &lt;br&gt;Transformer" style="text;html=1;resizable=0;autosize=1;align=center;verticalAlign=middle;points=[];fillColor=none;strokeColor=none;rounded=0;shadow=0;sketch=0;fillStyle=auto;fontFamily=Times New Roman;fontSize=27;" vertex="1" parent="1">
          <mxGeometry x="862.7128304947283" y="1162.1" width="160" height="110" as="geometry" />
        </mxCell>
        <mxCell id="hc69DyIE2OQv7nk9ciK2-201" value="" style="group" vertex="1" connectable="0" parent="1">
          <mxGeometry x="800" y="1127" width="60.71000000000004" height="209.73000000000002" as="geometry" />
        </mxCell>
        <mxCell id="hc69DyIE2OQv7nk9ciK2-202" value="" style="endArrow=classic;html=1;rounded=0;" edge="1" parent="hc69DyIE2OQv7nk9ciK2-201">
          <mxGeometry width="50" height="50" relative="1" as="geometry">
            <mxPoint as="sourcePoint" />
            <mxPoint x="60.00000000000001" as="targetPoint" />
          </mxGeometry>
        </mxCell>
        <mxCell id="hc69DyIE2OQv7nk9ciK2-203" value="" style="endArrow=classic;html=1;rounded=0;" edge="1" parent="hc69DyIE2OQv7nk9ciK2-201">
          <mxGeometry width="50" height="50" relative="1" as="geometry">
            <mxPoint y="29.730000000000018" as="sourcePoint" />
            <mxPoint x="60.00000000000001" y="29.730000000000018" as="targetPoint" />
          </mxGeometry>
        </mxCell>
        <mxCell id="hc69DyIE2OQv7nk9ciK2-204" value="" style="endArrow=classic;html=1;rounded=0;fontStyle=1" edge="1" parent="hc69DyIE2OQv7nk9ciK2-201">
          <mxGeometry width="50" height="50" relative="1" as="geometry">
            <mxPoint y="59.73000000000002" as="sourcePoint" />
            <mxPoint x="60.00000000000001" y="59.73000000000002" as="targetPoint" />
          </mxGeometry>
        </mxCell>
        <mxCell id="hc69DyIE2OQv7nk9ciK2-205" value="" style="endArrow=classic;html=1;rounded=0;" edge="1" parent="hc69DyIE2OQv7nk9ciK2-201">
          <mxGeometry width="50" height="50" relative="1" as="geometry">
            <mxPoint y="89.73000000000002" as="sourcePoint" />
            <mxPoint x="60.00000000000001" y="89.73000000000002" as="targetPoint" />
          </mxGeometry>
        </mxCell>
        <mxCell id="hc69DyIE2OQv7nk9ciK2-206" value="" style="endArrow=classic;html=1;rounded=0;" edge="1" parent="hc69DyIE2OQv7nk9ciK2-201">
          <mxGeometry width="50" height="50" relative="1" as="geometry">
            <mxPoint y="119.73000000000002" as="sourcePoint" />
            <mxPoint x="60.00000000000001" y="119.73000000000002" as="targetPoint" />
          </mxGeometry>
        </mxCell>
        <mxCell id="hc69DyIE2OQv7nk9ciK2-207" value="" style="endArrow=classic;html=1;rounded=0;" edge="1" parent="hc69DyIE2OQv7nk9ciK2-201">
          <mxGeometry width="50" height="50" relative="1" as="geometry">
            <mxPoint x="0.7100000000000364" y="149.73000000000002" as="sourcePoint" />
            <mxPoint x="60.71000000000004" y="149.73000000000002" as="targetPoint" />
          </mxGeometry>
        </mxCell>
        <mxCell id="hc69DyIE2OQv7nk9ciK2-208" value="" style="endArrow=classic;html=1;rounded=0;" edge="1" parent="hc69DyIE2OQv7nk9ciK2-201">
          <mxGeometry width="50" height="50" relative="1" as="geometry">
            <mxPoint y="179.73000000000002" as="sourcePoint" />
            <mxPoint x="60.00000000000001" y="179.73000000000002" as="targetPoint" />
          </mxGeometry>
        </mxCell>
        <mxCell id="hc69DyIE2OQv7nk9ciK2-209" value="" style="endArrow=classic;html=1;rounded=0;" edge="1" parent="hc69DyIE2OQv7nk9ciK2-201">
          <mxGeometry width="50" height="50" relative="1" as="geometry">
            <mxPoint y="209.73000000000002" as="sourcePoint" />
            <mxPoint x="60.00000000000001" y="209.73000000000002" as="targetPoint" />
          </mxGeometry>
        </mxCell>
        <mxCell id="hc69DyIE2OQv7nk9ciK2-210" value="" style="verticalLabelPosition=bottom;verticalAlign=top;html=1;shape=mxgraph.basic.patternFillRect;fillStyle=hor;step=5;fillStrokeWidth=0.2;fillStrokeColor=#FFFFFF;shadow=0;sketch=0;fontFamily=Times New Roman;fontSize=27;strokeWidth=3;gradientDirection=north;fillColor=none;" vertex="1" parent="1">
          <mxGeometry x="1440.0000000000002" y="1037.1" width="160.00000000000003" height="370" as="geometry" />
        </mxCell>
        <mxCell id="hc69DyIE2OQv7nk9ciK2-211" value="" style="endArrow=classicThin;html=1;rounded=0;fontSize=20;endFill=1;entryX=0.5;entryY=0;entryDx=0;entryDy=0;fillColor=#f5f5f5;strokeColor=#666666;" edge="1" parent="1" target="hc69DyIE2OQv7nk9ciK2-237">
          <mxGeometry width="50" height="50" relative="1" as="geometry">
            <mxPoint x="1127" y="1007" as="sourcePoint" />
            <mxPoint x="1127.5000000000002" y="1104.07782" as="targetPoint" />
          </mxGeometry>
        </mxCell>
        <mxCell id="hc69DyIE2OQv7nk9ciK2-212" value="" style="endArrow=classicThin;html=1;rounded=0;fontSize=20;endFill=1;entryX=0.5;entryY=0;entryDx=0;entryDy=0;fillColor=#f5f5f5;strokeColor=#666666;" edge="1" parent="1" target="hc69DyIE2OQv7nk9ciK2-238">
          <mxGeometry width="50" height="50" relative="1" as="geometry">
            <mxPoint x="1157" y="1007" as="sourcePoint" />
            <mxPoint x="1157.1599999999994" y="1155.8682799999997" as="targetPoint" />
          </mxGeometry>
        </mxCell>
        <mxCell id="hc69DyIE2OQv7nk9ciK2-213" value="" style="endArrow=classicThin;html=1;rounded=0;fontSize=20;endFill=1;entryX=0.5;entryY=0;entryDx=0;entryDy=0;fillColor=#f5f5f5;strokeColor=#666666;" edge="1" parent="1" target="hc69DyIE2OQv7nk9ciK2-239">
          <mxGeometry width="50" height="50" relative="1" as="geometry">
            <mxPoint x="1186" y="1007" as="sourcePoint" />
            <mxPoint x="1186.0400000000004" y="1185.8184200000005" as="targetPoint" />
          </mxGeometry>
        </mxCell>
        <mxCell id="hc69DyIE2OQv7nk9ciK2-214" value="" style="endArrow=classicThin;html=1;rounded=0;fontSize=20;endFill=1;entryX=0.5;entryY=0;entryDx=0;entryDy=0;fillColor=#f5f5f5;strokeColor=#666666;" edge="1" parent="1" target="hc69DyIE2OQv7nk9ciK2-240">
          <mxGeometry width="50" height="50" relative="1" as="geometry">
            <mxPoint x="1217" y="1007" as="sourcePoint" />
            <mxPoint x="1215.2600000000007" y="1215.76856" as="targetPoint" />
          </mxGeometry>
        </mxCell>
        <mxCell id="hc69DyIE2OQv7nk9ciK2-215" value="" style="endArrow=classicThin;html=1;rounded=0;fontSize=20;endFill=1;fillColor=#f5f5f5;strokeColor=#666666;" edge="1" parent="1">
          <mxGeometry width="50" height="50" relative="1" as="geometry">
            <mxPoint x="1244" y="1007" as="sourcePoint" />
            <mxPoint x="1244" y="1237" as="targetPoint" />
          </mxGeometry>
        </mxCell>
        <mxCell id="hc69DyIE2OQv7nk9ciK2-216" value="" style="endArrow=classicThin;html=1;rounded=0;fontSize=20;endFill=1;fillColor=#f5f5f5;strokeColor=#666666;" edge="1" parent="1">
          <mxGeometry width="50" height="50" relative="1" as="geometry">
            <mxPoint x="1276" y="1007" as="sourcePoint" />
            <mxPoint x="1276" y="1267" as="targetPoint" />
          </mxGeometry>
        </mxCell>
        <mxCell id="hc69DyIE2OQv7nk9ciK2-217" value="" style="endArrow=classicThin;html=1;rounded=0;fontSize=20;endFill=1;fillColor=#f5f5f5;strokeColor=#666666;entryX=0.737;entryY=0.668;entryDx=0;entryDy=0;entryPerimeter=0;" edge="1" parent="1" target="hc69DyIE2OQv7nk9ciK2-186">
          <mxGeometry width="50" height="50" relative="1" as="geometry">
            <mxPoint x="1305" y="1007" as="sourcePoint" />
            <mxPoint x="1305.0000000000005" y="1305" as="targetPoint" />
          </mxGeometry>
        </mxCell>
        <mxCell id="hc69DyIE2OQv7nk9ciK2-218" value="" style="endArrow=classicThin;html=1;rounded=0;fontSize=20;endFill=1;fillColor=#f5f5f5;strokeColor=#666666;" edge="1" parent="1">
          <mxGeometry width="50" height="50" relative="1" as="geometry">
            <mxPoint x="1333" y="1007" as="sourcePoint" />
            <mxPoint x="1333.000000000001" y="1327" as="targetPoint" />
          </mxGeometry>
        </mxCell>
        <mxCell id="hc69DyIE2OQv7nk9ciK2-219" value="The encoder&lt;br&gt;of &lt;br&gt;Transformer" style="text;html=1;resizable=0;autosize=1;align=center;verticalAlign=middle;points=[];fillColor=none;strokeColor=none;rounded=0;shadow=0;sketch=0;fillStyle=auto;fontFamily=Times New Roman;fontSize=27;" vertex="1" parent="1">
          <mxGeometry x="1440.0028304947284" y="1162.1" width="160" height="110" as="geometry" />
        </mxCell>
        <mxCell id="hc69DyIE2OQv7nk9ciK2-220" value="&lt;font style=&quot;font-size: 30px;&quot;&gt;Lexicon fusion layer&lt;/font&gt;" style="text;html=1;resizable=0;autosize=1;align=center;verticalAlign=middle;points=[];fillColor=none;strokeColor=none;rounded=0;shadow=0;sketch=0;fillStyle=auto;fontFamily=Times New Roman;fontSize=27;" vertex="1" parent="1">
          <mxGeometry x="1099.2197193836175" y="1387.9" width="260" height="40" as="geometry" />
        </mxCell>
        <mxCell id="hc69DyIE2OQv7nk9ciK2-221" value="" style="endArrow=classic;html=1;rounded=0;entryX=0;entryY=0.5;entryDx=0;entryDy=0;" edge="1" parent="1" target="hc69DyIE2OQv7nk9ciK2-242">
          <mxGeometry width="50" height="50" relative="1" as="geometry">
            <mxPoint x="1020" y="1280.6940490154007" as="sourcePoint" />
            <mxPoint x="1110.0000000000002" y="1280.6940490154007" as="targetPoint" />
          </mxGeometry>
        </mxCell>
        <mxCell id="hc69DyIE2OQv7nk9ciK2-222" value="" style="endArrow=classic;html=1;rounded=0;entryX=0;entryY=0.5;entryDx=0;entryDy=0;" edge="1" parent="1" target="hc69DyIE2OQv7nk9ciK2-237">
          <mxGeometry width="50" height="50" relative="1" as="geometry">
            <mxPoint x="1020" y="1127" as="sourcePoint" />
            <mxPoint x="1110.0000000000002" y="1127" as="targetPoint" />
          </mxGeometry>
        </mxCell>
        <mxCell id="hc69DyIE2OQv7nk9ciK2-223" value="" style="endArrow=classic;html=1;rounded=0;entryX=0;entryY=0.5;entryDx=0;entryDy=0;" edge="1" parent="1" target="hc69DyIE2OQv7nk9ciK2-238">
          <mxGeometry width="50" height="50" relative="1" as="geometry">
            <mxPoint x="1020" y="1157" as="sourcePoint" />
            <mxPoint x="1142.0000000000002" y="1155.1499999999996" as="targetPoint" />
          </mxGeometry>
        </mxCell>
        <mxCell id="hc69DyIE2OQv7nk9ciK2-224" value="" style="endArrow=classic;html=1;rounded=0;fontStyle=1;entryX=0;entryY=0.5;entryDx=0;entryDy=0;" edge="1" parent="1" target="hc69DyIE2OQv7nk9ciK2-239">
          <mxGeometry width="50" height="50" relative="1" as="geometry">
            <mxPoint x="1020" y="1188.7235631526246" as="sourcePoint" />
            <mxPoint x="1110.0000000000002" y="1188.7235631526246" as="targetPoint" />
          </mxGeometry>
        </mxCell>
        <mxCell id="hc69DyIE2OQv7nk9ciK2-225" value="" style="endArrow=classic;html=1;rounded=0;entryX=0;entryY=0.5;entryDx=0;entryDy=0;" edge="1" parent="1" target="hc69DyIE2OQv7nk9ciK2-240">
          <mxGeometry width="50" height="50" relative="1" as="geometry">
            <mxPoint x="1020" y="1219.7248505221005" as="sourcePoint" />
            <mxPoint x="1110.0000000000002" y="1219.7248505221" as="targetPoint" />
          </mxGeometry>
        </mxCell>
        <mxCell id="hc69DyIE2OQv7nk9ciK2-226" value="" style="endArrow=classic;html=1;rounded=0;entryX=0;entryY=0.5;entryDx=0;entryDy=0;" edge="1" parent="1" target="hc69DyIE2OQv7nk9ciK2-241">
          <mxGeometry width="50" height="50" relative="1" as="geometry">
            <mxPoint x="1020" y="1250.726137891575" as="sourcePoint" />
            <mxPoint x="1110.0000000000002" y="1250.726137891575" as="targetPoint" />
          </mxGeometry>
        </mxCell>
        <mxCell id="hc69DyIE2OQv7nk9ciK2-227" value="" style="endArrow=classic;html=1;rounded=0;entryX=0;entryY=0.5;entryDx=0;entryDy=0;" edge="1" parent="1">
          <mxGeometry width="50" height="50" relative="1" as="geometry">
            <mxPoint x="1020" y="1310.728712630525" as="sourcePoint" />
            <mxPoint x="1290.5700000000006" y="1311.1" as="targetPoint" />
          </mxGeometry>
        </mxCell>
        <mxCell id="hc69DyIE2OQv7nk9ciK2-228" value="" style="endArrow=classic;html=1;rounded=0;entryX=0;entryY=0.5;entryDx=0;entryDy=0;" edge="1" parent="1">
          <mxGeometry width="50" height="50" relative="1" as="geometry">
            <mxPoint x="1020" y="1338.73" as="sourcePoint" />
            <mxPoint x="1322" y="1340.0999999999995" as="targetPoint" />
          </mxGeometry>
        </mxCell>
        <mxCell id="hc69DyIE2OQv7nk9ciK2-229" style="rounded=0;orthogonalLoop=1;jettySize=auto;html=1;exitX=0.5;exitY=1;exitDx=0;exitDy=0;exitPerimeter=0;fontSize=20;" edge="1" parent="1">
          <mxGeometry relative="1" as="geometry">
            <mxPoint x="1125" y="924.0000000000005" as="targetPoint" />
            <mxPoint x="1125" y="890" as="sourcePoint" />
          </mxGeometry>
        </mxCell>
        <mxCell id="hc69DyIE2OQv7nk9ciK2-230" style="edgeStyle=none;rounded=0;orthogonalLoop=1;jettySize=auto;html=1;exitX=0.5;exitY=1;exitDx=0;exitDy=0;exitPerimeter=0;fontSize=20;entryX=0.305;entryY=0.001;entryDx=0;entryDy=0;entryPerimeter=0;" edge="1" parent="1">
          <mxGeometry relative="1" as="geometry">
            <mxPoint x="1155" y="925.06" as="targetPoint" />
            <mxPoint x="1155" y="890" as="sourcePoint" />
          </mxGeometry>
        </mxCell>
        <mxCell id="hc69DyIE2OQv7nk9ciK2-231" style="edgeStyle=none;rounded=0;orthogonalLoop=1;jettySize=auto;html=1;exitX=0.5;exitY=1;exitDx=0;exitDy=0;exitPerimeter=0;entryX=0.38;entryY=0.007;entryDx=0;entryDy=0;entryPerimeter=0;fontSize=20;" edge="1" parent="1">
          <mxGeometry relative="1" as="geometry">
            <mxPoint x="1185" y="890" as="sourcePoint" />
            <mxPoint x="1185" y="925.4200000000001" as="targetPoint" />
          </mxGeometry>
        </mxCell>
        <mxCell id="hc69DyIE2OQv7nk9ciK2-232" style="edgeStyle=none;rounded=0;orthogonalLoop=1;jettySize=auto;html=1;exitX=0.5;exitY=1;exitDx=0;exitDy=0;exitPerimeter=0;entryX=0.456;entryY=0.005;entryDx=0;entryDy=0;entryPerimeter=0;fontSize=20;" edge="1" parent="1">
          <mxGeometry relative="1" as="geometry">
            <mxPoint x="1215" y="890" as="sourcePoint" />
            <mxPoint x="1215.4000000000024" y="925.3000000000002" as="targetPoint" />
          </mxGeometry>
        </mxCell>
        <mxCell id="hc69DyIE2OQv7nk9ciK2-233" style="edgeStyle=none;rounded=0;orthogonalLoop=1;jettySize=auto;html=1;exitX=0.5;exitY=1;exitDx=0;exitDy=0;exitPerimeter=0;entryX=0.531;entryY=-0.005;entryDx=0;entryDy=0;entryPerimeter=0;fontSize=20;" edge="1" parent="1">
          <mxGeometry relative="1" as="geometry">
            <mxPoint x="1245" y="890" as="sourcePoint" />
            <mxPoint x="1245.4000000000024" y="924.7000000000003" as="targetPoint" />
          </mxGeometry>
        </mxCell>
        <mxCell id="hc69DyIE2OQv7nk9ciK2-234" style="edgeStyle=none;rounded=0;orthogonalLoop=1;jettySize=auto;html=1;exitX=0.5;exitY=1;exitDx=0;exitDy=0;exitPerimeter=0;entryX=0.605;entryY=-0.001;entryDx=0;entryDy=0;entryPerimeter=0;fontSize=20;" edge="1" parent="1">
          <mxGeometry relative="1" as="geometry">
            <mxPoint x="1275" y="890" as="sourcePoint" />
            <mxPoint x="1275" y="924.94" as="targetPoint" />
          </mxGeometry>
        </mxCell>
        <mxCell id="hc69DyIE2OQv7nk9ciK2-235" style="edgeStyle=none;rounded=0;orthogonalLoop=1;jettySize=auto;html=1;exitX=0.5;exitY=1;exitDx=0;exitDy=0;exitPerimeter=0;entryX=0.681;entryY=-0.009;entryDx=0;entryDy=0;entryPerimeter=0;fontSize=20;" edge="1" parent="1">
          <mxGeometry relative="1" as="geometry">
            <mxPoint x="1305" y="890" as="sourcePoint" />
            <mxPoint x="1305.4000000000024" y="924.46" as="targetPoint" />
          </mxGeometry>
        </mxCell>
        <mxCell id="hc69DyIE2OQv7nk9ciK2-236" style="edgeStyle=none;rounded=0;orthogonalLoop=1;jettySize=auto;html=1;exitX=0.5;exitY=1;exitDx=0;exitDy=0;exitPerimeter=0;entryX=0.755;entryY=-0.001;entryDx=0;entryDy=0;entryPerimeter=0;fontSize=20;" edge="1" parent="1">
          <mxGeometry relative="1" as="geometry">
            <mxPoint x="1334.999999999999" y="890" as="sourcePoint" />
            <mxPoint x="1334.999999999999" y="924.94" as="targetPoint" />
          </mxGeometry>
        </mxCell>
        <mxCell id="hc69DyIE2OQv7nk9ciK2-237" value="LA" style="whiteSpace=wrap;html=1;aspect=fixed;strokeWidth=1;" vertex="1" parent="1">
          <mxGeometry x="1114.0000000000002" y="1114.1" width="26" height="26" as="geometry" />
        </mxCell>
        <mxCell id="hc69DyIE2OQv7nk9ciK2-238" value="LA" style="whiteSpace=wrap;html=1;aspect=fixed;strokeWidth=1;" vertex="1" parent="1">
          <mxGeometry x="1144.0000000000002" y="1144.1" width="26" height="26" as="geometry" />
        </mxCell>
        <mxCell id="hc69DyIE2OQv7nk9ciK2-239" value="LA" style="whiteSpace=wrap;html=1;aspect=fixed;strokeWidth=1;" vertex="1" parent="1">
          <mxGeometry x="1173.22" y="1176.1" width="26" height="26" as="geometry" />
        </mxCell>
        <mxCell id="hc69DyIE2OQv7nk9ciK2-240" value="LA" style="whiteSpace=wrap;html=1;aspect=fixed;strokeWidth=1;" vertex="1" parent="1">
          <mxGeometry x="1202.22" y="1206.1" width="26" height="26" as="geometry" />
        </mxCell>
        <mxCell id="hc69DyIE2OQv7nk9ciK2-241" value="LA" style="whiteSpace=wrap;html=1;aspect=fixed;strokeWidth=1;" vertex="1" parent="1">
          <mxGeometry x="1231.22" y="1237.1" width="26" height="26" as="geometry" />
        </mxCell>
        <mxCell id="hc69DyIE2OQv7nk9ciK2-242" value="LA" style="whiteSpace=wrap;html=1;aspect=fixed;strokeWidth=1;" vertex="1" parent="1">
          <mxGeometry x="1261.22" y="1267.1" width="26" height="26" as="geometry" />
        </mxCell>
        <mxCell id="hc69DyIE2OQv7nk9ciK2-243" value="LA" style="whiteSpace=wrap;html=1;aspect=fixed;strokeWidth=1;" vertex="1" parent="1">
          <mxGeometry x="1290.57" y="1298.1" width="26" height="26" as="geometry" />
        </mxCell>
        <mxCell id="hc69DyIE2OQv7nk9ciK2-244" value="LA" style="whiteSpace=wrap;html=1;aspect=fixed;strokeWidth=1;" vertex="1" parent="1">
          <mxGeometry x="1321.0000000000002" y="1327.1" width="26" height="26" as="geometry" />
        </mxCell>
        <mxCell id="hc69DyIE2OQv7nk9ciK2-245" value="Chinese generic features" style="text;html=1;resizable=0;autosize=1;align=center;verticalAlign=middle;points=[];fillColor=none;strokeColor=none;rounded=0;shadow=0;dashed=1;sketch=0;fillStyle=auto;fontFamily=Times New Roman;fontSize=27;" vertex="1" parent="1">
          <mxGeometry x="555.22" y="777" width="290" height="50" as="geometry" />
        </mxCell>
        <mxCell id="hc69DyIE2OQv7nk9ciK2-246" value="" style="endArrow=classic;html=1;rounded=0;entryX=0;entryY=0.5;entryDx=0;entryDy=0;" edge="1" parent="1">
          <mxGeometry width="50" height="50" relative="1" as="geometry">
            <mxPoint x="1229.0000000000018" y="1219.726137891575" as="sourcePoint" />
            <mxPoint x="1440.2199999999993" y="1219.0999999999995" as="targetPoint" />
          </mxGeometry>
        </mxCell>
        <mxCell id="hc69DyIE2OQv7nk9ciK2-247" value="" style="endArrow=classic;html=1;rounded=0;entryX=0;entryY=0.5;entryDx=0;entryDy=0;" edge="1" parent="1">
          <mxGeometry width="50" height="50" relative="1" as="geometry">
            <mxPoint x="1199.0000000000018" y="1188.694049015401" as="sourcePoint" />
            <mxPoint x="1440.2199999999993" y="1188.1" as="targetPoint" />
          </mxGeometry>
        </mxCell>
        <mxCell id="hc69DyIE2OQv7nk9ciK2-248" value="" style="endArrow=classic;html=1;rounded=0;entryX=0;entryY=0.5;entryDx=0;entryDy=0;" edge="1" parent="1">
          <mxGeometry width="50" height="50" relative="1" as="geometry">
            <mxPoint x="1170" y="1156.728712630525" as="sourcePoint" />
            <mxPoint x="1440.5700000000006" y="1157.1" as="targetPoint" />
          </mxGeometry>
        </mxCell>
        <mxCell id="hc69DyIE2OQv7nk9ciK2-249" value="" style="endArrow=classic;html=1;rounded=0;entryX=0;entryY=0.5;entryDx=0;entryDy=0;" edge="1" parent="1">
          <mxGeometry width="50" height="50" relative="1" as="geometry">
            <mxPoint x="1139.0000000000018" y="1126.7300000000005" as="sourcePoint" />
            <mxPoint x="1440.999999999999" y="1128.1" as="targetPoint" />
          </mxGeometry>
        </mxCell>
        <mxCell id="hc69DyIE2OQv7nk9ciK2-250" value="" style="endArrow=classic;html=1;rounded=0;entryX=0;entryY=0.5;entryDx=0;entryDy=0;" edge="1" parent="1">
          <mxGeometry width="50" height="50" relative="1" as="geometry">
            <mxPoint x="1257" y="1250.7248505221" as="sourcePoint" />
            <mxPoint x="1439.2200000000003" y="1250.1000000000004" as="targetPoint" />
          </mxGeometry>
        </mxCell>
        <mxCell id="hc69DyIE2OQv7nk9ciK2-251" value="" style="endArrow=classic;html=1;rounded=0;fontStyle=1;entryX=0;entryY=0.5;entryDx=0;entryDy=0;" edge="1" parent="1">
          <mxGeometry width="50" height="50" relative="1" as="geometry">
            <mxPoint x="1287" y="1280.7235631526246" as="sourcePoint" />
            <mxPoint x="1440.2199999999993" y="1281.1" as="targetPoint" />
          </mxGeometry>
        </mxCell>
        <mxCell id="hc69DyIE2OQv7nk9ciK2-252" value="" style="endArrow=classic;html=1;rounded=0;entryX=0;entryY=0.5;entryDx=0;entryDy=0;" edge="1" parent="1">
          <mxGeometry width="50" height="50" relative="1" as="geometry">
            <mxPoint x="1316" y="1311" as="sourcePoint" />
            <mxPoint x="1440" y="1311.1" as="targetPoint" />
          </mxGeometry>
        </mxCell>
        <mxCell id="hc69DyIE2OQv7nk9ciK2-253" value="" style="endArrow=classic;html=1;rounded=0;entryX=0;entryY=0.5;entryDx=0;entryDy=0;" edge="1" parent="1">
          <mxGeometry width="50" height="50" relative="1" as="geometry">
            <mxPoint x="1347" y="1340.0000000000005" as="sourcePoint" />
            <mxPoint x="1440.999999999999" y="1340.1000000000004" as="targetPoint" />
          </mxGeometry>
        </mxCell>
        <mxCell id="hc69DyIE2OQv7nk9ciK2-254" value="" style="group" vertex="1" connectable="0" parent="1">
          <mxGeometry x="497" y="840.87" width="450.86" height="288.63" as="geometry" />
        </mxCell>
        <mxCell id="hc69DyIE2OQv7nk9ciK2-255" value="" style="verticalLabelPosition=bottom;verticalAlign=top;html=1;shape=mxgraph.basic.patternFillRect;fillStyle=hor;step=5;fillStrokeWidth=0.2;fillStrokeColor=#dddddd;shadow=0;sketch=0;strokeColor=#000000;gradientColor=#ffffff;gradientDirection=north;fillColor=none;strokeWidth=2;" vertex="1" parent="hc69DyIE2OQv7nk9ciK2-254">
          <mxGeometry y="-7.466666666666667" width="413.716915995397" height="64" as="geometry" />
        </mxCell>
        <mxCell id="hc69DyIE2OQv7nk9ciK2-256" value="&lt;p&gt;&lt;b style=&quot;font-family: &amp;quot;Times New Roman&amp;quot;; font-size: 27px;&quot;&gt;&amp;nbsp;Char fusion embedding generation&lt;/b&gt;&lt;br&gt;&lt;/p&gt;" style="text;html=1;resizable=0;autosize=1;align=center;verticalAlign=middle;points=[];fillColor=none;rounded=0;shadow=0;dashed=1;sketch=0;fillStyle=auto;" vertex="1" parent="hc69DyIE2OQv7nk9ciK2-254">
          <mxGeometry x="-11.402761795166873" y="-13.866666666666667" width="430" height="70" as="geometry" />
        </mxCell>
        <mxCell id="hc69DyIE2OQv7nk9ciK2-257" value="" style="group;fillColor=#4460B3;strokeColor=none;container=0;" vertex="1" connectable="0" parent="1">
          <mxGeometry x="572.22" y="932" width="240" height="30" as="geometry" />
        </mxCell>
        <mxCell id="hc69DyIE2OQv7nk9ciK2-258" style="rounded=0;orthogonalLoop=1;jettySize=auto;html=1;exitX=0.5;exitY=1;exitDx=0;exitDy=0;exitPerimeter=0;entryX=-0.027;entryY=0.922;entryDx=0;entryDy=0;entryPerimeter=0;fontSize=30;strokeWidth=3;edgeStyle=orthogonalEdgeStyle;elbow=vertical;" edge="1" parent="1" source="hc69DyIE2OQv7nk9ciK2-268" target="hc69DyIE2OQv7nk9ciK2-193">
          <mxGeometry relative="1" as="geometry">
            <Array as="points">
              <mxPoint x="707" y="1007" />
              <mxPoint x="340" y="1007" />
              <mxPoint x="340" y="1230" />
            </Array>
          </mxGeometry>
        </mxCell>
        <mxCell id="hc69DyIE2OQv7nk9ciK2-259" style="rounded=0;orthogonalLoop=1;jettySize=auto;html=1;exitX=0.5;exitY=1;exitDx=0;exitDy=0;exitPerimeter=0;fontSize=20;" edge="1" parent="1">
          <mxGeometry relative="1" as="geometry">
            <mxPoint x="587" y="931.0000000000005" as="targetPoint" />
            <mxPoint x="587" y="897.0000000000005" as="sourcePoint" />
          </mxGeometry>
        </mxCell>
        <mxCell id="hc69DyIE2OQv7nk9ciK2-260" style="edgeStyle=none;rounded=0;orthogonalLoop=1;jettySize=auto;html=1;exitX=0.5;exitY=1;exitDx=0;exitDy=0;exitPerimeter=0;fontSize=20;entryX=0.305;entryY=0.001;entryDx=0;entryDy=0;entryPerimeter=0;" edge="1" parent="1">
          <mxGeometry relative="1" as="geometry">
            <mxPoint x="617" y="932.0600000000004" as="targetPoint" />
            <mxPoint x="617" y="897.0000000000005" as="sourcePoint" />
          </mxGeometry>
        </mxCell>
        <mxCell id="hc69DyIE2OQv7nk9ciK2-261" style="edgeStyle=none;rounded=0;orthogonalLoop=1;jettySize=auto;html=1;exitX=0.5;exitY=1;exitDx=0;exitDy=0;exitPerimeter=0;entryX=0.38;entryY=0.007;entryDx=0;entryDy=0;entryPerimeter=0;fontSize=20;" edge="1" parent="1">
          <mxGeometry relative="1" as="geometry">
            <mxPoint x="647" y="897.0000000000005" as="sourcePoint" />
            <mxPoint x="647" y="932.4199999999996" as="targetPoint" />
          </mxGeometry>
        </mxCell>
        <mxCell id="hc69DyIE2OQv7nk9ciK2-262" style="edgeStyle=none;rounded=0;orthogonalLoop=1;jettySize=auto;html=1;exitX=0.5;exitY=1;exitDx=0;exitDy=0;exitPerimeter=0;entryX=0.456;entryY=0.005;entryDx=0;entryDy=0;entryPerimeter=0;fontSize=20;" edge="1" parent="1">
          <mxGeometry relative="1" as="geometry">
            <mxPoint x="677" y="897.0000000000005" as="sourcePoint" />
            <mxPoint x="677.4000000000005" y="932.3000000000006" as="targetPoint" />
          </mxGeometry>
        </mxCell>
        <mxCell id="hc69DyIE2OQv7nk9ciK2-263" style="edgeStyle=none;rounded=0;orthogonalLoop=1;jettySize=auto;html=1;exitX=0.5;exitY=1;exitDx=0;exitDy=0;exitPerimeter=0;entryX=0.531;entryY=-0.005;entryDx=0;entryDy=0;entryPerimeter=0;fontSize=20;" edge="1" parent="1">
          <mxGeometry relative="1" as="geometry">
            <mxPoint x="707" y="897.0000000000005" as="sourcePoint" />
            <mxPoint x="707.4000000000005" y="931.6999999999998" as="targetPoint" />
          </mxGeometry>
        </mxCell>
        <mxCell id="hc69DyIE2OQv7nk9ciK2-264" style="edgeStyle=none;rounded=0;orthogonalLoop=1;jettySize=auto;html=1;exitX=0.5;exitY=1;exitDx=0;exitDy=0;exitPerimeter=0;entryX=0.605;entryY=-0.001;entryDx=0;entryDy=0;entryPerimeter=0;fontSize=20;" edge="1" parent="1">
          <mxGeometry relative="1" as="geometry">
            <mxPoint x="737" y="897.0000000000005" as="sourcePoint" />
            <mxPoint x="737" y="931.94" as="targetPoint" />
          </mxGeometry>
        </mxCell>
        <mxCell id="hc69DyIE2OQv7nk9ciK2-265" style="edgeStyle=none;rounded=0;orthogonalLoop=1;jettySize=auto;html=1;exitX=0.5;exitY=1;exitDx=0;exitDy=0;exitPerimeter=0;entryX=0.681;entryY=-0.009;entryDx=0;entryDy=0;entryPerimeter=0;fontSize=20;" edge="1" parent="1">
          <mxGeometry relative="1" as="geometry">
            <mxPoint x="767" y="897.0000000000005" as="sourcePoint" />
            <mxPoint x="767.4000000000005" y="931.46" as="targetPoint" />
          </mxGeometry>
        </mxCell>
        <mxCell id="hc69DyIE2OQv7nk9ciK2-266" style="edgeStyle=none;rounded=0;orthogonalLoop=1;jettySize=auto;html=1;exitX=0.5;exitY=1;exitDx=0;exitDy=0;exitPerimeter=0;entryX=0.755;entryY=-0.001;entryDx=0;entryDy=0;entryPerimeter=0;fontSize=20;" edge="1" parent="1">
          <mxGeometry relative="1" as="geometry">
            <mxPoint x="797" y="897.0000000000005" as="sourcePoint" />
            <mxPoint x="797" y="931.94" as="targetPoint" />
          </mxGeometry>
        </mxCell>
        <mxCell id="hc69DyIE2OQv7nk9ciK2-267" value="" style="verticalLabelPosition=bottom;verticalAlign=top;html=1;shape=mxgraph.basic.patternFillRect;fillStyle=auto;step=5;fillStrokeWidth=0.2;fillStrokeColor=#dddddd;gradientDirection=north;strokeColor=none;shadow=0;sketch=0;fillColor=#4460B3;" vertex="1" parent="1">
          <mxGeometry x="572.22" y="932" width="30" height="30" as="geometry" />
        </mxCell>
        <mxCell id="hc69DyIE2OQv7nk9ciK2-268" value="" style="verticalLabelPosition=bottom;verticalAlign=top;html=1;shape=mxgraph.basic.patternFillRect;fillStyle=auto;step=5;fillStrokeWidth=0.2;fillStrokeColor=#dddddd;gradientDirection=north;strokeColor=none;shadow=0;sketch=0;fillColor=#4460B3;" vertex="1" parent="1">
          <mxGeometry x="692.22" y="932" width="30" height="30" as="geometry" />
        </mxCell>
        <mxCell id="hc69DyIE2OQv7nk9ciK2-269" value="" style="verticalLabelPosition=bottom;verticalAlign=top;html=1;shape=mxgraph.basic.patternFillRect;fillStyle=auto;step=5;fillStrokeWidth=0.2;fillStrokeColor=#dddddd;gradientDirection=north;strokeColor=none;shadow=0;sketch=0;fillColor=#4460B3;" vertex="1" parent="1">
          <mxGeometry x="602.22" y="932" width="30" height="30" as="geometry" />
        </mxCell>
        <mxCell id="hc69DyIE2OQv7nk9ciK2-270" value="" style="verticalLabelPosition=bottom;verticalAlign=top;html=1;shape=mxgraph.basic.patternFillRect;fillStyle=auto;step=5;fillStrokeWidth=0.2;fillStrokeColor=#dddddd;gradientDirection=north;strokeColor=none;shadow=0;sketch=0;fillColor=#4460B3;" vertex="1" parent="1">
          <mxGeometry x="722.22" y="932" width="30" height="30" as="geometry" />
        </mxCell>
        <mxCell id="hc69DyIE2OQv7nk9ciK2-271" value="" style="verticalLabelPosition=bottom;verticalAlign=top;html=1;shape=mxgraph.basic.patternFillRect;fillStyle=auto;step=5;fillStrokeWidth=0.2;fillStrokeColor=#dddddd;gradientDirection=north;strokeColor=none;shadow=0;sketch=0;fillColor=#4460B3;" vertex="1" parent="1">
          <mxGeometry x="632.22" y="932" width="30" height="30" as="geometry" />
        </mxCell>
        <mxCell id="hc69DyIE2OQv7nk9ciK2-272" value="" style="verticalLabelPosition=bottom;verticalAlign=top;html=1;shape=mxgraph.basic.patternFillRect;fillStyle=auto;step=5;fillStrokeWidth=0.2;fillStrokeColor=#dddddd;gradientDirection=north;strokeColor=none;shadow=0;sketch=0;fillColor=#4460B3;" vertex="1" parent="1">
          <mxGeometry x="752.22" y="932" width="30" height="30" as="geometry" />
        </mxCell>
        <mxCell id="hc69DyIE2OQv7nk9ciK2-273" value="" style="verticalLabelPosition=bottom;verticalAlign=top;html=1;shape=mxgraph.basic.patternFillRect;fillStyle=auto;step=5;fillStrokeWidth=0.2;fillStrokeColor=#dddddd;gradientDirection=north;strokeColor=none;shadow=0;sketch=0;fillColor=#4460B3;" vertex="1" parent="1">
          <mxGeometry x="662.22" y="932" width="30" height="30" as="geometry" />
        </mxCell>
        <mxCell id="hc69DyIE2OQv7nk9ciK2-274" value="" style="verticalLabelPosition=bottom;verticalAlign=top;html=1;shape=mxgraph.basic.patternFillRect;fillStyle=auto;step=5;fillStrokeWidth=0.2;fillStrokeColor=#dddddd;gradientDirection=north;strokeColor=none;shadow=0;sketch=0;fillColor=#4460B3;" vertex="1" parent="1">
          <mxGeometry x="782.22" y="932" width="30" height="30" as="geometry" />
        </mxCell>
        <mxCell id="hc69DyIE2OQv7nk9ciK2-275" value="" style="verticalLabelPosition=bottom;verticalAlign=top;html=1;shape=mxgraph.basic.patternFillRect;fillStyle=auto;step=5;fillStrokeWidth=0.2;fillStrokeColor=#dddddd;gradientDirection=north;shadow=0;sketch=0;fillColor=#A2D2E2;strokeColor=none;" vertex="1" parent="1">
          <mxGeometry x="1080.0000000000002" y="976" width="30" height="30" as="geometry" />
        </mxCell>
        <mxCell id="hc69DyIE2OQv7nk9ciK2-276" value="" style="verticalLabelPosition=bottom;verticalAlign=top;html=1;shape=mxgraph.basic.patternFillRect;fillStyle=auto;step=5;fillStrokeWidth=0.2;fillStrokeColor=#dddddd;gradientDirection=north;strokeColor=none;shadow=0;sketch=0;fillColor=#4460B3;" vertex="1" parent="1">
          <mxGeometry x="542.22" y="932" width="30" height="30" as="geometry" />
        </mxCell>
        <mxCell id="hc69DyIE2OQv7nk9ciK2-277" value="" style="verticalLabelPosition=bottom;verticalAlign=top;html=1;shape=mxgraph.basic.patternFillRect;fillStyle=auto;step=5;fillStrokeWidth=0.2;fillStrokeColor=#dddddd;gradientDirection=north;strokeColor=none;shadow=0;sketch=0;fillColor=#4460B3;" vertex="1" parent="1">
          <mxGeometry x="812.22" y="932" width="30" height="30" as="geometry" />
        </mxCell>
        <mxCell id="hc69DyIE2OQv7nk9ciK2-278" value="" style="verticalLabelPosition=bottom;verticalAlign=top;html=1;shape=mxgraph.basic.patternFillRect;fillStyle=auto;step=5;fillStrokeWidth=0.2;fillStrokeColor=#dddddd;gradientDirection=north;shadow=0;sketch=0;fillColor=#A2D2E2;strokeColor=none;" vertex="1" parent="1">
          <mxGeometry x="1110.0000000000002" y="976" width="30" height="30" as="geometry" />
        </mxCell>
        <mxCell id="hc69DyIE2OQv7nk9ciK2-279" value="" style="verticalLabelPosition=bottom;verticalAlign=top;html=1;shape=mxgraph.basic.patternFillRect;fillStyle=auto;step=5;fillStrokeWidth=0.2;fillStrokeColor=#dddddd;gradientDirection=north;shadow=0;sketch=0;fillColor=#A2D2E2;strokeColor=none;" vertex="1" parent="1">
          <mxGeometry x="1230.0000000000002" y="976" width="30" height="30" as="geometry" />
        </mxCell>
        <mxCell id="hc69DyIE2OQv7nk9ciK2-280" value="" style="verticalLabelPosition=bottom;verticalAlign=top;html=1;shape=mxgraph.basic.patternFillRect;fillStyle=auto;step=5;fillStrokeWidth=0.2;fillStrokeColor=#dddddd;gradientDirection=north;shadow=0;sketch=0;fillColor=#A2D2E2;strokeColor=none;" vertex="1" parent="1">
          <mxGeometry x="1140.0000000000002" y="976" width="30" height="30" as="geometry" />
        </mxCell>
        <mxCell id="hc69DyIE2OQv7nk9ciK2-281" value="" style="verticalLabelPosition=bottom;verticalAlign=top;html=1;shape=mxgraph.basic.patternFillRect;fillStyle=auto;step=5;fillStrokeWidth=0.2;fillStrokeColor=#dddddd;gradientDirection=north;shadow=0;sketch=0;fillColor=#A2D2E2;strokeColor=none;" vertex="1" parent="1">
          <mxGeometry x="1260.0000000000002" y="976" width="30" height="30" as="geometry" />
        </mxCell>
        <mxCell id="hc69DyIE2OQv7nk9ciK2-282" value="" style="verticalLabelPosition=bottom;verticalAlign=top;html=1;shape=mxgraph.basic.patternFillRect;fillStyle=auto;step=5;fillStrokeWidth=0.2;fillStrokeColor=#dddddd;gradientDirection=north;shadow=0;sketch=0;fillColor=#A2D2E2;strokeColor=none;" vertex="1" parent="1">
          <mxGeometry x="1170.0000000000002" y="976" width="30" height="30" as="geometry" />
        </mxCell>
        <mxCell id="hc69DyIE2OQv7nk9ciK2-283" value="" style="verticalLabelPosition=bottom;verticalAlign=top;html=1;shape=mxgraph.basic.patternFillRect;fillStyle=auto;step=5;fillStrokeWidth=0.2;fillStrokeColor=#dddddd;gradientDirection=north;shadow=0;sketch=0;fillColor=#A2D2E2;strokeColor=none;" vertex="1" parent="1">
          <mxGeometry x="1290.0000000000002" y="976" width="30" height="30" as="geometry" />
        </mxCell>
        <mxCell id="hc69DyIE2OQv7nk9ciK2-284" value="" style="verticalLabelPosition=bottom;verticalAlign=top;html=1;shape=mxgraph.basic.patternFillRect;fillStyle=auto;step=5;fillStrokeWidth=0.2;fillStrokeColor=#dddddd;gradientDirection=north;shadow=0;sketch=0;fillColor=#A2D2E2;strokeColor=none;" vertex="1" parent="1">
          <mxGeometry x="1200.0000000000002" y="976" width="30" height="30" as="geometry" />
        </mxCell>
        <mxCell id="hc69DyIE2OQv7nk9ciK2-285" value="" style="verticalLabelPosition=bottom;verticalAlign=top;html=1;shape=mxgraph.basic.patternFillRect;fillStyle=auto;step=5;fillStrokeWidth=0.2;fillStrokeColor=#dddddd;gradientDirection=north;shadow=0;sketch=0;fillColor=#A2D2E2;strokeColor=none;" vertex="1" parent="1">
          <mxGeometry x="1320.0000000000002" y="976" width="30" height="30" as="geometry" />
        </mxCell>
        <mxCell id="hc69DyIE2OQv7nk9ciK2-286" value="" style="verticalLabelPosition=bottom;verticalAlign=top;html=1;shape=mxgraph.basic.patternFillRect;fillStyle=auto;step=5;fillStrokeWidth=0.2;fillStrokeColor=#dddddd;gradientDirection=north;shadow=0;sketch=0;fillColor=#A2D2E2;strokeColor=none;" vertex="1" parent="1">
          <mxGeometry x="1350.0000000000002" y="976" width="30" height="30" as="geometry" />
        </mxCell>
        <mxCell id="hc69DyIE2OQv7nk9ciK2-287" value="" style="verticalLabelPosition=bottom;verticalAlign=top;html=1;shape=mxgraph.basic.patternFillRect;fillStyle=auto;step=5;fillStrokeWidth=0.2;fillStrokeColor=#dddddd;gradientDirection=north;strokeColor=none;shadow=0;sketch=0;fillColor=#4460B3;" vertex="1" parent="1">
          <mxGeometry x="612.5511111111111" y="1082.1" width="35.33333333333334" height="30" as="geometry" />
        </mxCell>
        <mxCell id="hc69DyIE2OQv7nk9ciK2-288" value="" style="verticalLabelPosition=bottom;verticalAlign=top;html=1;shape=mxgraph.basic.patternFillRect;fillStyle=auto;step=5;fillStrokeWidth=0.2;fillStrokeColor=#dddddd;gradientDirection=north;strokeColor=none;shadow=0;sketch=0;fillColor=#4460B3;" vertex="1" parent="1">
          <mxGeometry x="612.5511111111111" y="1052.1" width="35.33333333333334" height="30" as="geometry" />
        </mxCell>
        <mxCell id="hc69DyIE2OQv7nk9ciK2-289" value="" style="endArrow=classic;html=1;rounded=0;" edge="1" parent="1">
          <mxGeometry width="50" height="50" relative="1" as="geometry">
            <mxPoint x="800" y="1093.73" as="sourcePoint" />
            <mxPoint x="860" y="1093.73" as="targetPoint" />
          </mxGeometry>
        </mxCell>
        <mxCell id="hc69DyIE2OQv7nk9ciK2-290" value="" style="endArrow=classic;html=1;rounded=0;" edge="1" parent="1">
          <mxGeometry width="50" height="50" relative="1" as="geometry">
            <mxPoint x="1020" y="1095" as="sourcePoint" />
            <mxPoint x="1080" y="1096" as="targetPoint" />
          </mxGeometry>
        </mxCell>
        <mxCell id="hc69DyIE2OQv7nk9ciK2-291" value="LA" style="whiteSpace=wrap;html=1;aspect=fixed;strokeWidth=1;" vertex="1" parent="1">
          <mxGeometry x="1083.0000000000002" y="1083" width="26" height="26" as="geometry" />
        </mxCell>
        <mxCell id="hc69DyIE2OQv7nk9ciK2-292" value="" style="endArrow=classic;html=1;rounded=0;entryX=-0.003;entryY=0.151;entryDx=0;entryDy=0;entryPerimeter=0;" edge="1" parent="1">
          <mxGeometry width="50" height="50" relative="1" as="geometry">
            <mxPoint x="1111" y="1096.7300000000005" as="sourcePoint" />
            <mxPoint x="1440.5200000000004" y="1097.8199999999997" as="targetPoint" />
          </mxGeometry>
        </mxCell>
        <mxCell id="hc69DyIE2OQv7nk9ciK2-293" value="" style="endArrow=classicThin;html=1;rounded=0;fontSize=20;endFill=1;entryX=0.5;entryY=0;entryDx=0;entryDy=0;fillColor=#f5f5f5;strokeColor=#666666;" edge="1" parent="1" target="hc69DyIE2OQv7nk9ciK2-294">
          <mxGeometry width="50" height="50" relative="1" as="geometry">
            <mxPoint x="1366" y="1007" as="sourcePoint" />
            <mxPoint x="1366.4400000000003" y="1337.0229100000001" as="targetPoint" />
          </mxGeometry>
        </mxCell>
        <mxCell id="hc69DyIE2OQv7nk9ciK2-294" value="LA" style="whiteSpace=wrap;html=1;aspect=fixed;strokeWidth=1;" vertex="1" parent="1">
          <mxGeometry x="1353.0000000000002" y="1354.1" width="26" height="26" as="geometry" />
        </mxCell>
        <mxCell id="hc69DyIE2OQv7nk9ciK2-295" value="" style="endArrow=classic;html=1;rounded=0;entryX=0;entryY=0.5;entryDx=0;entryDy=0;" edge="1" parent="1" target="hc69DyIE2OQv7nk9ciK2-294">
          <mxGeometry width="50" height="50" relative="1" as="geometry">
            <mxPoint x="1020" y="1365.7299999999996" as="sourcePoint" />
            <mxPoint x="1322.0000000000002" y="1367.0999999999995" as="targetPoint" />
          </mxGeometry>
        </mxCell>
        <mxCell id="hc69DyIE2OQv7nk9ciK2-296" value="" style="endArrow=classic;html=1;rounded=0;entryX=0;entryY=0.5;entryDx=0;entryDy=0;" edge="1" parent="1">
          <mxGeometry width="50" height="50" relative="1" as="geometry">
            <mxPoint x="1379.000000000001" y="1367" as="sourcePoint" />
            <mxPoint x="1440.999999999999" y="1367.1000000000004" as="targetPoint" />
          </mxGeometry>
        </mxCell>
        <mxCell id="hc69DyIE2OQv7nk9ciK2-297" value="" style="endArrow=classicThin;html=1;rounded=0;fontSize=20;endFill=1;entryX=0.5;entryY=0;entryDx=0;entryDy=0;fillColor=#f5f5f5;strokeColor=#666666;" edge="1" parent="1" target="hc69DyIE2OQv7nk9ciK2-291">
          <mxGeometry width="50" height="50" relative="1" as="geometry">
            <mxPoint x="1096" y="1007" as="sourcePoint" />
            <mxPoint x="1095.7900000000002" y="1106.6" as="targetPoint" />
          </mxGeometry>
        </mxCell>
        <mxCell id="hc69DyIE2OQv7nk9ciK2-298" value="" style="verticalLabelPosition=bottom;verticalAlign=top;html=1;shape=mxgraph.basic.patternFillRect;fillStyle=auto;step=5;fillStrokeWidth=0.2;fillStrokeColor=#dddddd;gradientDirection=north;shadow=0;sketch=0;fillColor=#A2D2E2;strokeColor=none;" vertex="1" parent="1">
          <mxGeometry x="1080.0000000000002" y="925" width="30" height="30" as="geometry" />
        </mxCell>
        <mxCell id="hc69DyIE2OQv7nk9ciK2-299" value="" style="verticalLabelPosition=bottom;verticalAlign=top;html=1;shape=mxgraph.basic.patternFillRect;fillStyle=auto;step=5;fillStrokeWidth=0.2;fillStrokeColor=#dddddd;gradientDirection=north;shadow=0;sketch=0;fillColor=#A2D2E2;strokeColor=none;" vertex="1" parent="1">
          <mxGeometry x="1110.0000000000002" y="925" width="30" height="30" as="geometry" />
        </mxCell>
        <mxCell id="hc69DyIE2OQv7nk9ciK2-300" value="" style="verticalLabelPosition=bottom;verticalAlign=top;html=1;shape=mxgraph.basic.patternFillRect;fillStyle=auto;step=5;fillStrokeWidth=0.2;fillStrokeColor=#dddddd;gradientDirection=north;shadow=0;sketch=0;fillColor=#A2D2E2;strokeColor=none;" vertex="1" parent="1">
          <mxGeometry x="1230.0000000000002" y="925" width="30" height="30" as="geometry" />
        </mxCell>
        <mxCell id="hc69DyIE2OQv7nk9ciK2-301" value="" style="verticalLabelPosition=bottom;verticalAlign=top;html=1;shape=mxgraph.basic.patternFillRect;fillStyle=auto;step=5;fillStrokeWidth=0.2;fillStrokeColor=#dddddd;gradientDirection=north;shadow=0;sketch=0;fillColor=#A2D2E2;strokeColor=none;" vertex="1" parent="1">
          <mxGeometry x="1140.0000000000002" y="925" width="30" height="30" as="geometry" />
        </mxCell>
        <mxCell id="hc69DyIE2OQv7nk9ciK2-302" value="" style="verticalLabelPosition=bottom;verticalAlign=top;html=1;shape=mxgraph.basic.patternFillRect;fillStyle=auto;step=5;fillStrokeWidth=0.2;fillStrokeColor=#dddddd;gradientDirection=north;shadow=0;sketch=0;fillColor=#A2D2E2;strokeColor=none;" vertex="1" parent="1">
          <mxGeometry x="1260.0000000000002" y="925" width="30" height="30" as="geometry" />
        </mxCell>
        <mxCell id="hc69DyIE2OQv7nk9ciK2-303" value="" style="verticalLabelPosition=bottom;verticalAlign=top;html=1;shape=mxgraph.basic.patternFillRect;fillStyle=auto;step=5;fillStrokeWidth=0.2;fillStrokeColor=#dddddd;gradientDirection=north;shadow=0;sketch=0;fillColor=#A2D2E2;strokeColor=none;" vertex="1" parent="1">
          <mxGeometry x="1170.0000000000002" y="925" width="30" height="30" as="geometry" />
        </mxCell>
        <mxCell id="hc69DyIE2OQv7nk9ciK2-304" value="" style="verticalLabelPosition=bottom;verticalAlign=top;html=1;shape=mxgraph.basic.patternFillRect;fillStyle=auto;step=5;fillStrokeWidth=0.2;fillStrokeColor=#dddddd;gradientDirection=north;shadow=0;sketch=0;fillColor=#A2D2E2;strokeColor=none;" vertex="1" parent="1">
          <mxGeometry x="1290.0000000000002" y="925" width="30" height="30" as="geometry" />
        </mxCell>
        <mxCell id="hc69DyIE2OQv7nk9ciK2-305" value="" style="verticalLabelPosition=bottom;verticalAlign=top;html=1;shape=mxgraph.basic.patternFillRect;fillStyle=auto;step=5;fillStrokeWidth=0.2;fillStrokeColor=#dddddd;gradientDirection=north;shadow=0;sketch=0;fillColor=#A2D2E2;strokeColor=none;" vertex="1" parent="1">
          <mxGeometry x="1200.0000000000002" y="925" width="30" height="30" as="geometry" />
        </mxCell>
        <mxCell id="hc69DyIE2OQv7nk9ciK2-306" value="" style="verticalLabelPosition=bottom;verticalAlign=top;html=1;shape=mxgraph.basic.patternFillRect;fillStyle=auto;step=5;fillStrokeWidth=0.2;fillStrokeColor=#dddddd;gradientDirection=north;shadow=0;sketch=0;fillColor=#A2D2E2;strokeColor=none;" vertex="1" parent="1">
          <mxGeometry x="1320.0000000000002" y="925" width="30" height="30" as="geometry" />
        </mxCell>
        <mxCell id="hc69DyIE2OQv7nk9ciK2-307" value="" style="verticalLabelPosition=bottom;verticalAlign=top;html=1;shape=mxgraph.basic.patternFillRect;fillStyle=auto;step=5;fillStrokeWidth=0.2;fillStrokeColor=#dddddd;gradientDirection=north;shadow=0;sketch=0;fillColor=#A2D2E2;strokeColor=none;" vertex="1" parent="1">
          <mxGeometry x="1350.0000000000002" y="925" width="30" height="30" as="geometry" />
        </mxCell>
        <mxCell id="hc69DyIE2OQv7nk9ciK2-308" value="......" style="text;html=1;resizable=0;autosize=1;align=center;verticalAlign=middle;points=[];fillColor=none;rounded=0;dashed=1;fontFamily=Times New Roman;fontSize=33;" vertex="1" parent="1">
          <mxGeometry x="1182.57" y="930" width="60" height="50" as="geometry" />
        </mxCell>
        <mxCell id="hc69DyIE2OQv7nk9ciK2-309" style="rounded=0;orthogonalLoop=1;jettySize=auto;html=1;exitX=0.5;exitY=1;exitDx=0;exitDy=0;exitPerimeter=0;fontSize=20;" edge="1" parent="1">
          <mxGeometry relative="1" as="geometry">
            <mxPoint x="1094" y="924.0000000000005" as="targetPoint" />
            <mxPoint x="1094" y="890" as="sourcePoint" />
          </mxGeometry>
        </mxCell>
        <mxCell id="hc69DyIE2OQv7nk9ciK2-310" style="rounded=0;orthogonalLoop=1;jettySize=auto;html=1;exitX=0.5;exitY=1;exitDx=0;exitDy=0;exitPerimeter=0;fontSize=20;" edge="1" parent="1">
          <mxGeometry relative="1" as="geometry">
            <mxPoint x="1364.999999999999" y="924.0000000000005" as="targetPoint" />
            <mxPoint x="1364.999999999999" y="890" as="sourcePoint" />
          </mxGeometry>
        </mxCell>
        <mxCell id="hc69DyIE2OQv7nk9ciK2-311" style="rounded=0;orthogonalLoop=1;jettySize=auto;html=1;exitX=0.5;exitY=1;exitDx=0;exitDy=0;exitPerimeter=0;fontSize=20;" edge="1" parent="1">
          <mxGeometry relative="1" as="geometry">
            <mxPoint x="558" y="931.0000000000005" as="targetPoint" />
            <mxPoint x="558" y="897.0000000000005" as="sourcePoint" />
          </mxGeometry>
        </mxCell>
        <mxCell id="hc69DyIE2OQv7nk9ciK2-312" style="edgeStyle=none;rounded=0;orthogonalLoop=1;jettySize=auto;html=1;exitX=0.5;exitY=1;exitDx=0;exitDy=0;exitPerimeter=0;entryX=0.755;entryY=-0.001;entryDx=0;entryDy=0;entryPerimeter=0;fontSize=20;" edge="1" parent="1">
          <mxGeometry relative="1" as="geometry">
            <mxPoint x="827" y="897.0000000000005" as="sourcePoint" />
            <mxPoint x="827" y="931.94" as="targetPoint" />
          </mxGeometry>
        </mxCell>
        <mxCell id="hc69DyIE2OQv7nk9ciK2-313" value="" style="verticalLabelPosition=bottom;verticalAlign=top;html=1;shape=mxgraph.basic.patternFillRect;fillStyle=auto;step=5;fillStrokeWidth=0.2;fillStrokeColor=#dddddd;gradientDirection=north;strokeColor=none;shadow=0;sketch=0;fillColor=#4460B3;" vertex="1" parent="1">
          <mxGeometry x="842.22" y="932" width="30" height="30" as="geometry" />
        </mxCell>
        <mxCell id="hc69DyIE2OQv7nk9ciK2-314" style="edgeStyle=none;rounded=0;orthogonalLoop=1;jettySize=auto;html=1;exitX=0.5;exitY=1;exitDx=0;exitDy=0;exitPerimeter=0;entryX=0.755;entryY=-0.001;entryDx=0;entryDy=0;entryPerimeter=0;fontSize=20;" edge="1" parent="1">
          <mxGeometry relative="1" as="geometry">
            <mxPoint x="857" y="897.0000000000005" as="sourcePoint" />
            <mxPoint x="857" y="931.94" as="targetPoint" />
          </mxGeometry>
        </mxCell>
        <mxCell id="hc69DyIE2OQv7nk9ciK2-315" value="" style="verticalLabelPosition=bottom;verticalAlign=top;html=1;shape=mxgraph.basic.patternFillRect;fillStyle=auto;step=5;fillStrokeWidth=0.2;fillStrokeColor=#dddddd;gradientDirection=north;strokeColor=none;shadow=0;sketch=0;fillColor=#4460B3;" vertex="1" parent="1">
          <mxGeometry x="612.5511111111111" y="1352.1" width="35.33333333333334" height="30" as="geometry" />
        </mxCell>
        <mxCell id="hc69DyIE2OQv7nk9ciK2-316" value="" style="endArrow=classic;html=1;rounded=0;" edge="1" parent="1">
          <mxGeometry width="50" height="50" relative="1" as="geometry">
            <mxPoint x="801" y="1066.73" as="sourcePoint" />
            <mxPoint x="861" y="1066.73" as="targetPoint" />
          </mxGeometry>
        </mxCell>
        <mxCell id="hc69DyIE2OQv7nk9ciK2-317" value="" style="endArrow=classic;html=1;rounded=0;" edge="1" parent="1">
          <mxGeometry width="50" height="50" relative="1" as="geometry">
            <mxPoint x="800" y="1366.6500000000005" as="sourcePoint" />
            <mxPoint x="860" y="1366.6500000000005" as="targetPoint" />
          </mxGeometry>
        </mxCell>
        <mxCell id="hc69DyIE2OQv7nk9ciK2-318" value="" style="verticalLabelPosition=bottom;verticalAlign=top;html=1;shape=mxgraph.basic.patternFillRect;fillStyle=auto;step=5;fillStrokeWidth=0.2;fillStrokeColor=#dddddd;gradientDirection=north;shadow=0;sketch=0;fillColor=#A2D2E2;strokeColor=none;" vertex="1" parent="1">
          <mxGeometry x="1050" y="976" width="30" height="30" as="geometry" />
        </mxCell>
        <mxCell id="hc69DyIE2OQv7nk9ciK2-319" value="" style="verticalLabelPosition=bottom;verticalAlign=top;html=1;shape=mxgraph.basic.patternFillRect;fillStyle=auto;step=5;fillStrokeWidth=0.2;fillStrokeColor=#dddddd;gradientDirection=north;shadow=0;sketch=0;fillColor=#A2D2E2;strokeColor=none;" vertex="1" parent="1">
          <mxGeometry x="1050" y="925" width="30" height="30" as="geometry" />
        </mxCell>
        <mxCell id="hc69DyIE2OQv7nk9ciK2-320" style="rounded=0;orthogonalLoop=1;jettySize=auto;html=1;exitX=0.5;exitY=1;exitDx=0;exitDy=0;exitPerimeter=0;fontSize=20;" edge="1" parent="1">
          <mxGeometry relative="1" as="geometry">
            <mxPoint x="1066.000000000001" y="924.0000000000005" as="targetPoint" />
            <mxPoint x="1066.000000000001" y="890" as="sourcePoint" />
          </mxGeometry>
        </mxCell>
        <mxCell id="hc69DyIE2OQv7nk9ciK2-321" value="" style="endArrow=classicThin;html=1;rounded=0;fontSize=20;endFill=1;entryX=0.5;entryY=0;entryDx=0;entryDy=0;fillColor=#f5f5f5;strokeColor=#666666;" edge="1" parent="1" target="hc69DyIE2OQv7nk9ciK2-322">
          <mxGeometry width="50" height="50" relative="1" as="geometry">
            <mxPoint x="1066" y="1007" as="sourcePoint" />
            <mxPoint x="1065.0000000000002" y="1076" as="targetPoint" />
          </mxGeometry>
        </mxCell>
        <mxCell id="hc69DyIE2OQv7nk9ciK2-322" value="LA" style="whiteSpace=wrap;html=1;aspect=fixed;strokeWidth=1;" vertex="1" parent="1">
          <mxGeometry x="1053" y="1052" width="26" height="26" as="geometry" />
        </mxCell>
        <mxCell id="hc69DyIE2OQv7nk9ciK2-323" value="" style="endArrow=classic;html=1;rounded=0;exitX=1;exitY=0.053;exitDx=0;exitDy=0;exitPerimeter=0;" edge="1" parent="1">
          <mxGeometry width="50" height="50" relative="1" as="geometry">
            <mxPoint x="1021.7100000000019" y="1066.6100000000001" as="sourcePoint" />
            <mxPoint x="1052" y="1067" as="targetPoint" />
          </mxGeometry>
        </mxCell>
        <mxCell id="hc69DyIE2OQv7nk9ciK2-324" value="" style="endArrow=classic;html=1;rounded=0;entryX=-0.011;entryY=0.081;entryDx=0;entryDy=0;entryPerimeter=0;" edge="1" parent="1" target="hc69DyIE2OQv7nk9ciK2-210">
          <mxGeometry width="50" height="50" relative="1" as="geometry">
            <mxPoint x="1079" y="1066.7300000000005" as="sourcePoint" />
            <mxPoint x="1408.5200000000002" y="1067.8199999999997" as="targetPoint" />
          </mxGeometry>
        </mxCell>
        <mxCell id="hc69DyIE2OQv7nk9ciK2-325" value="&lt;font style=&quot;font-size: 35px;&quot;&gt;&lt;b&gt;Chinese generic features&lt;/b&gt;&lt;b style=&quot;background-color: initial;&quot;&gt;&amp;nbsp;&lt;/b&gt;&lt;/font&gt;&lt;b style=&quot;font-size: 35px; background-color: initial;&quot;&gt;and lexicon enhanced&lt;/b&gt;&lt;b style=&quot;font-size: 35px; background-color: initial; line-height: 1.1;&quot;&gt;&amp;nbsp;encoder&lt;/b&gt;&lt;b&gt;&lt;br&gt;&lt;/b&gt;" style="text;html=1;resizable=0;autosize=1;align=center;verticalAlign=middle;points=[];fillColor=none;strokeColor=none;rounded=0;shadow=0;sketch=0;fillStyle=auto;fontFamily=Times New Roman;fontSize=27;" vertex="1" parent="1">
          <mxGeometry x="307.91021171704836" y="718" width="850" height="60" as="geometry" />
        </mxCell>
        <mxCell id="hc69DyIE2OQv7nk9ciK2-326" value="" style="group;fillColor=none;" vertex="1" connectable="0" parent="1">
          <mxGeometry x="1480.0000000000002" y="809.9999999999999" width="377.9999999999998" height="734" as="geometry" />
        </mxCell>
        <mxCell id="hc69DyIE2OQv7nk9ciK2-327" value="" style="rounded=0;whiteSpace=wrap;html=1;dashed=1;fontFamily=Times New Roman;fontSize=30;strokeColor=none;strokeWidth=5;fillColor=#f5f5f5;fontColor=#333333;" vertex="1" parent="hc69DyIE2OQv7nk9ciK2-326">
          <mxGeometry y="7" width="360" height="145" as="geometry" />
        </mxCell>
        <mxCell id="hc69DyIE2OQv7nk9ciK2-328" value="" style="verticalLabelPosition=bottom;verticalAlign=top;html=1;shape=mxgraph.basic.patternFillRect;fillStyle=auto;step=5;fillStrokeWidth=0.2;fillStrokeColor=#dddddd;gradientDirection=north;strokeColor=none;shadow=0;sketch=0;fillColor=#4460b3;" vertex="1" parent="hc69DyIE2OQv7nk9ciK2-326">
          <mxGeometry x="18.33111111111134" y="22" width="35.33333333333334" height="30" as="geometry" />
        </mxCell>
        <mxCell id="hc69DyIE2OQv7nk9ciK2-329" value="" style="verticalLabelPosition=bottom;verticalAlign=top;html=1;shape=mxgraph.basic.patternFillRect;fillStyle=auto;step=5;fillStrokeWidth=0.2;fillStrokeColor=#dddddd;gradientDirection=north;shadow=0;sketch=0;fillColor=#a2d2e2;strokeColor=none;" vertex="1" parent="hc69DyIE2OQv7nk9ciK2-326">
          <mxGeometry x="21.329999999999927" y="112" width="30" height="30" as="geometry" />
        </mxCell>
        <mxCell id="hc69DyIE2OQv7nk9ciK2-330" value="&lt;font style=&quot;font-size: 30px;&quot;&gt;Char fusion embedding&lt;/font&gt;" style="text;html=1;resizable=0;autosize=1;align=center;verticalAlign=middle;points=[];fillColor=none;strokeColor=none;rounded=0;dashed=1;fontFamily=Times New Roman;fontSize=33;" vertex="1" parent="hc69DyIE2OQv7nk9ciK2-326">
          <mxGeometry x="58" y="10" width="300" height="50" as="geometry" />
        </mxCell>
        <mxCell id="hc69DyIE2OQv7nk9ciK2-331" value="" style="verticalLabelPosition=bottom;verticalAlign=top;html=1;shape=mxgraph.basic.patternFillRect;fillStyle=auto;step=5;fillStrokeWidth=0.2;fillStrokeColor=#dddddd;gradientDirection=north;shadow=0;sketch=0;fillColor=#db7372;strokeColor=none;" vertex="1" parent="hc69DyIE2OQv7nk9ciK2-326">
          <mxGeometry x="18.662222222222226" y="67" width="35.33333333333334" height="30" as="geometry" />
        </mxCell>
        <mxCell id="hc69DyIE2OQv7nk9ciK2-332" value="&lt;font style=&quot;font-size: 30px;&quot;&gt;Position embedding&lt;/font&gt;" style="text;html=1;resizable=0;autosize=1;align=center;verticalAlign=middle;points=[];fillColor=none;strokeColor=none;rounded=0;dashed=1;fontFamily=Times New Roman;fontSize=33;" vertex="1" parent="hc69DyIE2OQv7nk9ciK2-326">
          <mxGeometry x="65" y="57" width="250" height="50" as="geometry" />
        </mxCell>
        <mxCell id="hc69DyIE2OQv7nk9ciK2-333" value="&lt;font style=&quot;font-size: 30px;&quot;&gt;Lexicon embedding&lt;/font&gt;" style="text;html=1;resizable=0;autosize=1;align=center;verticalAlign=middle;points=[];fillColor=none;strokeColor=none;rounded=0;dashed=1;fontFamily=Times New Roman;fontSize=33;" vertex="1" parent="hc69DyIE2OQv7nk9ciK2-326">
          <mxGeometry x="65" y="101" width="250" height="50" as="geometry" />
        </mxCell>
        <mxCell id="hc69DyIE2OQv7nk9ciK2-334" value="" style="verticalLabelPosition=bottom;verticalAlign=top;html=1;shape=mxgraph.basic.patternFillRect;fillStyle=hor;step=5;fillStrokeWidth=0.2;fillStrokeColor=#FFFFFF;shadow=0;sketch=0;fontFamily=Times New Roman;fontSize=27;strokeWidth=3;gradientDirection=north;fillColor=none;" vertex="1" parent="hc69DyIE2OQv7nk9ciK2-326">
          <mxGeometry x="198" y="227.0000000000001" width="160.00000000000003" height="370" as="geometry" />
        </mxCell>
        <mxCell id="hc69DyIE2OQv7nk9ciK2-335" value="&lt;b&gt;......&lt;/b&gt;" style="text;html=1;resizable=0;autosize=1;align=center;verticalAlign=middle;points=[];fillColor=none;rounded=0;dashed=1;fontFamily=Times New Roman;fontSize=33;" vertex="1" parent="hc69DyIE2OQv7nk9ciK2-326">
          <mxGeometry x="124.99999999999977" y="380.0000000000001" width="70" height="50" as="geometry" />
        </mxCell>
        <mxCell id="hc69DyIE2OQv7nk9ciK2-336" style="rounded=0;orthogonalLoop=1;jettySize=auto;html=1;exitX=0.5;exitY=1;exitDx=0;exitDy=0;exitPerimeter=0;fontSize=20;" edge="1" parent="1">
          <mxGeometry relative="1" as="geometry">
            <mxPoint x="862.4099999999999" y="717" as="targetPoint" />
            <mxPoint x="862.4099999999999" y="683" as="sourcePoint" />
          </mxGeometry>
        </mxCell>
        <mxCell id="hc69DyIE2OQv7nk9ciK2-337" style="edgeStyle=none;rounded=0;orthogonalLoop=1;jettySize=auto;html=1;exitX=0.5;exitY=1;exitDx=0;exitDy=0;exitPerimeter=0;fontSize=20;entryX=0.305;entryY=0.001;entryDx=0;entryDy=0;entryPerimeter=0;" edge="1" parent="1">
          <mxGeometry relative="1" as="geometry">
            <mxPoint x="929.4099999999999" y="718.0600000000004" as="targetPoint" />
            <mxPoint x="929.4099999999999" y="683" as="sourcePoint" />
          </mxGeometry>
        </mxCell>
        <mxCell id="hc69DyIE2OQv7nk9ciK2-338" style="edgeStyle=none;rounded=0;orthogonalLoop=1;jettySize=auto;html=1;exitX=0.5;exitY=1;exitDx=0;exitDy=0;exitPerimeter=0;entryX=0.38;entryY=0.007;entryDx=0;entryDy=0;entryPerimeter=0;fontSize=20;" edge="1" parent="1">
          <mxGeometry relative="1" as="geometry">
            <mxPoint x="993.4100000000026" y="718.4200000000001" as="targetPoint" />
            <mxPoint x="993.4100000000026" y="683" as="sourcePoint" />
          </mxGeometry>
        </mxCell>
        <mxCell id="hc69DyIE2OQv7nk9ciK2-339" style="edgeStyle=none;rounded=0;orthogonalLoop=1;jettySize=auto;html=1;exitX=0.5;exitY=1;exitDx=0;exitDy=0;exitPerimeter=0;entryX=0.456;entryY=0.005;entryDx=0;entryDy=0;entryPerimeter=0;fontSize=20;" edge="1" parent="1">
          <mxGeometry relative="1" as="geometry">
            <mxPoint x="1060.8100000000004" y="718.3000000000006" as="targetPoint" />
            <mxPoint x="1060.4100000000008" y="683" as="sourcePoint" />
          </mxGeometry>
        </mxCell>
        <mxCell id="hc69DyIE2OQv7nk9ciK2-340" style="edgeStyle=none;rounded=0;orthogonalLoop=1;jettySize=auto;html=1;exitX=0.5;exitY=1;exitDx=0;exitDy=0;exitPerimeter=0;entryX=0.531;entryY=-0.005;entryDx=0;entryDy=0;entryPerimeter=0;fontSize=20;" edge="1" parent="1">
          <mxGeometry relative="1" as="geometry">
            <mxPoint x="1126.8099999999995" y="716.7000000000007" as="targetPoint" />
            <mxPoint x="1126.4099999999999" y="682" as="sourcePoint" />
          </mxGeometry>
        </mxCell>
        <mxCell id="hc69DyIE2OQv7nk9ciK2-341" style="edgeStyle=none;rounded=0;orthogonalLoop=1;jettySize=auto;html=1;exitX=0.5;exitY=1;exitDx=0;exitDy=0;exitPerimeter=0;entryX=0.605;entryY=-0.001;entryDx=0;entryDy=0;entryPerimeter=0;fontSize=20;" edge="1" parent="1">
          <mxGeometry relative="1" as="geometry">
            <mxPoint x="1195.4100000000008" y="717.9400000000005" as="targetPoint" />
            <mxPoint x="1195.4100000000008" y="683" as="sourcePoint" />
          </mxGeometry>
        </mxCell>
        <mxCell id="hc69DyIE2OQv7nk9ciK2-342" style="edgeStyle=none;rounded=0;orthogonalLoop=1;jettySize=auto;html=1;exitX=0.5;exitY=1;exitDx=0;exitDy=0;exitPerimeter=0;entryX=0.681;entryY=-0.009;entryDx=0;entryDy=0;entryPerimeter=0;fontSize=20;" edge="1" parent="1">
          <mxGeometry relative="1" as="geometry">
            <mxPoint x="1260.590000000001" y="718.4500000000003" as="targetPoint" />
            <mxPoint x="1260.1900000000014" y="683.9900000000002" as="sourcePoint" />
          </mxGeometry>
        </mxCell>
        <mxCell id="hc69DyIE2OQv7nk9ciK2-343" style="edgeStyle=none;rounded=0;orthogonalLoop=1;jettySize=auto;html=1;exitX=0.5;exitY=1;exitDx=0;exitDy=0;exitPerimeter=0;entryX=0.755;entryY=-0.001;entryDx=0;entryDy=0;entryPerimeter=0;fontSize=20;" edge="1" parent="1">
          <mxGeometry relative="1" as="geometry">
            <mxPoint x="1327.1900000000005" y="719" as="targetPoint" />
            <mxPoint x="1327.1900000000005" y="684.0600000000009" as="sourcePoint" />
          </mxGeometry>
        </mxCell>
        <mxCell id="hc69DyIE2OQv7nk9ciK2-344" style="rounded=0;orthogonalLoop=1;jettySize=auto;html=1;exitX=0.5;exitY=1;exitDx=0;exitDy=0;exitPerimeter=0;fontSize=20;" edge="1" parent="1">
          <mxGeometry relative="1" as="geometry">
            <mxPoint x="794.1900000000005" y="718" as="targetPoint" />
            <mxPoint x="794.1900000000005" y="684" as="sourcePoint" />
          </mxGeometry>
        </mxCell>
        <mxCell id="hc69DyIE2OQv7nk9ciK2-345" style="rounded=0;orthogonalLoop=1;jettySize=auto;html=1;exitX=0.5;exitY=1;exitDx=0;exitDy=0;exitPerimeter=0;fontSize=20;" edge="1" parent="1">
          <mxGeometry relative="1" as="geometry">
            <mxPoint x="724.3000000000002" y="718" as="targetPoint" />
            <mxPoint x="724.3000000000002" y="684" as="sourcePoint" />
          </mxGeometry>
        </mxCell>
        <mxCell id="hc69DyIE2OQv7nk9ciK2-346" style="edgeStyle=none;rounded=0;orthogonalLoop=1;jettySize=auto;html=1;exitX=0.5;exitY=1;exitDx=0;exitDy=0;exitPerimeter=0;entryX=0.755;entryY=-0.001;entryDx=0;entryDy=0;entryPerimeter=0;fontSize=20;" edge="1" parent="1">
          <mxGeometry relative="1" as="geometry">
            <mxPoint x="1397.1899999999996" y="718" as="targetPoint" />
            <mxPoint x="1397.1899999999996" y="683.0600000000004" as="sourcePoint" />
          </mxGeometry>
        </mxCell>
        <mxCell id="hc69DyIE2OQv7nk9ciK2-347" value="&lt;span style=&quot;font-size: 30px;&quot;&gt;Input sequence&lt;/span&gt;" style="text;html=1;resizable=0;autosize=1;align=center;verticalAlign=middle;points=[];fillColor=none;strokeColor=none;rounded=0;shadow=0;sketch=0;fillStyle=auto;fontFamily=Times New Roman;fontSize=27;" vertex="1" parent="1">
          <mxGeometry x="955.9100000000001" y="601" width="200" height="50" as="geometry" />
        </mxCell>
        <mxCell id="hc69DyIE2OQv7nk9ciK2-348" value="" style="verticalLabelPosition=bottom;verticalAlign=top;html=1;shape=mxgraph.basic.patternFillRect;fillStyle=auto;step=5;fillStrokeWidth=0.2;fillStrokeColor=#dddddd;gradientDirection=north;strokeColor=none;shadow=0;sketch=0;fillColor=#eeeeee;strokeWidth=3;" vertex="1" parent="1">
          <mxGeometry x="700.96" y="653" width="47.22" height="47" as="geometry" />
        </mxCell>
        <mxCell id="hc69DyIE2OQv7nk9ciK2-349" value="&lt;font style=&quot;font-size: 20px;&quot;&gt;CLS&lt;/font&gt;" style="text;html=1;resizable=0;autosize=1;align=center;verticalAlign=middle;points=[];fillColor=none;strokeColor=none;rounded=0;dashed=1;fontFamily=Times New Roman;fontSize=11;strokeWidth=3;" vertex="1" parent="1">
          <mxGeometry x="698.96" y="666.5" width="50" height="20" as="geometry" />
        </mxCell>
        <mxCell id="hc69DyIE2OQv7nk9ciK2-350" value="" style="verticalLabelPosition=bottom;verticalAlign=top;html=1;shape=mxgraph.basic.patternFillRect;fillStyle=auto;step=5;fillStrokeWidth=0.2;fillStrokeColor=#dddddd;gradientDirection=north;strokeColor=none;shadow=0;sketch=0;fillColor=#eeeeee;strokeWidth=3;" vertex="1" parent="1">
          <mxGeometry x="770.21" y="653" width="47.22" height="47" as="geometry" />
        </mxCell>
        <mxCell id="hc69DyIE2OQv7nk9ciK2-351" value="" style="verticalLabelPosition=bottom;verticalAlign=top;html=1;shape=mxgraph.basic.patternFillRect;fillStyle=auto;step=5;fillStrokeWidth=0.2;fillStrokeColor=#dddddd;gradientDirection=north;strokeColor=none;shadow=0;sketch=0;fillColor=#eeeeee;strokeWidth=3;" vertex="1" parent="1">
          <mxGeometry x="838.24" y="653" width="47.22" height="47" as="geometry" />
        </mxCell>
        <mxCell id="hc69DyIE2OQv7nk9ciK2-352" value="&lt;font style=&quot;font-size: 20px;&quot;&gt;体&lt;/font&gt;" style="text;html=1;resizable=0;autosize=1;align=center;verticalAlign=middle;points=[];fillColor=none;strokeColor=none;rounded=0;dashed=1;fontFamily=Times New Roman;fontSize=11;strokeWidth=3;" vertex="1" parent="1">
          <mxGeometry x="771.95" y="666.5" width="40" height="20" as="geometry" />
        </mxCell>
        <mxCell id="hc69DyIE2OQv7nk9ciK2-353" value="&lt;font style=&quot;font-size: 20px;&quot;&gt;温&lt;/font&gt;" style="text;html=1;resizable=0;autosize=1;align=center;verticalAlign=middle;points=[];fillColor=none;strokeColor=none;rounded=0;dashed=1;fontFamily=Times New Roman;fontSize=11;strokeWidth=3;" vertex="1" parent="1">
          <mxGeometry x="841.85" y="666.5" width="40" height="20" as="geometry" />
        </mxCell>
        <mxCell id="hc69DyIE2OQv7nk9ciK2-354" value="" style="verticalLabelPosition=bottom;verticalAlign=top;html=1;shape=mxgraph.basic.patternFillRect;fillStyle=auto;step=5;fillStrokeWidth=0.2;fillStrokeColor=#dddddd;gradientDirection=north;strokeColor=none;shadow=0;sketch=0;fillColor=#eeeeee;strokeWidth=3;" vertex="1" parent="1">
          <mxGeometry x="904.6700000000001" y="652.5" width="47.22" height="47" as="geometry" />
        </mxCell>
        <mxCell id="hc69DyIE2OQv7nk9ciK2-355" value="" style="verticalLabelPosition=bottom;verticalAlign=top;html=1;shape=mxgraph.basic.patternFillRect;fillStyle=auto;step=5;fillStrokeWidth=0.2;fillStrokeColor=#dddddd;gradientDirection=north;strokeColor=none;shadow=0;sketch=0;fillColor=#eeeeee;strokeWidth=3;" vertex="1" parent="1">
          <mxGeometry x="969.8900000000001" y="652.5" width="47.22" height="47" as="geometry" />
        </mxCell>
        <mxCell id="hc69DyIE2OQv7nk9ciK2-356" value="&lt;font style=&quot;font-size: 20px;&quot;&gt;高&lt;/font&gt;" style="text;html=1;resizable=0;autosize=1;align=center;verticalAlign=middle;points=[];fillColor=none;strokeColor=none;rounded=0;dashed=1;fontFamily=Times New Roman;fontSize=11;strokeWidth=3;" vertex="1" parent="1">
          <mxGeometry x="908.1600000000001" y="666" width="40" height="20" as="geometry" />
        </mxCell>
        <mxCell id="hc69DyIE2OQv7nk9ciK2-357" value="&lt;font style=&quot;font-size: 20px;&quot;&gt;达&lt;/font&gt;" style="text;html=1;resizable=0;autosize=1;align=center;verticalAlign=middle;points=[];fillColor=none;strokeColor=none;rounded=0;dashed=1;fontFamily=Times New Roman;fontSize=11;strokeWidth=3;" vertex="1" parent="1">
          <mxGeometry x="973.5" y="666" width="40" height="20" as="geometry" />
        </mxCell>
        <mxCell id="hc69DyIE2OQv7nk9ciK2-358" value="" style="verticalLabelPosition=bottom;verticalAlign=top;html=1;shape=mxgraph.basic.patternFillRect;fillStyle=auto;step=5;fillStrokeWidth=0.2;fillStrokeColor=#dddddd;gradientDirection=north;strokeColor=none;shadow=0;sketch=0;fillColor=#eeeeee;strokeWidth=3;" vertex="1" parent="1">
          <mxGeometry x="1036.6200000000001" y="652" width="47.22" height="47" as="geometry" />
        </mxCell>
        <mxCell id="hc69DyIE2OQv7nk9ciK2-359" value="" style="verticalLabelPosition=bottom;verticalAlign=top;html=1;shape=mxgraph.basic.patternFillRect;fillStyle=auto;step=5;fillStrokeWidth=0.2;fillStrokeColor=#dddddd;gradientDirection=north;strokeColor=none;shadow=0;sketch=0;fillColor=#eeeeee;strokeWidth=3;" vertex="1" parent="1">
          <mxGeometry x="1102.65" y="652" width="47.22" height="47" as="geometry" />
        </mxCell>
        <mxCell id="hc69DyIE2OQv7nk9ciK2-360" value="&lt;font style=&quot;font-size: 20px;&quot;&gt;3&lt;/font&gt;" style="text;html=1;resizable=0;autosize=1;align=center;verticalAlign=middle;points=[];fillColor=none;strokeColor=none;rounded=0;dashed=1;fontFamily=Times New Roman;fontSize=11;strokeWidth=3;" vertex="1" parent="1">
          <mxGeometry x="1045.23" y="665.5" width="30" height="20" as="geometry" />
        </mxCell>
        <mxCell id="hc69DyIE2OQv7nk9ciK2-361" value="&lt;font style=&quot;font-size: 20px;&quot;&gt;9&lt;/font&gt;" style="text;html=1;resizable=0;autosize=1;align=center;verticalAlign=middle;points=[];fillColor=none;strokeColor=none;rounded=0;dashed=1;fontFamily=Times New Roman;fontSize=11;strokeWidth=3;" vertex="1" parent="1">
          <mxGeometry x="1111.2600000000002" y="665.5" width="30" height="20" as="geometry" />
        </mxCell>
        <mxCell id="hc69DyIE2OQv7nk9ciK2-362" value="" style="verticalLabelPosition=bottom;verticalAlign=top;html=1;shape=mxgraph.basic.patternFillRect;fillStyle=auto;step=5;fillStrokeWidth=0.2;fillStrokeColor=#dddddd;gradientDirection=north;strokeColor=none;shadow=0;sketch=0;fillColor=#eeeeee;strokeWidth=3;" vertex="1" parent="1">
          <mxGeometry x="1169.8700000000001" y="652" width="47.22" height="47" as="geometry" />
        </mxCell>
        <mxCell id="hc69DyIE2OQv7nk9ciK2-363" value="" style="verticalLabelPosition=bottom;verticalAlign=top;html=1;shape=mxgraph.basic.patternFillRect;fillStyle=auto;step=5;fillStrokeWidth=0.2;fillStrokeColor=#dddddd;gradientDirection=north;strokeColor=none;shadow=0;sketch=0;fillColor=#eeeeee;strokeWidth=3;" vertex="1" parent="1">
          <mxGeometry x="1236.0900000000001" y="652" width="47.22" height="47" as="geometry" />
        </mxCell>
        <mxCell id="hc69DyIE2OQv7nk9ciK2-364" value="" style="verticalLabelPosition=bottom;verticalAlign=top;html=1;shape=mxgraph.basic.patternFillRect;fillStyle=auto;step=5;fillStrokeWidth=0.2;fillStrokeColor=#dddddd;gradientDirection=north;strokeColor=none;shadow=0;sketch=0;fillColor=#eeeeee;strokeWidth=3;" vertex="1" parent="1">
          <mxGeometry x="1303.3100000000002" y="652" width="47.22" height="47" as="geometry" />
        </mxCell>
        <mxCell id="hc69DyIE2OQv7nk9ciK2-365" value="&lt;font style=&quot;font-size: 20px;&quot;&gt;摄&lt;/font&gt;" style="text;html=1;resizable=0;autosize=1;align=center;verticalAlign=middle;points=[];fillColor=none;strokeColor=none;rounded=0;dashed=1;fontFamily=Times New Roman;fontSize=11;strokeWidth=3;" vertex="1" parent="1">
          <mxGeometry x="1173.48" y="665.5" width="40" height="20" as="geometry" />
        </mxCell>
        <mxCell id="hc69DyIE2OQv7nk9ciK2-366" value="&lt;font style=&quot;font-size: 20px;&quot;&gt;氏&lt;/font&gt;" style="text;html=1;resizable=0;autosize=1;align=center;verticalAlign=middle;points=[];fillColor=none;strokeColor=none;rounded=0;dashed=1;fontFamily=Times New Roman;fontSize=11;strokeWidth=3;" vertex="1" parent="1">
          <mxGeometry x="1239.7" y="665.5" width="40" height="20" as="geometry" />
        </mxCell>
        <mxCell id="hc69DyIE2OQv7nk9ciK2-367" value="&lt;font style=&quot;font-size: 20px;&quot;&gt;度&lt;/font&gt;" style="text;html=1;resizable=0;autosize=1;align=center;verticalAlign=middle;points=[];fillColor=none;strokeColor=none;rounded=0;dashed=1;fontFamily=Times New Roman;fontSize=11;strokeWidth=3;" vertex="1" parent="1">
          <mxGeometry x="1306.92" y="665.5" width="40" height="20" as="geometry" />
        </mxCell>
        <mxCell id="hc69DyIE2OQv7nk9ciK2-368" value="" style="verticalLabelPosition=bottom;verticalAlign=top;html=1;shape=mxgraph.basic.patternFillRect;fillStyle=auto;step=5;fillStrokeWidth=0.2;fillStrokeColor=#dddddd;gradientDirection=north;strokeColor=none;shadow=0;sketch=0;fillColor=#eeeeee;strokeWidth=3;" vertex="1" parent="1">
          <mxGeometry x="1371.9600000000003" y="651.5" width="47.22" height="47" as="geometry" />
        </mxCell>
        <mxCell id="hc69DyIE2OQv7nk9ciK2-369" value="&lt;span style=&quot;font-size: 20px;&quot;&gt;&amp;nbsp; &amp;nbsp;。&lt;/span&gt;" style="text;html=1;resizable=0;autosize=1;align=center;verticalAlign=middle;points=[];fillColor=none;strokeColor=none;rounded=0;dashed=1;fontFamily=Times New Roman;fontSize=11;strokeWidth=3;" vertex="1" parent="1">
          <mxGeometry x="1365.5700000000002" y="653" width="60" height="40" as="geometry" />
        </mxCell>
        <mxCell id="hc69DyIE2OQv7nk9ciK2-370" value="" style="verticalLabelPosition=bottom;verticalAlign=top;html=1;shape=mxgraph.basic.patternFillRect;fillStyle=auto;step=5;fillStrokeWidth=0.2;fillStrokeColor=#dddddd;gradientDirection=north;strokeColor=none;shadow=0;sketch=0;fillColor=#DB7372;" vertex="1" parent="1">
          <mxGeometry x="715.6711111111111" y="1114.1000000000001" width="35.33333333333334" height="30" as="geometry" />
        </mxCell>
        <mxCell id="hc69DyIE2OQv7nk9ciK2-371" value="" style="verticalLabelPosition=bottom;verticalAlign=top;html=1;shape=mxgraph.basic.patternFillRect;fillStyle=auto;step=5;fillStrokeWidth=0.2;fillStrokeColor=#dddddd;gradientDirection=north;strokeColor=none;shadow=0;sketch=0;fillColor=#DB7372;" vertex="1" parent="1">
          <mxGeometry x="715.6711111111111" y="1144.1000000000001" width="35.33333333333334" height="30" as="geometry" />
        </mxCell>
        <mxCell id="hc69DyIE2OQv7nk9ciK2-372" value="" style="verticalLabelPosition=bottom;verticalAlign=top;html=1;shape=mxgraph.basic.patternFillRect;fillStyle=auto;step=5;fillStrokeWidth=0.2;fillStrokeColor=#dddddd;gradientDirection=north;strokeColor=none;shadow=0;sketch=0;fillColor=#DB7372;" vertex="1" parent="1">
          <mxGeometry x="715.6711111111111" y="1174.1000000000001" width="35.33333333333334" height="30" as="geometry" />
        </mxCell>
        <mxCell id="hc69DyIE2OQv7nk9ciK2-373" value="" style="verticalLabelPosition=bottom;verticalAlign=top;html=1;shape=mxgraph.basic.patternFillRect;fillStyle=auto;step=5;fillStrokeWidth=0.2;fillStrokeColor=#dddddd;gradientDirection=north;strokeColor=none;shadow=0;sketch=0;fillColor=#DB7372;" vertex="1" parent="1">
          <mxGeometry x="715.6711111111111" y="1204.1000000000001" width="35.33333333333334" height="30" as="geometry" />
        </mxCell>
        <mxCell id="hc69DyIE2OQv7nk9ciK2-374" value="" style="verticalLabelPosition=bottom;verticalAlign=top;html=1;shape=mxgraph.basic.patternFillRect;fillStyle=auto;step=5;fillStrokeWidth=0.2;fillStrokeColor=#dddddd;gradientDirection=north;strokeColor=none;shadow=0;sketch=0;fillColor=#DB7372;" vertex="1" parent="1">
          <mxGeometry x="715.6711111111111" y="1234.1000000000001" width="35.33333333333334" height="30" as="geometry" />
        </mxCell>
        <mxCell id="hc69DyIE2OQv7nk9ciK2-375" value="" style="verticalLabelPosition=bottom;verticalAlign=top;html=1;shape=mxgraph.basic.patternFillRect;fillStyle=auto;step=5;fillStrokeWidth=0.2;fillStrokeColor=#dddddd;gradientDirection=north;strokeColor=none;shadow=0;sketch=0;fillColor=#DB7372;" vertex="1" parent="1">
          <mxGeometry x="715.6711111111111" y="1264.1000000000001" width="35.33333333333334" height="30" as="geometry" />
        </mxCell>
        <mxCell id="hc69DyIE2OQv7nk9ciK2-376" value="" style="verticalLabelPosition=bottom;verticalAlign=top;html=1;shape=mxgraph.basic.patternFillRect;fillStyle=auto;step=5;fillStrokeWidth=0.2;fillStrokeColor=#dddddd;gradientDirection=north;strokeColor=none;shadow=0;sketch=0;fillColor=#DB7372;" vertex="1" parent="1">
          <mxGeometry x="715.6711111111111" y="1294.1000000000001" width="35.33333333333334" height="30" as="geometry" />
        </mxCell>
        <mxCell id="hc69DyIE2OQv7nk9ciK2-377" value="" style="verticalLabelPosition=bottom;verticalAlign=top;html=1;shape=mxgraph.basic.patternFillRect;fillStyle=auto;step=5;fillStrokeWidth=0.2;fillStrokeColor=#dddddd;gradientDirection=north;strokeColor=none;shadow=0;sketch=0;fillColor=#DB7372;" vertex="1" parent="1">
          <mxGeometry x="715.6711111111111" y="1324.1000000000001" width="35.33333333333334" height="30" as="geometry" />
        </mxCell>
        <mxCell id="hc69DyIE2OQv7nk9ciK2-378" value="" style="verticalLabelPosition=bottom;verticalAlign=top;html=1;shape=mxgraph.basic.patternFillRect;fillStyle=auto;step=5;fillStrokeWidth=0.2;fillStrokeColor=#dddddd;gradientDirection=north;strokeColor=none;shadow=0;sketch=0;fillColor=#DB7372;" vertex="1" parent="1">
          <mxGeometry x="715.6711111111111" y="1084.1000000000001" width="35.33333333333334" height="30" as="geometry" />
        </mxCell>
        <mxCell id="hc69DyIE2OQv7nk9ciK2-379" value="" style="verticalLabelPosition=bottom;verticalAlign=top;html=1;shape=mxgraph.basic.patternFillRect;fillStyle=auto;step=5;fillStrokeWidth=0.2;fillStrokeColor=#dddddd;gradientDirection=north;strokeColor=none;shadow=0;sketch=0;fillColor=#DB7372;" vertex="1" parent="1">
          <mxGeometry x="715.6711111111111" y="1054.1000000000001" width="35.33333333333334" height="30" as="geometry" />
        </mxCell>
        <mxCell id="hc69DyIE2OQv7nk9ciK2-380" value="" style="verticalLabelPosition=bottom;verticalAlign=top;html=1;shape=mxgraph.basic.patternFillRect;fillStyle=auto;step=5;fillStrokeWidth=0.2;fillStrokeColor=#dddddd;gradientDirection=north;strokeColor=none;shadow=0;sketch=0;fillColor=#DB7372;" vertex="1" parent="1">
          <mxGeometry x="715.6711111111111" y="1354.1000000000001" width="35.33333333333334" height="30" as="geometry" />
        </mxCell>
        <mxCell id="hc69DyIE2OQv7nk9ciK2-381" value="" style="whiteSpace=wrap;html=1;aspect=fixed;fontSize=20;strokeColor=none;strokeWidth=1;fillColor=#B15A43;" vertex="1" parent="1">
          <mxGeometry x="905.61" y="1742.5" width="47" height="47" as="geometry" />
        </mxCell>
        <mxCell id="hc69DyIE2OQv7nk9ciK2-382" value="" style="whiteSpace=wrap;html=1;aspect=fixed;fontSize=20;strokeColor=none;strokeWidth=1;fillColor=#B15A43;" vertex="1" parent="1">
          <mxGeometry x="873.5" y="1942.5" width="47" height="47" as="geometry" />
        </mxCell>
        <mxCell id="hc69DyIE2OQv7nk9ciK2-383" value="" style="whiteSpace=wrap;html=1;aspect=fixed;fontSize=20;strokeColor=none;strokeWidth=1;fillColor=#B15A43;" vertex="1" parent="1">
          <mxGeometry x="873.5" y="2023.5" width="47" height="47" as="geometry" />
        </mxCell>
        <mxCell id="hc69DyIE2OQv7nk9ciK2-384" value="" style="whiteSpace=wrap;html=1;aspect=fixed;fontSize=20;strokeColor=none;strokeWidth=1;fillColor=#B15A43;" vertex="1" parent="1">
          <mxGeometry x="1014.8600000000001" y="2023.5" width="47" height="47" as="geometry" />
        </mxCell>
        <mxCell id="hc69DyIE2OQv7nk9ciK2-385" value="" style="whiteSpace=wrap;html=1;aspect=fixed;fontSize=20;strokeColor=none;strokeWidth=1;fillColor=#B15A43;" vertex="1" parent="1">
          <mxGeometry x="1180.6100000000001" y="1742.5" width="47" height="47" as="geometry" />
        </mxCell>
        <mxCell id="hc69DyIE2OQv7nk9ciK2-386" value="" style="whiteSpace=wrap;html=1;aspect=fixed;fontSize=20;strokeColor=none;strokeWidth=1;fillColor=#B15A43;" vertex="1" parent="1">
          <mxGeometry x="1151.1100000000001" y="1942.5" width="47" height="47" as="geometry" />
        </mxCell>
        <mxCell id="hc69DyIE2OQv7nk9ciK2-387" value="" style="whiteSpace=wrap;html=1;aspect=fixed;fontSize=20;strokeColor=none;strokeWidth=1;fillColor=#B15A43;" vertex="1" parent="1">
          <mxGeometry x="1177.84" y="2023.5" width="47" height="47" as="geometry" />
        </mxCell>
        <mxCell id="hc69DyIE2OQv7nk9ciK2-388" value="" style="whiteSpace=wrap;html=1;aspect=fixed;fontSize=20;strokeColor=none;strokeWidth=1;fillColor=#B15A43;" vertex="1" parent="1">
          <mxGeometry x="1319.2" y="2023.5" width="47" height="47" as="geometry" />
        </mxCell>
        <mxCell id="hc69DyIE2OQv7nk9ciK2-389" value="" style="whiteSpace=wrap;html=1;aspect=fixed;fontSize=20;strokeColor=none;strokeWidth=1;fillColor=#B15A43;" vertex="1" parent="1">
          <mxGeometry x="1318" y="1942.5" width="47" height="47" as="geometry" />
        </mxCell>
        <mxCell id="hc69DyIE2OQv7nk9ciK2-390" value="" style="whiteSpace=wrap;html=1;aspect=fixed;fontSize=20;strokeColor=none;strokeWidth=1;fillColor=#B15A43;" vertex="1" parent="1">
          <mxGeometry x="1345.52" y="1742.5" width="47" height="47" as="geometry" />
        </mxCell>
        <mxCell id="hc69DyIE2OQv7nk9ciK2-391" value="" style="whiteSpace=wrap;html=1;aspect=fixed;fontSize=20;strokeColor=none;strokeWidth=1;fillColor=#B15A43;" vertex="1" parent="1">
          <mxGeometry x="1507.57" y="1742.5" width="47" height="47" as="geometry" />
        </mxCell>
        <mxCell id="hc69DyIE2OQv7nk9ciK2-392" value="" style="whiteSpace=wrap;html=1;aspect=fixed;fontSize=20;strokeColor=none;strokeWidth=1;fillColor=#8891CD;" vertex="1" parent="1">
          <mxGeometry x="1734" y="1742.5" width="47" height="47" as="geometry" />
        </mxCell>
        <mxCell id="hc69DyIE2OQv7nk9ciK2-393" value="" style="whiteSpace=wrap;html=1;aspect=fixed;fontSize=20;strokeColor=none;strokeWidth=1;fillColor=#8891CD;" vertex="1" parent="1">
          <mxGeometry x="1734" y="1800" width="47" height="47" as="geometry" />
        </mxCell>
        <mxCell id="hc69DyIE2OQv7nk9ciK2-394" value="" style="whiteSpace=wrap;html=1;aspect=fixed;fontSize=20;strokeColor=none;strokeWidth=1;fillColor=#8891CD;" vertex="1" parent="1">
          <mxGeometry x="905.61" y="1742.5" width="47" height="47" as="geometry" />
        </mxCell>
        <mxCell id="hc69DyIE2OQv7nk9ciK2-395" value="" style="whiteSpace=wrap;html=1;aspect=fixed;fontSize=20;strokeColor=none;strokeWidth=1;fillColor=#8891CD;" vertex="1" parent="1">
          <mxGeometry x="873.5" y="1942.5" width="47" height="47" as="geometry" />
        </mxCell>
        <mxCell id="hc69DyIE2OQv7nk9ciK2-396" value="" style="whiteSpace=wrap;html=1;aspect=fixed;fontSize=20;strokeColor=none;strokeWidth=1;fillColor=#8891CD;" vertex="1" parent="1">
          <mxGeometry x="1180.6100000000001" y="1742.5" width="47" height="47" as="geometry" />
        </mxCell>
        <mxCell id="hc69DyIE2OQv7nk9ciK2-397" value="" style="whiteSpace=wrap;html=1;aspect=fixed;fontSize=20;strokeColor=none;strokeWidth=1;fillColor=#8891CD;" vertex="1" parent="1">
          <mxGeometry x="1345.52" y="1742.5" width="47" height="47" as="geometry" />
        </mxCell>
        <mxCell id="hc69DyIE2OQv7nk9ciK2-398" value="" style="whiteSpace=wrap;html=1;aspect=fixed;fontSize=20;strokeColor=none;strokeWidth=1;fillColor=#8891CD;" vertex="1" parent="1">
          <mxGeometry x="1507.57" y="1742.5" width="47" height="47" as="geometry" />
        </mxCell>
        <mxCell id="hc69DyIE2OQv7nk9ciK2-399" value="" style="whiteSpace=wrap;html=1;aspect=fixed;fontSize=20;strokeColor=none;strokeWidth=1;fillColor=#8891CD;" vertex="1" parent="1">
          <mxGeometry x="1151.1100000000001" y="1942.5" width="47" height="47" as="geometry" />
        </mxCell>
        <mxCell id="hc69DyIE2OQv7nk9ciK2-400" value="" style="whiteSpace=wrap;html=1;aspect=fixed;fontSize=20;strokeColor=none;strokeWidth=1;fillColor=#8891CD;" vertex="1" parent="1">
          <mxGeometry x="1318" y="1942.5" width="47" height="47" as="geometry" />
        </mxCell>
        <mxCell id="hc69DyIE2OQv7nk9ciK2-401" value="" style="whiteSpace=wrap;html=1;aspect=fixed;fontSize=20;strokeColor=none;strokeWidth=1;fillColor=#8891CD;" vertex="1" parent="1">
          <mxGeometry x="1319.2" y="2023.5" width="47" height="47" as="geometry" />
        </mxCell>
        <mxCell id="hc69DyIE2OQv7nk9ciK2-402" value="" style="whiteSpace=wrap;html=1;aspect=fixed;fontSize=20;strokeColor=none;strokeWidth=1;fillColor=#8891CD;" vertex="1" parent="1">
          <mxGeometry x="1177.84" y="2023.5" width="47" height="47" as="geometry" />
        </mxCell>
        <mxCell id="hc69DyIE2OQv7nk9ciK2-403" value="" style="whiteSpace=wrap;html=1;aspect=fixed;fontSize=20;strokeColor=none;strokeWidth=1;fillColor=#8891CD;" vertex="1" parent="1">
          <mxGeometry x="873.5" y="2023.5" width="47" height="47" as="geometry" />
        </mxCell>
        <mxCell id="hc69DyIE2OQv7nk9ciK2-404" value="" style="whiteSpace=wrap;html=1;aspect=fixed;fontSize=20;strokeColor=none;strokeWidth=1;fillColor=#8891CD;" vertex="1" parent="1">
          <mxGeometry x="1014.8600000000001" y="2023.5" width="47" height="47" as="geometry" />
        </mxCell>
        <mxCell id="hc69DyIE2OQv7nk9ciK2-405" value="" style="endArrow=none;html=1;rounded=0;" edge="1" parent="1">
          <mxGeometry width="50" height="50" relative="1" as="geometry">
            <mxPoint x="1867" y="1795" as="sourcePoint" />
            <mxPoint x="1596" y="1795" as="targetPoint" />
          </mxGeometry>
        </mxCell>
        <mxCell id="hc69DyIE2OQv7nk9ciK2-406" value="" style="endArrow=none;html=1;rounded=0;" edge="1" parent="1">
          <mxGeometry width="50" height="50" relative="1" as="geometry">
            <mxPoint x="1867" y="1853" as="sourcePoint" />
            <mxPoint x="1596" y="1853" as="targetPoint" />
          </mxGeometry>
        </mxCell>
        <mxCell id="hc69DyIE2OQv7nk9ciK2-407" value="" style="endArrow=none;html=1;rounded=0;" edge="1" parent="1">
          <mxGeometry width="50" height="50" relative="1" as="geometry">
            <mxPoint x="1867" y="1908" as="sourcePoint" />
            <mxPoint x="1597" y="1908" as="targetPoint" />
          </mxGeometry>
        </mxCell>
        <mxCell id="hc69DyIE2OQv7nk9ciK2-408" value="The encoder&lt;br&gt;of&lt;br&gt;Transformer" style="text;html=1;resizable=0;autosize=1;align=center;verticalAlign=middle;points=[];fillColor=none;strokeColor=none;rounded=0;shadow=0;sketch=0;fillStyle=auto;fontFamily=Times New Roman;fontSize=27;" vertex="1" parent="1">
          <mxGeometry x="1678.0028304947284" y="1162.1" width="160" height="110" as="geometry" />
        </mxCell>
        <mxCell id="hc69DyIE2OQv7nk9ciK2-409" value="" style="rounded=0;whiteSpace=wrap;html=1;fillColor=none;strokeWidth=2;" vertex="1" parent="1">
          <mxGeometry x="1441.3" y="2066.5" width="415.4" height="90" as="geometry" />
        </mxCell>
        <mxCell id="hc69DyIE2OQv7nk9ciK2-410" value="" style="verticalLabelPosition=bottom;verticalAlign=top;html=1;shape=mxgraph.basic.patternFillRect;fillStyle=hor;step=5;fillStrokeWidth=0.2;fillStrokeColor=#dddddd;shadow=0;sketch=0;strokeColor=#000000;gradientColor=#ffffff;gradientDirection=north;fillColor=none;strokeWidth=2;" vertex="1" parent="1">
          <mxGeometry x="1032" y="829" width="387" height="60" as="geometry" />
        </mxCell>
        <mxCell id="hc69DyIE2OQv7nk9ciK2-411" value="&lt;p&gt;&lt;b style=&quot;font-family: &amp;quot;Times New Roman&amp;quot;; font-size: 27px;&quot;&gt;Lexicon embedding generation&lt;/b&gt;&lt;br&gt;&lt;/p&gt;" style="text;html=1;resizable=0;autosize=1;align=center;verticalAlign=middle;points=[];fillColor=none;rounded=0;shadow=0;dashed=1;sketch=0;fillStyle=auto;" vertex="1" parent="1">
          <mxGeometry x="1042.5982142857142" y="823" width="380" height="70" as="geometry" />
        </mxCell>
        <mxCell id="hc69DyIE2OQv7nk9ciK2-412" value="" style="verticalLabelPosition=bottom;verticalAlign=top;html=1;shape=mxgraph.basic.rect;fillColor2=none;strokeWidth=5;size=20;indent=5;shadow=0;sketch=0;fillStyle=auto;fontFamily=Times New Roman;fontSize=27;fillColor=none;gradientDirection=north;dashed=1;fontColor=#333333;strokeColor=#808080;movable=1;resizable=1;rotatable=1;deletable=1;editable=1;locked=0;connectable=1;" vertex="1" parent="1">
          <mxGeometry x="997.9" y="777" width="457.4" height="237" as="geometry" />
        </mxCell>
        <mxCell id="hc69DyIE2OQv7nk9ciK2-413" value="Lexicon information" style="text;html=1;resizable=0;autosize=1;align=center;verticalAlign=middle;points=[];fillColor=none;strokeColor=none;rounded=0;shadow=0;dashed=1;sketch=0;fillStyle=auto;fontFamily=Times New Roman;fontSize=27;" vertex="1" parent="1">
          <mxGeometry x="1106.6" y="783" width="240" height="40" as="geometry" />
        </mxCell>
        <mxCell id="hc69DyIE2OQv7nk9ciK2-414" value="" style="verticalLabelPosition=bottom;verticalAlign=top;html=1;shape=mxgraph.basic.rect;fillColor2=none;strokeWidth=5;size=20;indent=5;shadow=0;sketch=0;fillStyle=auto;fontFamily=Times New Roman;fontSize=27;fillColor=none;gradientDirection=north;dashed=1;fontColor=#333333;strokeColor=#808080;" vertex="1" parent="1">
          <mxGeometry x="456" y="777" width="488" height="239.5" as="geometry" />
        </mxCell>
      </root>
    </mxGraphModel>
  </diagram>
</mxfile>
